<mxfile host="app.diagrams.net" modified="2021-03-20T10:16:11.280Z" agent="5.0 (Macintosh; Intel Mac OS X 10_14_6) AppleWebKit/537.36 (KHTML, like Gecko) Chrome/89.0.4389.82 Safari/537.36" etag="atdajH1AZiw1eadPAGG1" version="14.2.9" type="github" pages="5">
  <diagram id="OjlroOQtXwwdxugbRqmy" name="产品组件图">
    <mxGraphModel dx="946" dy="534" grid="1" gridSize="10" guides="1" tooltips="1" connect="1" arrows="1" fold="1" page="1" pageScale="1" pageWidth="827" pageHeight="1169" math="0" shadow="0">
      <root>
        <mxCell id="6bF99uoXSCuqQoChj_9p-0" />
        <mxCell id="6bF99uoXSCuqQoChj_9p-1" parent="6bF99uoXSCuqQoChj_9p-0" />
        <mxCell id="6bF99uoXSCuqQoChj_9p-25" value="" style="whiteSpace=wrap;html=1;aspect=fixed;" parent="6bF99uoXSCuqQoChj_9p-1" vertex="1">
          <mxGeometry x="155" y="340" width="170" height="170" as="geometry" />
        </mxCell>
        <mxCell id="6bF99uoXSCuqQoChj_9p-3" value="" style="html=1;whiteSpace=wrap;fillColor=#ffff99;shape=mxgraph.archimate3.application;appType=func;archiType=rounded;fontSize=14;" parent="6bF99uoXSCuqQoChj_9p-1" vertex="1">
          <mxGeometry x="140" y="555" width="610" height="170" as="geometry" />
        </mxCell>
        <mxCell id="6bF99uoXSCuqQoChj_9p-4" value="" style="html=1;whiteSpace=wrap;fillColor=#ffff99;shape=mxgraph.archimate3.application;appType=func;archiType=rounded;fontSize=14;" parent="6bF99uoXSCuqQoChj_9p-1" vertex="1">
          <mxGeometry x="140" y="310" width="610" height="240" as="geometry" />
        </mxCell>
        <mxCell id="6bF99uoXSCuqQoChj_9p-12" value="数据服务（saas）" style="rounded=1;whiteSpace=wrap;html=1;" parent="6bF99uoXSCuqQoChj_9p-1" vertex="1">
          <mxGeometry x="170" y="585" width="420" height="60" as="geometry" />
        </mxCell>
        <mxCell id="6bF99uoXSCuqQoChj_9p-13" value="数据平台（paas）" style="rounded=1;whiteSpace=wrap;html=1;" parent="6bF99uoXSCuqQoChj_9p-1" vertex="1">
          <mxGeometry x="170" y="656" width="420" height="49" as="geometry" />
        </mxCell>
        <mxCell id="6bF99uoXSCuqQoChj_9p-15" value="数据中台 DAAS" style="text;html=1;strokeColor=none;fillColor=none;align=center;verticalAlign=middle;whiteSpace=wrap;rounded=0;" parent="6bF99uoXSCuqQoChj_9p-1" vertex="1">
          <mxGeometry x="150" y="555" width="90" height="20" as="geometry" />
        </mxCell>
        <mxCell id="6bF99uoXSCuqQoChj_9p-18" value="智慧环卫" style="rounded=1;whiteSpace=wrap;html=1;" parent="6bF99uoXSCuqQoChj_9p-1" vertex="1">
          <mxGeometry x="160" y="340" width="120" height="30" as="geometry" />
        </mxCell>
        <mxCell id="6bF99uoXSCuqQoChj_9p-19" value="车辆网" style="rounded=1;whiteSpace=wrap;html=1;" parent="6bF99uoXSCuqQoChj_9p-1" vertex="1">
          <mxGeometry x="320" y="340" width="120" height="30" as="geometry" />
        </mxCell>
        <mxCell id="6bF99uoXSCuqQoChj_9p-21" value="作业云图" style="rounded=0;whiteSpace=wrap;html=1;" parent="6bF99uoXSCuqQoChj_9p-1" vertex="1">
          <mxGeometry x="160" y="380" width="120" height="30" as="geometry" />
        </mxCell>
        <mxCell id="6bF99uoXSCuqQoChj_9p-22" value="机械保洁" style="rounded=0;whiteSpace=wrap;html=1;" parent="6bF99uoXSCuqQoChj_9p-1" vertex="1">
          <mxGeometry x="160" y="410" width="120" height="30" as="geometry" />
        </mxCell>
        <mxCell id="6bF99uoXSCuqQoChj_9p-23" value="智慧公厕" style="rounded=0;whiteSpace=wrap;html=1;" parent="6bF99uoXSCuqQoChj_9p-1" vertex="1">
          <mxGeometry x="470" y="340" width="120" height="30" as="geometry" />
        </mxCell>
        <mxCell id="6bF99uoXSCuqQoChj_9p-24" value="环卫OA" style="rounded=0;whiteSpace=wrap;html=1;" parent="6bF99uoXSCuqQoChj_9p-1" vertex="1">
          <mxGeometry x="160" y="500" width="120" height="30" as="geometry" />
        </mxCell>
        <mxCell id="6bF99uoXSCuqQoChj_9p-27" value="车辆租赁" style="rounded=0;whiteSpace=wrap;html=1;" parent="6bF99uoXSCuqQoChj_9p-1" vertex="1">
          <mxGeometry x="320" y="380" width="120" height="30" as="geometry" />
        </mxCell>
        <mxCell id="6bF99uoXSCuqQoChj_9p-28" value="车辆租赁" style="rounded=0;whiteSpace=wrap;html=1;" parent="6bF99uoXSCuqQoChj_9p-1" vertex="1">
          <mxGeometry x="320" y="410" width="120" height="30" as="geometry" />
        </mxCell>
        <mxCell id="6bF99uoXSCuqQoChj_9p-29" value="垃圾收运" style="rounded=0;whiteSpace=wrap;html=1;" parent="6bF99uoXSCuqQoChj_9p-1" vertex="1">
          <mxGeometry x="160" y="440" width="120" height="30" as="geometry" />
        </mxCell>
        <mxCell id="6bF99uoXSCuqQoChj_9p-30" value="垃圾分类" style="rounded=0;whiteSpace=wrap;html=1;" parent="6bF99uoXSCuqQoChj_9p-1" vertex="1">
          <mxGeometry x="160" y="470" width="120" height="30" as="geometry" />
        </mxCell>
        <mxCell id="6bF99uoXSCuqQoChj_9p-32" value="数据产品" style="rounded=1;whiteSpace=wrap;html=1;" parent="6bF99uoXSCuqQoChj_9p-1" vertex="1">
          <mxGeometry x="600" y="340" width="120" height="30" as="geometry" />
        </mxCell>
        <mxCell id="6bF99uoXSCuqQoChj_9p-33" value="集团版数据" style="rounded=1;whiteSpace=wrap;html=1;" parent="6bF99uoXSCuqQoChj_9p-1" vertex="1">
          <mxGeometry x="600" y="380" width="120" height="30" as="geometry" />
        </mxCell>
        <mxCell id="6bF99uoXSCuqQoChj_9p-34" value="数据" style="rounded=0;whiteSpace=wrap;html=1;" parent="6bF99uoXSCuqQoChj_9p-1" vertex="1">
          <mxGeometry x="610" y="590.5" width="120" height="49" as="geometry" />
        </mxCell>
        <mxCell id="6bF99uoXSCuqQoChj_9p-35" value="标准化" style="rounded=0;whiteSpace=wrap;html=1;" parent="6bF99uoXSCuqQoChj_9p-1" vertex="1">
          <mxGeometry x="611" y="656" width="120" height="49" as="geometry" />
        </mxCell>
        <mxCell id="6bF99uoXSCuqQoChj_9p-36" value="数据应用" style="text;html=1;strokeColor=none;fillColor=none;align=center;verticalAlign=middle;whiteSpace=wrap;rounded=0;" parent="6bF99uoXSCuqQoChj_9p-1" vertex="1">
          <mxGeometry x="150" y="310" width="90" height="20" as="geometry" />
        </mxCell>
        <mxCell id="o54K-bBSHKwhyZo-vszR-0" value="&amp;nbsp; 边缘终端&lt;br&gt;&lt;br&gt;&lt;br&gt;&lt;br&gt;&lt;br&gt;" style="html=1;whiteSpace=wrap;fillColor=#ffff99;shape=mxgraph.archimate3.application;appType=func;archiType=rounded;fontSize=14;align=left;" parent="6bF99uoXSCuqQoChj_9p-1" vertex="1">
          <mxGeometry x="140" y="736" width="610" height="100" as="geometry" />
        </mxCell>
        <mxCell id="fVitK9oOqo7b5JrXXt6W-0" value="GPS设备" style="rounded=1;whiteSpace=wrap;html=1;" parent="6bF99uoXSCuqQoChj_9p-1" vertex="1">
          <mxGeometry x="190" y="766" width="70" height="40" as="geometry" />
        </mxCell>
        <mxCell id="fVitK9oOqo7b5JrXXt6W-1" value="油耗传感器" style="rounded=1;whiteSpace=wrap;html=1;" parent="6bF99uoXSCuqQoChj_9p-1" vertex="1">
          <mxGeometry x="270" y="766" width="70" height="40" as="geometry" />
        </mxCell>
        <mxCell id="fVitK9oOqo7b5JrXXt6W-2" value="水耗传感器" style="rounded=1;whiteSpace=wrap;html=1;" parent="6bF99uoXSCuqQoChj_9p-1" vertex="1">
          <mxGeometry x="350" y="766" width="70" height="40" as="geometry" />
        </mxCell>
        <mxCell id="fVitK9oOqo7b5JrXXt6W-3" value="重量传感器" style="rounded=1;whiteSpace=wrap;html=1;" parent="6bF99uoXSCuqQoChj_9p-1" vertex="1">
          <mxGeometry x="430" y="766" width="70" height="40" as="geometry" />
        </mxCell>
        <mxCell id="fVitK9oOqo7b5JrXXt6W-4" value="温度传感器" style="rounded=1;whiteSpace=wrap;html=1;" parent="6bF99uoXSCuqQoChj_9p-1" vertex="1">
          <mxGeometry x="510" y="766" width="70" height="40" as="geometry" />
        </mxCell>
        <mxCell id="fVitK9oOqo7b5JrXXt6W-5" value="温度传感器" style="rounded=1;whiteSpace=wrap;html=1;" parent="6bF99uoXSCuqQoChj_9p-1" vertex="1">
          <mxGeometry x="590" y="766" width="70" height="40" as="geometry" />
        </mxCell>
        <mxCell id="LL5EBGESiCdy3rAlJ2n9-0" value="智慧园林" style="rounded=1;whiteSpace=wrap;html=1;" vertex="1" parent="6bF99uoXSCuqQoChj_9p-1">
          <mxGeometry x="470" y="380" width="120" height="30" as="geometry" />
        </mxCell>
      </root>
    </mxGraphModel>
  </diagram>
  <diagram id="6I0OCvxSQrVGMHxT2VVA" name="太的数据平台">
    <mxGraphModel dx="946" dy="534" grid="1" gridSize="10" guides="1" tooltips="1" connect="1" arrows="1" fold="1" page="1" pageScale="1" pageWidth="850" pageHeight="1100" math="0" shadow="0">
      <root>
        <mxCell id="0" />
        <mxCell id="1" parent="0" />
        <mxCell id="dKdSaXE48SgPbhcamS2K-33" value="" style="html=1;whiteSpace=wrap;fillColor=#AFFFAF;shape=mxgraph.archimate3.application;appType=node;archiType=square;fontSize=14;verticalAlign=top;" parent="1" vertex="1">
          <mxGeometry x="140" y="751" width="480" height="160" as="geometry" />
        </mxCell>
        <mxCell id="dKdSaXE48SgPbhcamS2K-54" value="" style="html=1;whiteSpace=wrap;fillColor=#ffff99;shape=mxgraph.archimate3.application;appType=func;archiType=rounded;fontSize=14;" parent="1" vertex="1">
          <mxGeometry x="140" y="570" width="480" height="170" as="geometry" />
        </mxCell>
        <mxCell id="dKdSaXE48SgPbhcamS2K-58" value="Technology" style="text;html=1;strokeColor=none;fillColor=none;align=center;verticalAlign=middle;whiteSpace=wrap;fontSize=14;" parent="1" vertex="1">
          <mxGeometry x="1269" y="751" width="240" height="20" as="geometry" />
        </mxCell>
        <mxCell id="dKdSaXE48SgPbhcamS2K-59" value="Application" style="text;html=1;strokeColor=none;fillColor=none;align=center;verticalAlign=middle;whiteSpace=wrap;fontSize=14;" parent="1" vertex="1">
          <mxGeometry x="1269" y="541" width="240" height="20" as="geometry" />
        </mxCell>
        <mxCell id="dKdSaXE48SgPbhcamS2K-60" value="Business" style="text;html=1;strokeColor=none;fillColor=none;align=center;verticalAlign=middle;whiteSpace=wrap;fontSize=14;" parent="1" vertex="1">
          <mxGeometry x="1259" y="389" width="240" height="20" as="geometry" />
        </mxCell>
        <mxCell id="dKdSaXE48SgPbhcamS2K-63" value="Title" style="text;strokeColor=none;fillColor=none;html=1;fontSize=24;fontStyle=1;verticalAlign=middle;align=center;" parent="1" vertex="1">
          <mxGeometry x="50" y="70" width="1590" height="40" as="geometry" />
        </mxCell>
        <mxCell id="0FSpcN-waftfPFk24zHa-6" value="" style="html=1;whiteSpace=wrap;fillColor=#ffff99;shape=mxgraph.archimate3.application;appType=func;archiType=rounded;fontSize=14;" parent="1" vertex="1">
          <mxGeometry x="140" y="470" width="480" height="91" as="geometry" />
        </mxCell>
        <mxCell id="0FSpcN-waftfPFk24zHa-7" value="1.paas关注指标，指标对象&amp;nbsp; &amp;nbsp; &amp;nbsp; &amp;nbsp; &amp;nbsp; &amp;nbsp; &amp;nbsp; &amp;nbsp; &amp;nbsp; &amp;nbsp; &amp;nbsp; &amp;nbsp; &amp;nbsp; &amp;nbsp;2.业务平台挂住车人，&amp;nbsp; &amp;nbsp; &amp;nbsp; &amp;nbsp; &amp;nbsp; &amp;nbsp; &amp;nbsp; &amp;nbsp; &amp;nbsp; &amp;nbsp; &amp;nbsp; &amp;nbsp; &amp;nbsp; &amp;nbsp; &amp;nbsp; &amp;nbsp; 3.业务平台之间数据打通" style="text;html=1;strokeColor=none;fillColor=none;align=center;verticalAlign=middle;whiteSpace=wrap;rounded=0;" parent="1" vertex="1">
          <mxGeometry x="900" y="820" width="240" height="100" as="geometry" />
        </mxCell>
        <mxCell id="0FSpcN-waftfPFk24zHa-8" value="业务：车，人" style="text;html=1;strokeColor=none;fillColor=none;align=center;verticalAlign=middle;whiteSpace=wrap;rounded=0;" parent="1" vertex="1">
          <mxGeometry x="890" y="620" width="130" height="20" as="geometry" />
        </mxCell>
        <mxCell id="0FSpcN-waftfPFk24zHa-9" value="业务平台之间打通" style="text;html=1;strokeColor=none;fillColor=none;align=center;verticalAlign=middle;whiteSpace=wrap;rounded=0;" parent="1" vertex="1">
          <mxGeometry x="890" y="680" width="220" height="20" as="geometry" />
        </mxCell>
        <mxCell id="YpqdckRFC09gxuxz8CKo-2" value="kafka" style="rounded=0;whiteSpace=wrap;html=1;" parent="1" vertex="1">
          <mxGeometry x="150" y="781" width="100" height="40" as="geometry" />
        </mxCell>
        <mxCell id="YpqdckRFC09gxuxz8CKo-3" value="redis" style="rounded=0;whiteSpace=wrap;html=1;" parent="1" vertex="1">
          <mxGeometry x="260" y="781" width="100" height="40" as="geometry" />
        </mxCell>
        <mxCell id="YpqdckRFC09gxuxz8CKo-4" value="ES" style="rounded=0;whiteSpace=wrap;html=1;" parent="1" vertex="1">
          <mxGeometry x="370" y="781" width="100" height="40" as="geometry" />
        </mxCell>
        <mxCell id="YpqdckRFC09gxuxz8CKo-5" value="mysql" style="rounded=0;whiteSpace=wrap;html=1;" parent="1" vertex="1">
          <mxGeometry x="480" y="781" width="100" height="40" as="geometry" />
        </mxCell>
        <mxCell id="YpqdckRFC09gxuxz8CKo-6" value="tidedb" style="rounded=0;whiteSpace=wrap;html=1;" parent="1" vertex="1">
          <mxGeometry x="150" y="841" width="100" height="40" as="geometry" />
        </mxCell>
        <mxCell id="YpqdckRFC09gxuxz8CKo-7" value="manggodb" style="rounded=0;whiteSpace=wrap;html=1;" parent="1" vertex="1">
          <mxGeometry x="260" y="841" width="100" height="40" as="geometry" />
        </mxCell>
        <mxCell id="YpqdckRFC09gxuxz8CKo-8" value="manggodb" style="rounded=0;whiteSpace=wrap;html=1;" parent="1" vertex="1">
          <mxGeometry x="370" y="841" width="100" height="40" as="geometry" />
        </mxCell>
        <mxCell id="YpqdckRFC09gxuxz8CKo-12" value="saas业务" style="rounded=1;whiteSpace=wrap;html=1;" parent="1" vertex="1">
          <mxGeometry x="170" y="600" width="420" height="60" as="geometry" />
        </mxCell>
        <mxCell id="YpqdckRFC09gxuxz8CKo-13" value="paas业务" style="rounded=1;whiteSpace=wrap;html=1;" parent="1" vertex="1">
          <mxGeometry x="170" y="671" width="420" height="49" as="geometry" />
        </mxCell>
        <mxCell id="YpqdckRFC09gxuxz8CKo-14" value="设备层" style="rounded=0;whiteSpace=wrap;html=1;" parent="1" vertex="1">
          <mxGeometry x="140" y="920" width="480" height="59" as="geometry" />
        </mxCell>
        <mxCell id="YpqdckRFC09gxuxz8CKo-17" value="API性能监控" style="text;html=1;strokeColor=none;fillColor=none;align=center;verticalAlign=middle;whiteSpace=wrap;rounded=0;" parent="1" vertex="1">
          <mxGeometry x="640" y="590" width="110" height="20" as="geometry" />
        </mxCell>
        <mxCell id="YpqdckRFC09gxuxz8CKo-19" value="站点监控" style="text;html=1;strokeColor=none;fillColor=none;align=center;verticalAlign=middle;whiteSpace=wrap;rounded=0;" parent="1" vertex="1">
          <mxGeometry x="630" y="480" width="110" height="20" as="geometry" />
        </mxCell>
        <mxCell id="YpqdckRFC09gxuxz8CKo-20" value="中间件进程监控" style="text;html=1;strokeColor=none;fillColor=none;align=center;verticalAlign=middle;whiteSpace=wrap;rounded=0;" parent="1" vertex="1">
          <mxGeometry x="630" y="781" width="110" height="20" as="geometry" />
        </mxCell>
        <mxCell id="YpqdckRFC09gxuxz8CKo-22" value="磁盘，内存基础监控" style="text;html=1;strokeColor=none;fillColor=none;align=center;verticalAlign=middle;whiteSpace=wrap;rounded=0;" parent="1" vertex="1">
          <mxGeometry x="625" y="820" width="140" height="20" as="geometry" />
        </mxCell>
        <mxCell id="YpqdckRFC09gxuxz8CKo-25" value="数据中台 DAAS" style="text;html=1;strokeColor=none;fillColor=none;align=center;verticalAlign=middle;whiteSpace=wrap;rounded=0;" parent="1" vertex="1">
          <mxGeometry x="150" y="570" width="90" height="20" as="geometry" />
        </mxCell>
        <mxCell id="YpqdckRFC09gxuxz8CKo-26" value="微服务实例进程监控" style="text;html=1;strokeColor=none;fillColor=none;align=center;verticalAlign=middle;whiteSpace=wrap;rounded=0;" parent="1" vertex="1">
          <mxGeometry x="640" y="630" width="145" height="20" as="geometry" />
        </mxCell>
        <mxCell id="YpqdckRFC09gxuxz8CKo-27" value="存活监控（业务场景限制，需要梳理设备工作时间" style="text;html=1;strokeColor=none;fillColor=none;align=center;verticalAlign=middle;whiteSpace=wrap;rounded=0;" parent="1" vertex="1">
          <mxGeometry x="630" y="920" width="260" height="20" as="geometry" />
        </mxCell>
        <mxCell id="YpqdckRFC09gxuxz8CKo-28" value="链路监控" style="text;html=1;strokeColor=none;fillColor=none;align=center;verticalAlign=middle;whiteSpace=wrap;rounded=0;" parent="1" vertex="1">
          <mxGeometry x="610" y="950" width="110" height="20" as="geometry" />
        </mxCell>
        <mxCell id="YpqdckRFC09gxuxz8CKo-29" value="中间件基础层" style="text;html=1;strokeColor=none;fillColor=none;align=center;verticalAlign=middle;whiteSpace=wrap;rounded=0;" parent="1" vertex="1">
          <mxGeometry x="150" y="751" width="80" height="20" as="geometry" />
        </mxCell>
        <mxCell id="YpqdckRFC09gxuxz8CKo-30" value="太的产品应用层" style="text;html=1;strokeColor=none;fillColor=none;align=center;verticalAlign=middle;whiteSpace=wrap;rounded=0;" parent="1" vertex="1">
          <mxGeometry x="150" y="470" width="90" height="20" as="geometry" />
        </mxCell>
        <mxCell id="YpqdckRFC09gxuxz8CKo-32" value="PC端应用" style="rounded=1;whiteSpace=wrap;html=1;" parent="1" vertex="1">
          <mxGeometry x="220" y="490" width="120" height="60" as="geometry" />
        </mxCell>
        <mxCell id="YpqdckRFC09gxuxz8CKo-33" value="移动端应用" style="rounded=1;whiteSpace=wrap;html=1;" parent="1" vertex="1">
          <mxGeometry x="400" y="490" width="120" height="60" as="geometry" />
        </mxCell>
        <mxCell id="YpqdckRFC09gxuxz8CKo-34" value="计算任务监控" style="text;html=1;strokeColor=none;fillColor=none;align=center;verticalAlign=middle;whiteSpace=wrap;rounded=0;" parent="1" vertex="1">
          <mxGeometry x="620" y="665" width="145" height="20" as="geometry" />
        </mxCell>
        <mxCell id="YpqdckRFC09gxuxz8CKo-37" value="设备层" style="text;html=1;strokeColor=none;fillColor=none;align=center;verticalAlign=middle;whiteSpace=wrap;rounded=0;" parent="1" vertex="1">
          <mxGeometry x="150" y="930" width="40" height="20" as="geometry" />
        </mxCell>
      </root>
    </mxGraphModel>
  </diagram>
  <diagram id="KVg_SRkAppgBRcVAWPCq" name="太的Paas架构">
    <mxGraphModel dx="946" dy="534" grid="1" gridSize="10" guides="1" tooltips="1" connect="1" arrows="1" fold="1" page="1" pageScale="1" pageWidth="827" pageHeight="1169" math="0" shadow="0">
      <root>
        <mxCell id="ynBSUAqHAyg0WsEJYYxt-0" />
        <mxCell id="ynBSUAqHAyg0WsEJYYxt-1" parent="ynBSUAqHAyg0WsEJYYxt-0" />
        <mxCell id="ynBSUAqHAyg0WsEJYYxt-2" value="设备层" style="rounded=0;whiteSpace=wrap;html=1;align=left;" parent="ynBSUAqHAyg0WsEJYYxt-1" vertex="1">
          <mxGeometry x="150" y="520" width="530" height="140" as="geometry" />
        </mxCell>
        <mxCell id="ynBSUAqHAyg0WsEJYYxt-3" value="设备协议交互转换层" style="rounded=0;whiteSpace=wrap;html=1;align=left;" parent="ynBSUAqHAyg0WsEJYYxt-1" vertex="1">
          <mxGeometry x="150" y="430" width="530" height="80" as="geometry" />
        </mxCell>
        <mxCell id="ynBSUAqHAyg0WsEJYYxt-4" value="接收转发层" style="rounded=0;whiteSpace=wrap;html=1;" parent="ynBSUAqHAyg0WsEJYYxt-1" vertex="1">
          <mxGeometry x="150" y="330" width="530" height="80" as="geometry" />
        </mxCell>
        <mxCell id="ynBSUAqHAyg0WsEJYYxt-5" value="计算层" style="rounded=0;whiteSpace=wrap;html=1;" parent="ynBSUAqHAyg0WsEJYYxt-1" vertex="1">
          <mxGeometry x="149" y="240" width="530" height="80" as="geometry" />
        </mxCell>
        <mxCell id="ynBSUAqHAyg0WsEJYYxt-6" value="存储层" style="rounded=0;whiteSpace=wrap;html=1;" parent="ynBSUAqHAyg0WsEJYYxt-1" vertex="1">
          <mxGeometry x="150" y="150" width="530" height="80" as="geometry" />
        </mxCell>
        <mxCell id="ynBSUAqHAyg0WsEJYYxt-7" value="GPS设备" style="rounded=1;whiteSpace=wrap;html=1;" parent="ynBSUAqHAyg0WsEJYYxt-1" vertex="1">
          <mxGeometry x="210" y="540" width="70" height="40" as="geometry" />
        </mxCell>
        <mxCell id="ynBSUAqHAyg0WsEJYYxt-8" value="油耗传感器" style="rounded=1;whiteSpace=wrap;html=1;" parent="ynBSUAqHAyg0WsEJYYxt-1" vertex="1">
          <mxGeometry x="290" y="540" width="70" height="40" as="geometry" />
        </mxCell>
        <mxCell id="ynBSUAqHAyg0WsEJYYxt-9" value="水耗传感器" style="rounded=1;whiteSpace=wrap;html=1;" parent="ynBSUAqHAyg0WsEJYYxt-1" vertex="1">
          <mxGeometry x="370" y="540" width="70" height="40" as="geometry" />
        </mxCell>
        <mxCell id="ynBSUAqHAyg0WsEJYYxt-10" value="重量传感器" style="rounded=1;whiteSpace=wrap;html=1;" parent="ynBSUAqHAyg0WsEJYYxt-1" vertex="1">
          <mxGeometry x="450" y="540" width="70" height="40" as="geometry" />
        </mxCell>
        <mxCell id="ynBSUAqHAyg0WsEJYYxt-11" value="温度传感器" style="rounded=1;whiteSpace=wrap;html=1;" parent="ynBSUAqHAyg0WsEJYYxt-1" vertex="1">
          <mxGeometry x="530" y="540" width="70" height="40" as="geometry" />
        </mxCell>
        <mxCell id="ynBSUAqHAyg0WsEJYYxt-12" value="温度传感器" style="rounded=1;whiteSpace=wrap;html=1;" parent="ynBSUAqHAyg0WsEJYYxt-1" vertex="1">
          <mxGeometry x="210" y="600" width="70" height="40" as="geometry" />
        </mxCell>
      </root>
    </mxGraphModel>
  </diagram>
  <diagram name="太的数据平台架构" id="YIX_xdArnuLnp6i_mc7p">
    <mxGraphModel dx="946" dy="591" grid="1" gridSize="10" guides="1" tooltips="1" connect="1" arrows="1" fold="1" page="1" pageScale="1" pageWidth="827" pageHeight="1169" math="0" shadow="0">
      <root>
        <mxCell id="vJd0gzTiGKXltJSO5c8B-0" />
        <mxCell id="vJd0gzTiGKXltJSO5c8B-1" parent="vJd0gzTiGKXltJSO5c8B-0" />
        <mxCell id="vJd0gzTiGKXltJSO5c8B-3" value="" style="html=1;whiteSpace=wrap;fillColor=#ffff99;shape=mxgraph.archimate3.application;appType=func;archiType=rounded;fontSize=14;" vertex="1" parent="vJd0gzTiGKXltJSO5c8B-1">
          <mxGeometry x="140" y="555" width="610" height="170" as="geometry" />
        </mxCell>
        <mxCell id="vJd0gzTiGKXltJSO5c8B-4" value="" style="html=1;whiteSpace=wrap;fillColor=#ffff99;shape=mxgraph.archimate3.application;appType=func;archiType=rounded;fontSize=14;" vertex="1" parent="vJd0gzTiGKXltJSO5c8B-1">
          <mxGeometry x="140" y="310" width="610" height="140" as="geometry" />
        </mxCell>
        <mxCell id="vJd0gzTiGKXltJSO5c8B-5" value="数据服务（saas）" style="rounded=1;whiteSpace=wrap;html=1;" vertex="1" parent="vJd0gzTiGKXltJSO5c8B-1">
          <mxGeometry x="170" y="585" width="420" height="60" as="geometry" />
        </mxCell>
        <mxCell id="vJd0gzTiGKXltJSO5c8B-6" value="数据平台（paas）" style="rounded=1;whiteSpace=wrap;html=1;" vertex="1" parent="vJd0gzTiGKXltJSO5c8B-1">
          <mxGeometry x="170" y="656" width="420" height="49" as="geometry" />
        </mxCell>
        <mxCell id="vJd0gzTiGKXltJSO5c8B-7" value="数据中台 DAAS" style="text;html=1;strokeColor=none;fillColor=none;align=center;verticalAlign=middle;whiteSpace=wrap;rounded=0;" vertex="1" parent="vJd0gzTiGKXltJSO5c8B-1">
          <mxGeometry x="150" y="555" width="90" height="20" as="geometry" />
        </mxCell>
        <mxCell id="vJd0gzTiGKXltJSO5c8B-8" value="集团版数据运营" style="rounded=1;whiteSpace=wrap;html=1;" vertex="1" parent="vJd0gzTiGKXltJSO5c8B-1">
          <mxGeometry x="160" y="340" width="120" height="50" as="geometry" />
        </mxCell>
        <mxCell id="vJd0gzTiGKXltJSO5c8B-9" value="实时运营分析" style="rounded=1;whiteSpace=wrap;html=1;" vertex="1" parent="vJd0gzTiGKXltJSO5c8B-1">
          <mxGeometry x="320" y="340" width="120" height="40" as="geometry" />
        </mxCell>
        <mxCell id="vJd0gzTiGKXltJSO5c8B-18" value="数据对比" style="rounded=1;whiteSpace=wrap;html=1;" vertex="1" parent="vJd0gzTiGKXltJSO5c8B-1">
          <mxGeometry x="450" y="350" width="120" height="30" as="geometry" />
        </mxCell>
        <mxCell id="vJd0gzTiGKXltJSO5c8B-19" value="集团版数据" style="rounded=1;whiteSpace=wrap;html=1;" vertex="1" parent="vJd0gzTiGKXltJSO5c8B-1">
          <mxGeometry x="600" y="380" width="120" height="30" as="geometry" />
        </mxCell>
        <mxCell id="vJd0gzTiGKXltJSO5c8B-20" value="数据" style="rounded=0;whiteSpace=wrap;html=1;" vertex="1" parent="vJd0gzTiGKXltJSO5c8B-1">
          <mxGeometry x="610" y="590.5" width="120" height="49" as="geometry" />
        </mxCell>
        <mxCell id="vJd0gzTiGKXltJSO5c8B-21" value="标准化" style="rounded=0;whiteSpace=wrap;html=1;" vertex="1" parent="vJd0gzTiGKXltJSO5c8B-1">
          <mxGeometry x="611" y="656" width="120" height="49" as="geometry" />
        </mxCell>
        <mxCell id="vJd0gzTiGKXltJSO5c8B-22" value="数据应用" style="text;html=1;strokeColor=none;fillColor=none;align=center;verticalAlign=middle;whiteSpace=wrap;rounded=0;" vertex="1" parent="vJd0gzTiGKXltJSO5c8B-1">
          <mxGeometry x="150" y="310" width="90" height="20" as="geometry" />
        </mxCell>
        <mxCell id="vJd0gzTiGKXltJSO5c8B-23" value="&amp;nbsp; 边缘终端&lt;br&gt;&lt;br&gt;&lt;br&gt;&lt;br&gt;&lt;br&gt;" style="html=1;whiteSpace=wrap;fillColor=#ffff99;shape=mxgraph.archimate3.application;appType=func;archiType=rounded;fontSize=14;align=left;" vertex="1" parent="vJd0gzTiGKXltJSO5c8B-1">
          <mxGeometry x="140" y="740" width="610" height="220" as="geometry" />
        </mxCell>
      </root>
    </mxGraphModel>
  </diagram>
  <diagram id="1JldCcPyKGWRazITi59Y" name="Page-5">
    <mxGraphModel dx="946" dy="534" grid="1" gridSize="10" guides="1" tooltips="1" connect="1" arrows="1" fold="1" page="1" pageScale="1" pageWidth="827" pageHeight="1169" math="0" shadow="0">
      <root>
        <mxCell id="V8XmrHc5MlVxD15gC6Ko-0" />
        <mxCell id="V8XmrHc5MlVxD15gC6Ko-1" parent="V8XmrHc5MlVxD15gC6Ko-0" />
        <mxCell id="V8XmrHc5MlVxD15gC6Ko-2" value="" style="shape=image;verticalLabelPosition=bottom;labelBackgroundColor=#ffffff;verticalAlign=top;aspect=fixed;imageAspect=0;image=data:image/png,iVBORw0KGgoAAAANSUhEUgAAAm8AAAMUCAYAAADqpMA+AAAgAElEQVR4Aey9+5tdxXnvqV/nh/kr+AtmcuLEjvH1BNnBJAQfMmRyPHEeZjzheHwIMTY2tnAjjEFYUQS+YMzF3I5kcbEcdGQbMBgsrGAuDhcZIUS3utVSS+jWFkIIoW5qnk91v93V1eu691p7r7X3t55nqdaqe31rtdZ3v+9bb6247777HJeCEBACQkAICAEhIASEQPMRWLE4xP/inNM1h8EiKroTAkJACAgBISAEhECTEBB5SySsTVoijUUICAEhIASEgBAQAosIiLyJvC2+DboTAkJACAgBISAEGo9AIfK2YgXF6lGpdtp20XpFyi0v0/h10wCFgBAQAkJACAiBIUWgEHmDuC0nONWQuaLtxuXi5zRymVeOfLsW2xjSt0HTFgJCQAgIASEgBBqPwDLyZkSmbLxIfOaIXlw/zA/vKRc+p90nlUtKi+vHZXgOr7j83HPj100DFAJCQAgIASEgBIYUgUTylkxo0iVtSQQpbCPOL5pn5dLqp6VbPeK4TPwcll28H9K3QdMWAkJACAgBISAEGo/AEvIWE5u85yRylJRm7RBnXYvkaZEoWt2kvKS+LC2pH8tLa2sxvfHrpgEKASEgBISAEBACQ4rAEvK2SF6SyVMekbL6cbn42coRd5rXaRtZ/S22OaRvg6YtBISAEBACQkAINB6BxpK3YiQrmWQaCaONuB1LS4vn6jZ+3TRAISAEhIAQEAJCYEgRSCVvMemB1CSlGVEK4yRiFOaH90lthmlJbYVpWW0llQvbpm78PNde8tswMjKSnKFUISAEhIAQEAJCQAj0CIFU8pZEbJKJzqL0y4hUXC58Du+T+rA24jiul1fXyqfF1r7l2/NcnIy+yFsyLkoVAkJACAgBISAEeodAz8lbTLqSyVM+IYzbWUq+FiVqcft5zyF5i8la/Ny7ZVJPQkAICAEhIASEgBCYQ2AJeYPYdHqF5CmPIIX54X3YRnyfVC4pjXphengf5yU9z/XrHEQtJmvxs14iISAEhIAQEAJCQAj0GoEl5G2OuCyXeoUkJyZDSXXiMvFzWCcrz8qllUlLt3rEcZm8Z+oYcYvjXi+O+hMCQkAICAEhIASEQIxAIfJWhPDEhIk64RXmh/dx22Ge3aeVSUu3esRxmbznubrJkrcYPD0LASEgBISAEBACQqDXCOSSt5jsGDFKSy9CmKyNpLJhXl5+1hisnbBMeJ+Ub2m2CFKTGhKKhYAQEAJCQAgIgaYgkEreIDpJZGeR4CyXaoV5effWtsVJ5ZPyLM3ipHphWlguvLcySWlNWRyNQwgIASEgBISAEBACMQLLyBtkJpnQZNvCGRkqE2f102le3L+1Y3Fa/tL0GCY9CwEhIASEgBAQAkKgGQgsI29LSUwyYRv8Ms1YHI1CCAgBISAEhIAQEAIxAiJvLomgxjDpWQgIASEgBISAEBACzUBA5E3krRlvokYhBISAEBACQkAIFEJA5E3krdCLokJCQAgIASEgBIRAMxAQeRN5a8abqFEIASEgBISAEBAChRAIyFuh8iokBISAEBACQkAICAEh0EcERN76CL66FgJCQAgIASEgBIRAWQRE3soipvJCQAgIASEgBISAEOgjAiJvfQRfXQsBISAEhIAQEAJCoCwCIm9lEVN5ISAEhIAQEAJCQAj0EQGRtz6Cr66FgBAQAkJACAgBIVAWAZG3soipvBAQAkJACAgBISAE+oiAyFsfwVfXQkAICAEhIASEgBAoi4DIW1nEVF4ICAEhIASEgBAQAn1EQOStj+CrayEgBISAEBACQkAIlEVA5K0sYiovBISAEBACQkAICIE+IiDy1kfw1bUQEAJCQAgIASEgBMoisIy8rVixwhW5wo62bdtWqM7KlSvDam7NmjWF6lEuDGeddVaheqOjowvVuC8yL9rOCyMjI3lFlC8EhIAQEAJCQAgIgVoQWEbeaullwBoVeRuwBdV0hIAQEAJCQAi0CAGRtwKLFZO1+LlAEyoiBISAEBACQkAICIFKEFhG3oqoFikThkFWm0LUYrIWP4dY6F4ICAEhIASEgBAQAnUisJSF1dlTC9s24hbHLZyKhiwEhIAQEAJCQAgMCAIibzkLacQtp5iyhYAQEAJCQAgIASHQEwRE3grALDVpAZBURAgIASEgBISAEOgJAiJvPYFZnQgBISAEhIAQEAJCoBoERN6qwVGtCAEhIASEgBAQAkKgJwiIvPUEZnUiBISAEBACQkAICIFqEBB5qwZHtSIEhIAQEAJCQAgIgZ4gIPLWE5jViRAQAkJACAgBISAEqkFA5K0aHNWKEBACQkAICAEhIAR6goDIW09gVidCQAgIASEgBISAEKgGAZG3anBUK0JACAgBISAEhIAQ6AkCIm89gVmdCAEhIASEgBAQAkKgGgRE3qrBUa0IASEgBISAEBACQqAnCAwkeVuxInlaaelFkC5Tt0jZImWKjEtlhIAQEAJCQAgIgeFCIJnl9AGDmMzwnHblDS9uy8qnpVt+GMdl4+ewbHyfV5Z8u+K6ehYCQkAICAEhIASEQBYCjSFvDDKP9KRNxIhQJ3FWm3Fe0fHF5eJxxe3qWQgIASEgBISAEBACRRHIJG9nnXWWW7NmTdG2ui4Xk55OG0xrJy097ietXFp6Xv2i9eJ2un6enXGOS0EICAEhIASEgBAYGARSyRukDdLRS/LWDaqMtZMr7jOPaKXlp/VN+2l14r4re56dccdf2Or2fvfv3JnpqcqaVUNCQAgIASEgBIRA/xFYRt5Wrly5hAT1g7ylEaEwPYauE4IU14mf4z7sOa9cnB8/WztVx++dOe2mn97kJtZd4Mau+bi/RN6qRlntCQEhIASEgBDoLwLLyJsNZ3R0tCeSN4hNeFn/YZxHfsL8sK20e9oO6yQ9h/0n3cf1rYz1ac/ElpYWh2U7uU8ibSJvnSCpOkJACAgBISAEmo9A38lbCFESIUpKC+vE93nlk/LDNO6zrrC/sJ6lh3XDNLsnTqoX5of3IyMj4eOS+9lTJ9yxX9+5RNJmpM1iSd6WQKYHISAEhIAQEAKtR6DR5C0mOfFzEvp5ZfLyrc2kcklpVp7Y8tNiK2v59pwVp5E3SNnETRctqEeNrMXxxPoLfTnKxtfkzZ91U3dfunAd3LzavfFv3/LX4YdvdEefuN1fEERs6Ox6a9dv3Mk9z/vr1OQOb1d35vgbWdNQnhAQAkJACAgBIVARAo0lb2kEJy3d8CA/77KyWXFSP0lpYRuWb7Hl5T1bOeKYrMXPYVkkb0ce+Z7bc90nUkkcJC/tOn1odIGEQcbefOnhBYKG7ZyRt6OP37pA6iB3BzZesUD49t32uTlSaHZ2156zQBKNGBopPPLLH/g2jz+32fdjJPCdg6/NbazQzthweXUvBISAEBACQiARgUaSN8hO3pU4mwoTY8JF00lp1mWYF94n1YvzrQ2IWkzW4mcrG8ZnThx1SMqSSFxYrif3szMLZNGkcyaxQ4IHITy0da0ng0YCkQCaFHH8+nP9/f47/tFNbbjcl4OgmvTvxM4nPeGEkM6c/ENPpqROhIAQEAJCQAg0CYFGkjcASiM4WXnUKXplLUJa32npcVtxubxn6htxi+O47azn08cmPdkZu/acBUlcVvkm5iFNhJi9PfGiQzIH8Zt+6h6H1M6kfvvv/LwneOM3nOfniWp48paLPdk7tGXNnHTvha3u5O6nHdJF2lQQAkJACAgBITAoCDSWvHUCcEyS0trIK5eWn5Ye9xOXy3u2+kbc7LnTGBJ38MERT2w6baNN9SB7p/bvnCN7z212puaduvcyN/n9zzikeUgl8XuHKhc1LmRw+pkH3InfP+683d6Jo22assYqBISAEBACQ4xAx+Rt27ZtXsqFX7gqghEciztps2jdrHKd5oXjDdsI761MUprlFVGTWtm8GFuy42+/m1dsKPJnT590p4+Me5Ur0jzUsKhvD2660mG3N772fE/wIHuocw//fJ2b3r5hjtzt3ykV7VC8JZqkEBACQqAdCCwjb7GTXoiGXfh+s1AleYvJjPWXF9tYLM4rH+ZbnTAmPw6WZnGcn/Qclg3vrWxSmuVVFb80/gd349bX3botr1fV5MC34wneoVGHXR0bNrAjhNyhkkVFy8U9aeRRhrKoZnUM2cC/HpqgEBACQqAxCCxnK40ZWvmBFCVFSeWS0mwEWXlWJoytvMVhHvdp6XG5ss/vzrznfrXjsLvqxzvdf7vlBX+JvJVFMb08GyRQz6JqRSqHdA4pHdI6XLQsSO0evtGxo5YNG2wmURACQkAICAEhUCUCA0XeqgSmTW0de+u0e/Df97sv/ujlBdJm5O2OxyfaNJX2jnV2xkvgvNRu+wbHxgl2zKKORWKHahY7RNS1kD9U2pyMoSAEhIAQEAJCoCwCIm9lEWtQ+bE3TrrbHxt3X7j1xWWkzcjb2od2u2d2T7td+0+4Q8ffcW+fnmnQDIZjKF5iN7nD75xlo4RXxd78WceuYNykHLx/lZfksbtW7k+G453QLIWAEBAC3SAg8tYNen2uu2PvcXfN/a+mEjcjcHEM2Vu18RV3w09fcxuf2uee2nnU7T3ytpuZfa/PMxqy7mdnvAQO58j4ssOvnZfUrT3f35N24uVH52zqhgwaTVcICAEhIATSERB5S8emFTkQrid/f8R9+a4diSQOgnbXE3v9xoWr73s1UbVq5A5Sd+2Du9w9T+71tnPjh0+K0PXhLUD6ho867Opwa+I3TFx/rle9oo7Fng61q4IQEAJCQAgMJwIibwOy7qhDN/92yl1621IV6tbnDy6bIRsbDr952rEj9ZEXD7kfPronVYJ32R0vue/8bNT98qXDXjq3rDEl9AaBQErHRgnv3uSG87zfOlSx2Nppc0RvlkK9CAEhIAT6jYDIW79XoOL+sWvDDs6kadtfLb7b8Z13Zx3SNnasbtg26ZDUWTsWsyni5ofHPJk7MH2q4tGruTIIsOGBkyi8hO7+VY6TJjhmzNvQPb3JOx/WpogyiKqsEBACQqAdCIi8tWOdSo9y99Rb3qatDHlL6gQnv2x4gMxhJ2ckzmLckjz07JSkckng9SHtzPE3vBQOezmOEeN0CXa9Ip3DdYnIXB8WRV0KASEgBCpGQOStYkCb1lzVu0tRt0IIsaO78t6lZA5yd9/2fQ7iqNAQBGZnvAQOFyUcDYbbEmKeORZMzoUbsk4ahhAQAkKgBAIibyXAUtHlCEDUsLULHQMjlYPYQeT2H5NqdTlq/UtB8oYEjvNfvR86yNyGy73qVZsg+rcu6lkICAEhUAYBkbcyaKlsJgK4G0GFGhM5drwirWOjhEKzEOBIMHa2omb1u1rXnu8dDLMBgjwFISAEhIAQaB4CIm/NW5OBGBFEDh9y4akP3JMmaVxzl5gdq8d/95A/9gsVK8d/8aydrM1dM41MCAiB4UNA5G341rynM0bahtSNkx5skwMx0jg2QsgxcE+Xo1RnSN6QwOFbDufBqFmxlTt9aLRUOyosBISAEBAC1SIg8lYtnmotAwFci3AGa+hQGBUrPuSkUs0AriFZuCVh1+re7/6dm/z+ZzyROzM91ZDRaRhCQAgIgeFBQORteNa6MTM1aVzoRw5Ct+W5Azp7tTGrlD2QU/t3usMP3zgnkbvz8/7UB9nIZWOmXCEgBIRAVQiIvFWFpNrpCIEX9vzBq1BNpcoJEexSxSWJQgsQmJ1xb+36jXcMjI3coa1rHcROQQgIASEgBOpDQOStPmzVcgkEdu0/4b73i7EFuzjOWcWX3LG3ROJKwNjXomxqOPrE7f6kB+zjTrz8qPzI9XVF1LkQEAKDioDI26CubEvnxS7VOx6fcJA3pHEmiTtxaqalMxrCYc/O+I0OnPDAkV3TT93jZk+dGEIgNGUhIASEQD0I5JK3kZGRenpWq0IgAwHOaEXyZiQONyOyicsArKFZOP49uHm1t42bfnqTjudq6DppWEJACLQLAZG3dq3X0I0WSdzNDy+qU9nYoN2p7XsNTh+b9HZxE+sucG++9HD7JqARCwEhIAQahMAy8hZL2uLnBo1dQxkiBLCJW7fl9QWbOI7fen50eogQGIypcp7qvts+56buvcxB6BSEgBAQAkKgPAJLyBtELSZr8XP5LlRDCFSHALtTr31w1wKJ+87PRh0qVoUWITA7412L4Ph3+pkHWjRwDVUICAEh0AwEFsibEbc4bsYwNQohsIgApzI8+fsjC0dvsalh6/MH5eh3EaJW3CF54zzVg5uu1IaGVqyYBikEhEBTEFggbwzIiFtTBqdxCIEsBI6//a7fmWo+4jit4ZXJN7OqKK9hCLx35rQ/fosTG3R+asMWR8MRAkKgsQgsIW+MUmrSxq6VBpaCwO6pt1x4WsPtj43LP1wKVk1N5sxUEbimro7GJQSEQNMQWEbemjZAjUcIFEEAVeov/uOgu+yOl7w9HK5Ftr96tEhVlWkIApybykYGNyuffg1ZEg1DCAiBhiIg8tbQhdGwOkOAExlu3Lq4K/WHj+5xcvDbGZY9rzU743Dsq00MPUdeHQoBIdAyBETeWrZgGm4xBH614/CCFA7fcHIrUgy3fpfCqS++4LCFUxACQkAICIFkBETeknFR6gAgwOH2oW84pHBvn5ZKrulLi/SNw+4VhIAQEAJCIBkBkbdkXJQ6IAhgC/fIi4f8GansSsW570vjfxiQ2Q3mNA5tXes4SktBCAgBISAEkhEQeUvGRakDhsCB6VPuhp++tuDc977t+xzETqF5CExv3+AO/3xd8wamEQkBISAEGoKAyFtDFkLDqB8B25Fqh91D5tjgoNAsBE7sfNJN3X1pswal0QgBISAEGoSAyFuDFkND6Q0C+IVDfYoalc0MO/Ye703H6qUQAmxWYNPC6SPjhcqrkBAQAkJg2BAQeRu2Fdd8PQK4D+FcVDudYfNvp6RGbdC7gc3bwftXNWhEGooQEAJCoDkIiLw1Zy00kj4ggGNfU6PiH44jtxQagMC8z7fjz21uwGA0BCEgBIRAsxAQeWvWemg0fUCA81CvuHuHl8IRo1ZV6D8CZ6an3MT6C93xF7b2fzAagRAQAkKgQQiIvDVoMTSU/iGAxM1OZkAS99ROHa3Vv9VY7Pn0sUl/5unRJ27XsVmLsOhOCAiBIUdA5G3IXwBNfxEBdqM++O/7F+zg5E5kEZt+3p05cdQfm8W5p9wrCAEhIASGHQGRt2F/AzT/ZQhwoH1oB6dTGZZB1PuE2RnHwfXsQj3x8qO97189CgEhIAQahIDIW4MWQ0NpDgJjb5xcsIO7+r5XHU5+FfqPwKn9O93+O/7RIYXjHFQFISAEhMAwIiDyNoyrrjkXQgAHvtc+uMurUS+74yX5gyuEWm8KHf/dQ14KhzsR7OIUhIAQEALDhIDI2zCttuZaGoF33p11tz827gkcqtRf7Thcug1VqAeB2dMnHRsZxq8/13EeqkhcPTirVSEgBJqHgMhb89ZEI2ogAlueO7CwkYF7heYgcOb4G+7wwze68RvOcwc3XelO7nm+OYPTSISAEBACNSCQS95GRkZq6FZNCoH2IRBuZNj4lA62b9oKIombfuYB71pk8ubP+vvZUyeaNkyNRwgIASHQNQIib11DqAaGCYEX9vzBYf/GsVo/fHSPjtRq6OIjfcMezqtUt6xxb0+82NCRalhCQAgIgfIILCNvsaQtfi7fhWoIgcFCgBMYvvijlz2BW/vQboddnEIzEcAv3PRT93hp3MRNF7mjj98q27hmLpVGJQSEQAkElpA3iFpM1uLnEm2rqBAYWARwHWJHarEjVWeiNn+pcTPibePWnu/djRz79Z3u9JHx5g9cIxQCQkAIRAgskDcjbnEcldejEBAC8wjgSgQfcKhQ5QuuRa/F7Izf1ACR2/vdv/MX936jw+xMiyaioQoBITCsCCyQNwAw4jasYGjeQqAsAkjcUJ1C4JDEyZlvWQT7Xx7pG1K4/Xd+3o2vPd8d3Lzan+LABggFISAEhEATEVhC3hig1KRNXCaNqckIYPMmAtfkFSo+tpmTf3DHX9jqXY5A5KbuvtT7kjs1ucM5SeWKA6mSQkAI1IrAMvJWa29qXAgMKAIicIO3sO+dOe1VqWxy4Egu/MhNbbjcTW/foKO5Bm+5NSMh0CoERN5atVwabJMREIFr8up0PzbUqCd3P+2OPPI9N3nLxQtOgY8/t1kbH7qHVy0IASFQAgGRtxJgqagQyENABC4PocHJxwHwiZ1P+qO5Jr//GW8vd2DjFd5+DpInB8GDs9aaiRBoGgIib01bEY2n9QiIwLV+CTuaAGTtrV2/8TZykDhs5tjNygaI6ac3OVyVoIpVEAJCQAh0i4DIW7cIqr4QSEBABC4BlCFMOn1s0u9cxRWJ2c3tu+1z3t/cmy897E4fGh1CVDRlISAEukVA5K1bBFVfCKQgEBK4q368U458U3AaquTZGS+B4wzWN/7tWwu2cxC6Q1vW+PNYOcpLbkqG6q3QZIVAaQRE3kpDpgpCoDgCEDhOYMAP3HU/eU1HaRWHbnhKzs743atI4tgMMXXvZYsq101Xehs6bOvOHH9jeDDRTIWAEMhEYIG8fenMp5yuOQwyEVOmECiJAI58V218xRO47/xsVIfZl8RvWItzLis2dJzNevD+VW7y5s/6Ha7EBzdd6Y788gfeJx0+6LQ5YljfEs17WBEQeUsgrcP6Mmje9SHAyQtfvmuHJ3B3PbG3vo7U8kAjgDr1nYOvuRO/f9xL5A4+OOJQuY5ff66X1mFX59Wv2zf4nbD+7FY5F278OwEBP/rEHW7qnn9y42s+5cau+biuAcNg/PpPuv13/n8Ov5H+KL4u30qRN5G3Ll8hVS+KwO6pt9xld7zkCdyW5w4UraZyQqAQAkjq+Cjgd44NEux4ZbcrRABXJjwf/vk672QY8sfuV06UUOgfAkhMD97/DTe+5i/dxLc/7fau/Rs3+a//1U2u/790DRoG//pf/fqyzhNrz3cHNnypq7+/npK3FStWVKaaLdpWkXJxmf79KavnQUfg+dFp94VbX/QE7qmdRwd9uppfExCYnfG7WrGbw2UJxA61qzka5uQI7kkjjzKUZSesNk7Ut4Bvj/+HG//2+W7v2k/PETZIm66hwWDi2xe48Rv+0p3c/duOXrJE8gaZKXsVsZeLSVKROlYmrhs/W7k4zitHvl1WtyMkVUkIFETgVzsOe/IGiXtpXJKPgrCpWE0IIH1DCoc0jqO/kM4hpUNat+e6T3h1LKpZyN2hrWu9upbzX5HyoZYVwSu/MEjcIG6Ta//G7fvXv9M1pBhM/svfeDvWTiTgqeTNiEyVcR6RyuorqW5SWtxGXIbn8IrL86wgBOpGYPNvpzyBQ4069sbJurtT+0KgYwRQx2KT5cndMw/4jRI4Hp66+1KvlvUE7/pzPdljpywuULDrQX3LhguI4ZnpqY77H8SKqEr3fvuv3b51f6tryDHYe8OcCrXse16KvMVEKIn4WFpIkPLurU5anNZvWnrYTlwmfg7L2n1ZEFVeCHSCwB2PT3gCd8XdO9yh4+900oTqCIFGIIAkCTUrx4IhlTv6xO1+48TUhsu9SnZi/YXe9g4V7cRNF7n9d37eS/cgeuyaZUct9SB7+LmD7A3qDlqI8Pia89y+dRfpEgb+HZj49l+5k6PPlvpbrpW8GRmyOIk4JaVZeeJO8qmTdBVpjzIKQqAXCMzMvudu3Pq6J3BX3/eqnPj2AnT10VcEUA9BzFC5YlcHYTv26zu9fzuIHGSPHbMQPHbQstmCe2zykPShzqUcql0IopE+fOTRJhftN1nSx7gn1vyV24fKVJcwWPs3bmLNX7rDv1hf6m+z0eQtj7gZycsqF+fFz9ZGGJdCUIWFQBcIhE581z60W058u8BSVQcQgdkZT8RQvYaEjxMqIEFI7SBzpsaF4EH2uMzdBlI/niGF5IckkLpcqHlpzxPCpzd5UgmxDEkh/WPjZ+QwNz6RvCEJdyCoyvatvVCXMPDvwN4b/tpN/uAfSv0BZ5I3iE6RKyQ+dp9Ekoqm0UZSWWs7KU4qT1qcbmlpMW0rCIFeIhA68b354TE58e0l+Opr4BHgZAqIFupKk86hnoWc2YX0z8gbO26N1IWkENLHJg4jh7nxugsWCKQRSeI931rpJr/9aTf57f+iSxjMvwOfdnuuPafU32ImeYtJUkyEyE9Ks/Q0ghSnZ/UTl42fw7rkxc9W3tKTyliexWkIjoyMpGUpXQh0hUDoxHfDtsmu2lJlISAEmosABG7fty/QJQyWvAO8F2VCreTNyJDFMXEiPSnNyodxUrmkNKtjeWlxXM6eidOCyFsaMkqvAoHQie8vXzpcRZNqQwgIgYYhMEfeznf7vq1LGCy+A7WRNyNBIcnhPi09Lle2bFw/qZ+kNKtneRbH6WnPpFuIyVr8bOUUC4GqEHhm9/SCD7jxw3IhUhWuakcINAUBT96wedMlDIJ3oFHkLY84GYEqEsdtUScpLU6Py+Q9U58AUYvJWvzclP8MNI7BQuC+7fs8geMw+7dPzwzW5DQbITDkCMyRt790+27QJQwW34FayFtMeEKylZWXR6TCdrLu0/pISw/bisvkPVPXiFscD/n/OZp+jxDAhch1P3nNEzg2MCgIASEwOAjwkd6/5jxdwmDJO9A48gYZgjDFpCkkWHn3aXXT0sP24jJ5z9QlGHEbnP8yNJM2IXD4zdPuiz962RM42b+1aeU0ViGQjYAnb9ef6/YP4QUySfNOS08qa2md1LG6TYy7Jm9FyE0WOQrz7N7aJLZ7y8uLs8pn5Vm7YZnwPinf0uxPT2pSQ0JxPxB4Yc8fZP/WD+DVpxCoEYE58vYXbv/17bmAIxxvFjxhufg+bsfy09ItPy3utF5ae/1Mr5S8JZEdCI6lW2ykJ47JTypj6Ul5YRtJ+ZZmcVg+6T4sF95b2aS0rBdTeUKglwjI/q2XaKsvIVA/Ap68XfdJt+ntongAACAASURBVL9lF8iUHXM3aBbpq5MxFWm3H2W6Im8hkQnvjeiEcVo+6XaF5dPurWzcXvwc1s/KC8txb2UtTssP07t54VRXCFSJgOzfqkRTbQmB/iPgydu3PuH2t+wCuW7HnNZGWjr9dRO6HW8v63dF3kICM8z33bwsqisEqkZA9m9VI6r2hED/EOAjPfWtc4bm6hTpLIxoMyu/jXkib2c+teSUhU5IaKcvm+oJgboQkP1bXciqXSHQWwQ8ebv2HDfV0qsIWuHcKB8+F7nPq5OXX6SPppUReRN5K/K3pTItRED2by1cNA1ZCEQI8JHe/812XNHQE8dNmbT5hHlxW0nPtBPWKdJuWpm2pYu8ibwl/U0obQAQkP3bACyipjD0CHjyBoFr2cXCxWNOSovL2HNe2bx8a4c4K4Tlsu7xJpGV3+u8jslbFhjKEwJCoBkIyP6tGeugUQiBThGYI28fdfuvadfFfMMx5z2HZbmPy5fND8untZWWHta1+zny1pw1EHnzr4j+EQKDi4Ds3wZ3bTWzBiAwO+POTE+5U/t3upOjz7rjL2x1009vckefuN1fR375A/fGv31ryXXw/lVu6u5Ll1z7bvucm7jpoiUX7QwCeWOVjASFcVo6ZYqEsK2s+7R+0tJpKyZr8XNWf73IE3kr8oaojBBoOQKyf2v5Amr4PUPgvTOnPRk7ued5d2Lnk56MHfv1ne7II9/zBGzq3svc/jv+0ZOsPdd9wk2sv9BNfv8znogdfHDEHdqyxpO26Wce8HUhc3ad3P20o93wOn1s0vcHAbQrnCwf6anVH27dxRwYd5FQ9/xsLHE/aekQNa6wfPwc5vXjXuStyJulMkKg5QjI/q3lC6jhV4oAJAkCdfx3D7mjj9/qDm5ePUfI1l3gxtee7+8haUjMIG1I0SBgkDnqQbhmTv4hcUyzp0/6fMqdePlRB4kzKZyPH791iRSOPmIpHGTQpHB8pCdXf8RNrf5Qqy7AsTGH95ZmcVJeErDgDe4e13lSzZqAzdz1UTe5evGaWP1Rt3f1xzzWxBNc1yy99n7379ye1R9fuGjHiFsc23ibEou8Jb0lShMCA4hAaP+2/dWjAzhDTUkIzCHAhx41pidPT93jDm1d6yBjfKzHrz/XTd78WXdg4xXu8M/XeRUnpOydg685iFdSMGnc2xMvzknjIH1P3O6lbAc3Xen23/n5RUncTRc5VKC0DzEz4jb91D0LErgFSVyOFI7x8JHef/XZrbvAMWvc+1Z/yE1e/WF/7b36w27v1R9xe1d/xEG6UCuPX/Mxt2c118fdnmvmCBZp40bEVn/Mryt1lly049ujzQ/79bJ+LKZvLki8v7/6Q0vGasQta/z9zhN5S/pLVZoQGFAEntp51J9/yiH2J07NDOgsNa1hQQByA0k7/txmT8QgUZAzpFZIs1BhovJ886WH3anJHe7MifQfLZ7wTe7w0jikbZAySJ5vb90F/n5BGvfLH7jp7Rs8GfOSuCPjqZK4bteCj/S+kbNbcU2OnO0mr/6QQz0MGQNHyBiEa46MLRIxiJlPh4xd/dE58gbxGvmwl67RzuTV2fMG2yxsusmHwGW13e88kbdu/7JUXwi0DIF1W173BO72x8ZbNnINd5gRQEqChAwyhmQG1eL4Ded5idrhh2/0RArpGVKyOEDaqH/66IQ7uXv7nNTsf65xUxsud5M3/70bv/6TXl06+YN/cFP3/JM78OOvuDd+stodfuQmX5b2400HSc8QvlgFmvQ8ecvFC2pRU48mxbZhod9EIewfQoUEC5IFQRtf/VG3x18f91JCpI5eOjYvASuiama9wj7i9ct6DuuF93GblmfpFlt622KRt6y3QnlCYAARODB9yl1624uewL00nmy3M4DT1pRagsC70/vciVe3uaO/unVO+vUDpF+fnNsYALm69588eTv4wFWeUIU7N0NStOe6T7qxb/65G1/zKcf9nmvPcWPXnuOfx9f9tdv73b/1RAuidvCn3/RtsTPU1JzEkCdTcRaJjaggjcu6IJmQybxr9tQJT4gmv/FB17vrbLd35Gw3MfIhNzHyYTexQNA+5scyJzH7qE/3+SMf8uUnv3F2ZWPkVS0y37RyaenWZl6+lWtyLPLGKioIgSFDYOvzBz15W7XxFffOu7NDNntNt04EjJB48jLvOgO1JmTIdmyahMq7x1h/oZtYe74nBmPXrvSEa8/1fzFH1m7+e3dg4xy5YmOBJ1TBLk7bvXn8hf/pjm27y73x02+6ye//vZfIoUKlP/rGVi1tg0GdWFTRNh/pWkhEQNDGPUEzcoZ92UcdaRC3vZ6cGUHrJYlUX1nrLvJWxV+X2hACLUOA3afX3P+qJ3C4EVEQAssQmPdfhpQIIobdmO2cZAMAOzRRCWIXhsoPqRZuM8zejDxUiwuuM+YN9rEVO/SL9V5lObHu074ObUGy6CsvQA5P/P5xT8y8jdsN5zkkboyJ3aNF2sjro0n5fKQnrvpAd9fIB93EyNlufOTDnpiNrf64G8Pm7OqP+jSf940PuvGr/qy7frodp+oXxl/krUl/pRqLEOghAmNvnHRfuPVFf3GvMBwInDn+hjfyf2vXb7xKEGmWJ2P3r1rYNblgpG/+y+5ftUjC5lWJOKRlswBkKsnODDTZUADxw04N+zK/0/OWix02ZOwEZSxZAWkZ42SM7N7EjQc7RvGnhkoTiVpa31nttinPk7dVH3ATRa6r/syNf+NsN/6ND7k9V3/EjV39MQdR8zZpIx/26eNXne0mIGlF2lOZxuIk8tamv2KNVQhUjMDGp/Z56du1D+5ySOMU2osA9lGnj4wvePn3pGzLvFE+BvL4MENKZYRs82ovvTIXFpCs04dGu1IvMgbsviBnOLL1GwruvtSTL1Scaa44DHXyrb7fkLD2fE/aIH+QONoftsBHenzVB5ZfSMq+cbbbgzQNojYvTeN+/BsQtbPdHshcUl2ltR6XrsnbihUrXJEr/IPbtm1boTorV64Mq7k1a9YUqke5MJx11lmF6o2Oji5U477IvGg7L7DlWEEINBEB7N2uvPcVT+Cwg1NoLgJIuCBYGM5DzFBJ4rrCk5x59xioETHghzyhnkS6hXSKum62HtcwSN8gV6bCpH+kYqTn9YnUjDlhz2ZkD3s46kNEFdzcJoFVH3B7rvqg24NEbfVHF6RpYxC3q852e1b9mdtDma+/X9eQYNA1edMfVz4CIm/5GKlE/xBgx+l/u+UFvwOVnagK/UHAfJZhWwYZwlbMHMtyDBMkbcGxLMTs94/P+S7LUT1WPRsvXXv5UU8ekeZh88YuTUhYHlljLNikIe3zalRcfcxL5vDDVqR+1fNpYnsQV+z3IOh8pLFPmyNqH5ojal97v9vTyfX1D8wTvQ/OkT7IIARw5MNu7OqPeAnenLoVSR4q17lrz1Uf6qy/TsaoOoWwFnmr4S83Jmvxcw1dqkkh0BUCP3x0jydw+IBTqBcB7LggOhj/IyGDxHiV5trzPZHB/gxyg9Qsz7FsvSNdbB11qidcd1/qVaFI1yAXeTZrtMCRRmxGwE7Nq21vuXiO7BVQoy6OYIDvZmf8OiMpReqIXR+EmPcAIu/J29f+1I0VvZA8rfozN4ZEbkGlOmf75skYKlbIGsSNMld90I2t+sDChQRv7OvvX7yK9qtyxdeoCqyu+XipP4oVcekiqkXKhGGQ1aYQtZisxc8hFroXAk1A4Pjb7zpOXUACxykMCtUgAHGxnZFI0SAvfjfmhss9cYPUQNCa5sbC2579/nEv/bOD13G7wSaFIhsEUNVCTM3xLEQEMtq0eVazyuVaQXKJ/R+qYqSOvBOojJFeYu8X2/V58nbln7qxpOvrH3Bj8+rUsZF5u7erP+b2cI+0DBJHma+9P7l+UptKawdW3ZK3cq/tYJc24hbHgz1rzW5QEAiPzoLMKZRDAGLCxxeSY0QNCQpuMGxnZJ7Bfrkeqy0NaUCaZmNHRQu59PZyBbpaIGzrL/SuO1D9Ql6HPSCdhLhyjiouTSBrYIskEwlsHhmGvI1+9U/c6Ff/1I1+DbJ2tldx+g0KSNGu+pAncOSNXvmn82Upr2uQMZDatOL/WYy4VdysmhMCPUHAjs5CjaqQjYC3/dr5pFdvYY+G6tO7sHjmAb9JoMlEzWbGGFHNeXXdDef58UNA8wiF1RdhMySCeHbGrz+SNe+EeP69KOrHzlqyzRxe8ma7Sa/+iBu96mw3+nWI2p+417+qa1gxEHmzv5QKY6lJKwRTTfUUAR2dlQ03UhSkaKF0Ctu1Nu2MhBRA0MwGDeIGgStKNkXYlr8jSF09Cd68ekENiuTR77hdXjw1ZQmZvv5cr071krevfWCOqH3lfe51XcLgK+/ztpCpL1JCxlLjtYQCShICQqDdCNjRWbgQ0dFZc2uJesvvjlx7vrcDw2apqHSqEW/D7Iy3s0KFi9oO8omKNLavShurCNtyZCBmuGzxLk7Wnu/V4xC4snZ9lA/V1TGZhrzt/sr7dAmDJe+AJG/L/yaVIgSGGoHw6KwH/33/UGPBLkuMyvHqzwe2dYRt9FlPNtnBiB825lCUXGDrhhG9dwdyy8Xefckw27B5Nbm5SPmXv3b7bvkHb8f25gtb3cmxZ739GptT7AB7JG+Qu/gC04MPXOX23f7/uol//bQb+9ZKt/e7/6fbf/el/gcC71t4jX3zz90o6tKrP5Z4vf71P3OvXfHHuoYKg/e5sWv/vNT/zZK8lYJLhYVAOxHguCzz/Xb4zdPtnESXo0bahpSKj3Gb/I+h2oUwQLogbKh5i7j0AC6vUn350QUpI0b2ENhBCswRYsq8WGM7JgycwI1dsvhXY1OBJ1jrLnB7rvukG/vmf/aqqvE1n3ITN/6N30kLvka0qMNlZ7mGpI22//C7f3OHfvYvbvIH/+DGr/+k23/XF9zhR77j3nr9t34cjCW8kOwxzslb/2+/USGUvr12xfvca1/+Y11DisHur/yJ/0FZ5u9S5K0MWiorBFqMwO2PjXsCd9cTe1s8i86Hzk5RJCltCahy8b8G4cQ1RxnShc0eu2SR0EFG2B3ZFikjEjFIDqpdI2JIvZgPZAoVMapN3Jbg7JiYDSaedG243JeBpEK2pn9z7/xu4X+eO0f1pos8lm/t/veOCTwkjPYNW34MlMH2yGO3uNe//kH32pf/k65eY/CV97nXvvInbveV73e7v/ZnDiknazF61YcWr5GPuNH5C3cto1d/1F9eIlrTeBnL4a1rS/3XJPJWCi4VFgLtReDQ8XcWDq7nfpgCRAD/Zk0PqEBx7opaF7LJjsaiGw8gEBAJpEdI6VDnNWnjBfNATYs0Clsy5gkhw24P4sWcOegeMsauTkgaZI0yEDHmxsYM6kPusuz7Qps+iJ6XVnKkWIfBr8vTm7xrEN4jxsMYOgmMH8nfri/9J7frS3+kqzIM/pN7DXL21T91u6/8gNsNMWMn7zwBm3PF8lH//Pqqsz1x8yQOInfl+309iN3CFaht614n3gd+qJQJIm9l0FJZIdByBJC6oT4dJtch/KcImYEwNDXg2Nc2HxDzXDRwPJWXBLFxYcPlc9LFms49zRoTZMaIGZIypIWMZ+Gs1vUXelKG+tJUkdjssT7M4cyJ7pxJ0wbuPLwkriKbPtqEQEIqWRecGlcRpv7HP7vdqz7oXr38j3R1gAFk6rUrkKB9wEHEPEFb/TH3+shH3O5VZ3up2gIhu+KPPVFuKtavfe0D/gdX2fdK5K0sYiovBFqMAM56L73tRU/g9h55u8UzyR86akckOpCHqj66+b0WL4EkCskaEjakTkiiim4+8FK25zbP+R0zSVDNZ6IyNkglJNgb6W9ePSflu+kiT26YB2QN0obDWsohAStqn1ccucWSSPIgiuDHBXmDcHUb/Ltz72We9NN+lpSvk77Acvz6T/lNCU0lFU0Z1y5UlV/9kzk1J+pN1JgQtW98yEvXIGm7rvjjVpJgxs0Pg07+RkTeOvnLUx0h0GIE7tu+z5O37/xssAzXWRLIhZe+zEt5ULU1bXMChAOCgy0bNm0QhaIBEgExQpKICwqvaqlQykb72HRhI4dqEN9xqDAZKxItyBlSPtSQqDAhSlUTmzws+NBBdDndABUmGxIgid0GT4h/95An015lXdCWjfn7zRK7n/a7f8ENaZ23z9tw+Zwt3t2XLhBdcOQ6+ssfuPHr/8Lt/voH3c4v/pHb+cX/XRcYfAmy9qceF1N5ov58DZL2lT/x+YOA1a4rP+CJ21s7f93Rqyvy1hFsqiQE2ovAiVMzC+ee7tp/or0Tcc5LqiAafCj9mZ23XOzJWxnj/l4BANHxGxDWnu/HWObXNipFSApG8qjvupUuIfWDpEFusSmDlEEIvRH+vZfNSc+2b/AEDSzLGOTXgae3OXvmAU+AGCNq16qkqZAvpGvMHzu7JNsjyqAShrR6dfC9ly2qg2+6yI8LoguWntj+/nFfnjpcEHbUylyhdJV3gF2qY9jAffX97tUv/7Encq/88//mhuWCuL56xfvmJGvf+LAbu/qjXvX52lff73Z+6Y8GBgc/zy+/z68zG22wTS3zf0D8dyXyFiOiZyEwBAhsee6Al75xfFabAkQCdRwfUC95saOKfvdQxwbkdc/f27NtutKTAyRGZSRVbDjwNlc3nOfJGySgbKAOu2y9qnPTlXMbAzg8/c7Pz0nRnnnAE4yQVJTto47y4LTE2e3m1Z5MViVJpX2kZDEhBnPwQoKLdJMfBRA7bPUgZ+Sxpt18eGO8IIyHf7HeuxHhw47DVl2DhQHripuYQz9fl/gDIX4n8p4bR95WrFgcUnifN5Eq89P6TUsP+y5SJixf933aeNLS6x6P2m8GAm+fnnFX3L3DE7iXxv/QjEFFozCihsQJooHqDsKG1AVbsSbtpIyG7h+RuGBzx4cfaUwZ6ZURPubsdzYWNOYPMUOK5DG7+bNeWscYUNF2uzEgaa5VpiFVXFArb7qycjcnrANYeNL24Ih7a9c2/wxRI413DOkmRBu8mkZqq8S6Z21xIkjkYBr1P++5QmcILDKlzupXXismFfFzWoeUK3uFbYX9FLkP64b3YV3S88YU1rX7Mm1YnbQ4bsvKpaVbvuLBR+CXLx325O3aB3f1b7KzM95eCGkG/5mjeuLjiRGvETXOGkXFV4b89G9CzkuHcE+BAX1ZmzskMCHhy3ITQh7kAolaTG7BDDuwrPr9xCjum7VFour9t9kGjIKENW4r9Xl2xq/HxL+c7/bdcrHH2X4Q8AMBG74yUtHUfpThEWBNwZQfW5Bi3lFIc5USy2GGulHkLY/ohPnxopUlI0nlLS2OrS9Lt+ekOC4TP4d1Os0L24jvabPTK25Lz4ONwLsz7znOO8V1yDO7p+ubLATtyLgnGkjMTH3nXUjMS9MgbZA3/rNHelSVaqy+SUUtz854dRqE04zdC89hnlT4ut//TCrhQ2IGPhANT3DZ8LDpSo8bEoy2kNsQOWzAUEXyccfuDhJfGLewoYx7cOHkg/E157o931rpJm76P7xkT2QtA7QOs4ywIbmEGCP95W9ehK1DQDOqLSNvGzduXPbxX7NmTUYT1WQZ4YhbyyI4Ydmsckl5SWnWXloe6fFldSyO68bPVo6407ywjbz7tD7S0vPaU/5gIbD91aOevF31452OM1A7CpCzeeer2Ch5WyFzI7H+wgV1J0QD4sGvbyRMfLgHISAxQsoGoYIQlAmokiB7SJyS6kLKwJMyqF89yX16U9cbFsqMsfKyEN2dT3qyBmmDvHViy5c1LiMRU//ji46zRCe+/ZfuyCPfbbzKOGtOTc7DRGAJYStx5m6T59XksS0hb0bcQrK2bds2TzIuueSS2uZhRIK4yJU0EGujaF5YPq9P2gzLpz3H7Vi5OD18Thpvt2lh+2Xuu+1X9duHAIQN4ob0DSKXFPjVDInwqs3tGzwBY9ckLiQgFAt2QgE54+PcDzcSSeOvKw1VLqQLHJJ2KGb1iyQSSROkLyRtkA7aQtUEthBCyNsg2AYhOfS7Otdf6HFDpcx8qwqoiCHS3nbt23/pxtlo8C9/7U7seKyqLtROgIDfAYzLlu9/xv+4QFUv+8AAoJpvl5E3yFocIG6QgNHR6v1C0a6F8D4rzfLC2OoS513Us/JpbcRl4vLxs7UTp+c9W720mPp5V1w37jPOT3rupE5SO92k8Z97W2x0uplnE+pCyCBXSH62PfaYJ29X3P6M2/9v13tbIJP0eJsgzo2cP6oI43k+utSDgFT58W0CLkXGwHvqXZOsu2BOxVmk0nwZPm4Y4/tNDM88sKAiRHLhd5WiPrz3MseHcFAkk14qwxmt15/r5w7prTLwLiKR5F098OOvuDce+IabWPfXXp1ctQq2ynG3tS2/nvN4884Owg+LNq7FInPKGD2SOD7udZC3sNs8kmL5YR27zyIfSXlxWvicdB+m0Wf8nDaOuFz8bPWsTfLtCvPsPqu+tRGWtbbS4riO1e1lzMcQdRpbqQflg9VL/CC84IaBOgbskCt2yiGx4T9XJBEYwSPlQUrGR4570vjo4XT16ru2ewL3s8ee8f8Z+3Wo0PlrL/Goqy+IqjnIBdsyPzTCutj8YRiPqhAybMc5oU4eFMkF84OAhlKZKjcD8OPDrwWH0t/8Wd/Xid//yr/XvNOysar2r2CJlO37n/GmD1WuZ7WjHY7WCpG3lStXppKVKmFKIiZJaUl9ppUz0hLXCcuH95RLew7Tw/uwbUsPY+6zrrC+3Vt9eyZOSgvz4/u88nn51t7IyIjdVhrzx8/HK/RrNKzkjf8cmbuXhu153qsoPQl76h6PEWo0iBiEi8t7aV9/oRu79pyFjz/plIGMeQnZ7x7ybhb4pcwmgKwP2o69x+ekb3fvcLgRUViKAKpMCK8nBiVt9XAizHpZXUgb6wSR5kcLaz4owX6IMTfmy7tXWZid8Spl/K3xAwQJJlI88EQFDYmr4qSFysY7AA2BJ+sI3pWv5wDg088p5JI3s4Or0+bNAIBMFL2sjsVJRMTSLLayxElpWelhXlpdKxPmh/eWT5wX8urF+Unt5ZXJy7c2qyZvSCwgF/yHEDuibAt5M7LFeFEb8JHiwuYG0sUOK+bIZcSLjw4Ey7tDmD8ih/mjQjPpC/lIyvi4Y8jtSdhzmxdUlZ6IzXtrt/WpKsZhL7ZvOPBVmEPA26bhTf+Wi0sTEd4L1hoXCdwvEJsbzvM7bgdJcrFASOdJFc9VBXBDWsnfCXjy9+WlnrMzc/+PrD3fS4KkIq0Kcecl+P5HIj4KS5y5W90I1FIeApnkDTUpH/iiH/m8zvLy437i56z6cdnwOby3NsI07tMuK09sdSyO86yNOD3rOcwL78M+wvu0MmG63dt4smIrG8YxWYufw7Jl7r3q6OlN/j/hmLTZM7/0IERZl0mnjDBlxRiDezIFoYpIlSdX86pFyJJd2BzxHxeXN8qfJ1pGNr3U66aLFlSPvuyGyxfqm+TLE6/5flFnMk4kBX5uNR8iXmZdrCxHZUHevvijlx1uRIY5QKxYR7zrs4O2DDFAwomUwm9GwPWFm/P9ZpI2yMigBEip3yAwT0irnBvSYi+htNMlcCEzH/g/AELND6IsibKVV1wAgcDdDe8u/18Oo01rAaQaUSSVvPWKuGURi7y8EEHKWgjvSYufi6YVrWf9JrVrbRAnXWHd8D6vXthWWK/be4haTNbi50764D9Y7F+MpKXF/iiaebJkJMliiJSRqrSY7epGwsI4JFSQKna9LSF180b4IRFE6mIksszHuxN8mlLnup+85gkcDnyHNaAi5Z0z27QyOED0eIeRVtg7gy0baRCdQQn8nfA36DdePL2pUue2tO0JIWfAPnH7EjtAyAT2hvSLOlqhewTAlPcWwrbg7kb2rt0DW3MLi4wn6KhXxC3ocsltSFzIsOclhaIHK2NxmF0krUiZImOJ27Fni/PGZflh+fDe8i1OyyO96GVtGXGLY8vvNjYbN5NgJRE4yJJC/xB4fnTak7eu/L71b/hd9YwqDhU3PzLK2qHx3toPivAdhohABKuUSHU1yS4rG2mrXDIzL/XhBxptQ3hjqQ/kl7XBTc2gbOzocjm6qs7/x/6HxboL/LvLrl2F9iCwjLyZX7ezzjqrL7MIyUjafdLAwrKWb2kWWzpxnMZzmBbeWz1Ls9jSwzjOs2eLs8oWzQvLpd0n9ZdUNi5nxC2pbFVpfCTtP42YwIUfvqr6UzvFEQj9vkHkhiUYycLOMCYNmRjMzvidjl4CheuPKGDv5k8NiNLb9hiTNpMqdj0PTpcIpT4JJyywHqwL0stBwLJrzLpsIPwRjYSzatctXQ5P1QsisIS8ldmcYCSPnahVBEhETCSSnuM067vK9Ly20vIZS5iXdl90zGF9q1M0Llo3qVwVatIi4+Q/ZUgcv7SNxIm8FUGu3jJ25ikq1EEPvIPs+EQ6BkEpE1CrY0Dv7a4SJMa0zW5g4rYGI22Q07K2f3lzxh7VuxJhM0iK1Adiwf8PmEBAOhQ6R4D3EHMRbC/Bk/dXob0ILCFv5oyXD3rSFRK1qsib9ZMEYRKxoFxSHUsrE8d9Wl3rI8wnLwxpz2F6fM9zfIVtch/Wsee4TtJzUjtJ5ZLS4ro9f54/25H/pEXeeo7+sg7feXfWb1pg8wKbGAY1mBrOE4PTJ4tPE2nbU/d4uyvsJtMCm1SwIWpjYONQaNNWJQEFd9rm753d2WkBu0Fv21byyLG09oY2fV66CZZI2vzZwUMLxuBMfCkjadi8IBpFQ5mytBmWN0IT92VlLE7Lt/SwXHgf95dU3tKqiuP+09otWi6tfqXpGMnKULZSSDttbPNvp7zt280Pj3XaRHPrzbuY4GNW9lirorscsXGDnLTNqB4XH+yU9ZsunnmgUqmhb/v+VQubHNL+1sEOv22onLWTtLs/I6SbvIeQZfnA6w7LptUuzo6aNnKNRwgIgdoQX+r80wAAIABJREFUOP72u+7S2170BO7A9Kna+ul1w0gdkIaVNnoPCF8eIaMPPpioY9sSUEmaLzVUa1VK2iBj7PZGXcfuUe+jLQUY1KcQR8qlkbuUqkoOEEDdjUp/YfdokKfbwUBA5G0w1lGzEAKVI3DXE3s9ebvnyb2Vt92PBjF2Z6ezt90qMQDIh9m2Ze1yhJRAOiApOGluRUCl9txmT5g4sYC5VhZQL8/7dYTIZrY9OzNHHtdfKAlRFwuAZBgbTH48eJW+NBldoNnsqiJvzV4fjU4I9A2BvUfe9uQNCdyJUy0+Mgup2bxvsLK+1pBgoF7NkgQhpTKSgsqxytMF6lx8b5N382f9x75q43VUdBxXhY1Vnh0r+bgIoaw2JXS24hBjbDd5V3kXq5ScdjYi1aobAZG3uhFW+0KgxQh852ejnsA98uKhVs4CMuDtp+74x2zJT8Ls+AgiRUuzi8MeCxUjaj5O5SjrGy6hy54kQZYgSpCrsjts8wYIicBRNpIfyGFeoAzSUA6xV+gAgUC6yQ8Ukd8OMGxpFZG3li6chi0EeoGAOe29+r5Xe9FdpX0gAcMVBerAMvZTqD8hIJCbWIqGRAObNwghpMMfjt6SkxMYuyeb89KZMpjkLkxAIorazBnxrZpA5o51QAogRfanzmy4fNl7OiBT1DQyEBB5ywBHWUJg2BHAae8Vd+/w0rc2uQ3BPxgSsSxXHklr6wkf6r7NqxcM67Fzw6UFKlEIG8QNAtcm1ZTtOuQEiSy7vSRM8tLKqEhpy5Pj+1d54qHdpHnoLs9HusaPBt7vvM0zy2srZVAQEHkblJXUPIRATQhsee6AJ2+3P9YOp55+x+K6Cwqp7ULIUI+iJkVdigoUyRDuKiBsEDeIYNXEJ+y/jnvIKGQTCU1Ze7+88UDC2EXqHRwXUJHSnpFj7LPaRH7zsOhVPu8gdm1sAAF/heFFQORteNdeMxcChRA49tZp94VbX/QXLkSaHNhRikSi1JE/szPu8Na1bnzNp9z++cPWUZniOsOr9Nq4Yw815vYNc2QUe7KK5+A3ctx0kSdvRUmEt2+DHG/f0ORXqJFjw/0MPyTY9Swnu41cop4PSuSt55CrQyHQPgS+94sxL337xX8cbOzgjbjl7pycnfFSKE5JOLDxK27sW+e48ev/wh36nzf4szMzXVo0dvaLA7Nju3DMmrfTc7FWsTukZQvSthLHiZmtXdoxWMV6H75SEGPzv1fWxc3woTVcM24seevE838ndbKWu8r2yrZVtnzSPOI24uekOmFa2fJh3aL3nfbRab2i41K5pQjs2Hvck7dVG19ZmtGQp1TiNjvjVaB8+CAdqA9RgyLBOPzId9zkzX/vpW5VS6b6Akssbat4EKhdbQNIUWkbuKJyxlls1USy4uk1rjlsCVFJo2Jum7q+cWAO4IAGmrzxgc+7sta0LEFI6svaT2orKS2rvOUVjeP242drp2g65dIua6tsnNa3tZOWn5Zu9RRXjwDEjfNOIXJNCkbcTh3Y5dWl2AVhE2T2ahA2iBsEzrvzmJ3xbkMgIkg1BiHULW078sj3PJFIc5uShCEED+mf998m+6wkiBLTkG52gndiY0ocWAQGmryFq2Yfe4vDvKT7ouXCunGd8Dm8tzpJaUXyrExeHLcfPnNvV1o7Yfm0Mt2m5/WRlp+W3u14VD8dAVSmkLcfPronvVAPcththxSIkwEO/Pirbs91n/R2bmw2gCxA1PAbht1bklG8N5r//mf8xoQeDLf2LsxBcB2+0sAQkov0p4wPMXaRUo+1GAipZu2rONcBPy7ADWllGbx7NDx10yAElpG3jRs3LnzU+UByrVy5stYhWz9l4nBAafXiMjxTNi+klUlLt/YsP46T+rUyVjeOyS96xXXtOe4jbM/KZMVx/ayycV7YV3ifVC5OC5/TxpCUnpQWtqX77hCwjQucuPDOu7PdNZZTG9KFYTYuLjBwxzUCjnDZaWck7Y2fXO32XP8XbvqZBwurlZBQsaEB1x9tD9jmLTggnp6qfDreSfEN53k7wDKNQ0C8p39tTCgOW3h27u8fL15PJYcWgSVMZtu2bZ4wrFmzZgkgfBTPOuusJWl1PnTyEc6rY/kWp42/m3yrG8f0ZWnxfafjyKpHX/GV16+NL65nz2n9lUnP68PywzaT0pLmklYubEv33SNw49bXvfTtqZ3dn4GJZIEPvSdoT2/yUhrICHY+2KWh7kQCged4yBbSNpNGQFwoV8bPlSduOKgdAG/+qC8hSGBTtWQLjP0JDLdcXNr5q+0oRZWtUAwB3kvedc4kbftmmWIzVqkqEFhG3iBwcYDM8XFMyovLdvscfoTD+7x2razFlOc+7wrbDeuG6fF9WjlLj2MbSxjHbYbPVj9M6+Q+bid+DttMygvTuM+7wvaS7sP2LD8pzfKI0/LD9PA+rNuP+0H3Fg9pQ3UKicsLqM4wuoZ4sbPTS882XO5PLhi//lxPvrBLwyFuSNByjbNnZ7w9mz9vNG8Q8/me7K2/sPWq0oXdnusvrPxoK6Dyzo1vusivVZLKOQtubAohlKy5QgEE5jeYgFlZZ9IFWleRAUdgCXlLm6uRt9HR0bQilaTHH+H4Oa2TsFzefVY+eWWueDzWdhxTztLiOknPZcom1be0pHZIS7usHrGVCdPC+6S2w3xrw9LSyqelh/VsLBaHbefVt3bqjpEg8ct57JqP191VX9tHXXrpbS+4L9z6gtu/42n/0YFEQcyYPxIE1JKQM2x3kKSRh6sISBzktttdh7QH4SsaIG6MBTVgmwMSGjvs3SSQVc5nQU368qOlm4V8c54pY1TIR4C/Aewz63Dnkt+7SgwCArnkLU2VWvXkkz7CSWlJ/dpHPSm28taWxaSH90nPVjcpjuuG9S0vjLlPu+L208olpcd1w2fKEywO8/Luw76SyhZt08pZHI8nTC/TD/Xy6ia1NzIykpTccRrG76j2IG12ddxYnypCBPiYQKxQxyEFgGyx4w1DdWzNPCm76SK357pPuLXf/7GXvv3knrt8GWzSjJiBR2E3Eh3MFzUpbieKSoWQ4g0CcfOnP9R0gHs3alKW0O/sveMfpfIr+D5jJuBtAgdAfV9wyipWAwKp5I1NCp1+IDsZp/VVJM5qP/ygJ90npWW1VybP2o5j2khKK9N2UllrMynP+gzLcJ92hW1YnbTY2g7jsH58b+2E6ZZmcZgX3qflp6WHdZPuqyJvSHMgNmPXnrNA2oy8FSUWSePrNA3CBAHDyB8SxgcCEoY0BckYu/4YL9Ixfu1DaLAZY/zEkDNIGmUgbZA36tOOSctM2vPCnj948nbdT17rdLgd1YMY8tErLN2ZV68ynzYH7+C2JjWp31zQoZoUWzvOSkX1XSdhb/PaLRk7J3k8fKP/ewN3BSHQDQKp5C1slA9lLzcsWN+dfKDDOnafF1t/xJTNu8Ly4X1aP9ZuGIf1Or23/pLq2xzCvLTycbo9p8W0aXnxfdif3Ydl47SkPCtDnJaflh7W5T4ma/FzXD7vGUkO/wEjgTKyFsdIhyA8S67RZz0ZghAlXXygIVnhhXoQMsUFsTI1C2TLX+sv9GNg9yXPXk1596WeoFEHwkZ7ELiQiEHwIHqdksx3Z95zl93xkidwh46/kwdZJfmMFYlbGS/zSEQxvK/aoL+SCRVoBEJ08P5Vcw5uj79RoEa5IhBz3h2kpqUDznfvX+UvEbd89Ph74weS93l36kR+BZUQAjkIFCJvpjrFjUgvQ9EPdDgm6oQXedaOxZYWPlsbSWmWZ/XC5/De6sZxXM/yw7qd3Ce1Q5qlW2xtx89J6WGZtHvqZeVZu2G5sHxSfpgW3ndajzYgajFZi5/DvvLu+Q8YkhSTtfgZ7/1GtIiRdhkJC2PIWUjW7N6kXp5wBUQQY3LGwGVSsLwx15V/z5N7PXnj0PpeBDY8YD9XNGCDxTq0lViwxpBVbPvqmIOX5q27oLPD6gPi1lZiXPQ9qqIcO3C9mlSuU6qAU23MI1CKvMUuRKpAkY9zp5f1H9eP0+05jpOIQVJaWC8vn7JJZcK08D5um7y8y+qktZOWn9Wu1QnjsP3wnjJ5z9ZOWC68T8q3tDBOqkN+XroRtzgO2+7kHgkQkiz+M45Jmz3z4R308Mrkm568XfXjnbVPlV2ruA4pqi6F9EKy2+p2we/4ZGdsDR97L83bvLpzaZ6IW/H3fXZm7lzS9RdqB25x1FSyIAJLyNsll1ySWM0c9zZZ8mYfc4uZSHifNLGk/KS0sG7R/Lhc3nPYR9H7uM24XpwfP1v5vPSk/DgtfqbtOC1+TipjY7I4rMO9PVts5SwO0424WV6l8eyMV0Wyw85Im8XDQN5mZt9zV947d1zW/mOnKoU2bgzpU9FjrFAJl7KLizvr8zNuNlBl1uEnDTLrVXf3r+pImgfxM9cukrhlvyj84AArzB1yXd9kN6VcIZCIwDLyxscv9OdmKtP4lIW09MReOkwMP8RFmwjrhPdJ9ZPyk9LCumXyw7J2bzFthvdhH0Xv8+rH+fGz9VM2vcjY09q0Pi3OK0e+XVYnq/+4vW7UpGF/WffYDqHiGibyBh4btk166dvW5w9mwdNVnj+ce/2FhcgG5AJXGmUc93Y1uIorQ9iQMNbhJ81L83Dq+8TtHY3aiBv2ngrZCJwcfda7y/FYz85kF1auEOgQgSXkjTaQvtnH0uIkdWmbyZt94C0OsbM5Z8Vh+fA+bi98tvbC8tyHZeK8pGcrb3GZMjaGpDirnTDP+rU4zCtzb/UtTqublU9e0pXWVt3pbFDAxm0YJG9gaarTOnedgidq0CIBe0J2P7YxcOoD/vGKqobLzBEyizSyY1I7O7OwE7lMv8NYFsIG1hA4BSFQJwLLyFudnZVtO+vDndZWWCe8j8uTt3v3jNu27d2FLO5XrHj/kuei+bRH2bi8Pefl02lW/TDf5pVVPqk/5mbjKdJe2fK0DaZFg82jaHmVaxYCqE6/+KOXvfSNc0+rDpBh1NJFVHTsmETqhoSobQEbSnYKo2qrOtA2GCJ56yiYjVuLd+12NO+SlXjv2N2MWrqOdSw5HBUfAgQaTd7qxh+y8b/+Lyfd/fef9hf3eu4Oj5Ac1r1+ar//CNzx+IQnb7/acbjywRSVumFThJ0YZ5+2LRhxq8MuChUn6vxuNm7Qhvy4Zb9V4MvOZlyntPHHQ/bslNtUBIaavLEoEDeRtupIa1NfdI2rHgTMYW+Rs07LjAAixo7RIlI3Ppr4tGtbMOLWDblKnDPSsgdHvAq/GzKBChCJYDdtJI5vgBK9k+P1F/qzeQdoWppKCxAYevLGGiEtCiVGeu4Ojxa89xpiRQjMnXX6ovvCrS+6E6eKq8zzukfig6+2vMCxUZC8thGMuogbOLDDEUJbhPim4Wvq1sqJZVqHLUzvyslxC+erITcLAZG3Zq2HRiMEWofAzQ+PedXp068dq2zsELK8I4RwVIyRPwSuTaEu4mbqu253hLLrta7NE21ap6yx4jQajOrYGZzVr/KEgCEg8mZIKBYCQqAjBLa/etSTN0hcFQHS5jcq5DSGWg8fcG0Kx5/bPLc54cTRSofNua+oOLt17MsuSdyV5BHnSgffpsZmZ/xpKWyOGZZd5W1anmEaq8jbMK225ioEakAAdel/u+UFf94pO1C7DRzdlHeYvJe6cUj9scluu+tZfe//izEfGa+0T7O76uiM0mAk5iBY0qQAlOCWTSVs3uC4u7ap6YNp6HZAEBB5G5CF1DSEQD8RuPq+Vz2B27W/+0O3Obw7zycZqsFu1YO9xAvCxo7YqokR7Xm/Yruf7mo6jA81YB0nO3Q1sIZUBh+kwf6dk+PdhqzKcA9D5G2411+zFwKVIHDf9n2evFVxUD0kJ0uihm0Xqr22GNMjseHDX9TZcNEFMeLWLSEERwjg8d89VLTroSrncV5/ofAZqlVv/mRF3pq/RhqhEGg8AuYy5IafvtbVWP0h9GvPz2yDc05bI3XjdIK7Ly20czZz0lFmlcStClu5aHgD82iqbnaWKgiBJiEg8tak1dBYhEBLEXj79Ix3F4LLENyHdBrsiLG0+u+dOe3Vj20xFodkercdaRPqIL0q4obdFjZcrSHCHWDVTRV/1mwNqu5uxqS6QsAQEHkzJBQLASHQFQJI3di4gBSu04DRPQ5m0wK2cFMbLk/LblT6gg+6U93bAdrEqiJu+IDz/uBatlvXcKg7xp0LquSqN5fUPW61PzwIiLwNz1prpkKgVgQ2/3bKk7eNT+3ruB/swjhgPi1wDFEb/LqZHVmVR3ZVSdyQBrIxpBtHvmlr1PZ0nEPXddZs27HR+JuDgMhbc9ZCIxECrUbglck3PXlj52mnAd9taScrnD406ndEtoFwINXCkWtVAXUykiAIXLcBNanOK01AcXbGH7MGNm3ZDJMwCyUNCQIib0Oy0JqmEKgbgXdn3nOX3vaiJ3DH3jrdUXeevD1xe2Jd/L8d2rImMa9JiZA2NilURTIrk7g553e8cli9/JRFbwznwd6/yqvkhU2EjR4biYDIWyOXRYMSAu1EYN2W1z1549SFTgIq0zSXGkhEmr7rDxcnSMjYNVtFwAEvblHY9dht8M58W+bYuNs5F6kPWYNse1tL+XArApnKNAABkbcGLIKGIAQGBQH8vLFpYcO2zk4+4LirJPLGiQrj15/beIkRmykwdq8iVOk4F/zwNdd08lsFbmXaQD2677bPacdtGdBUthEIiLw1Yhk0CCEwGAjs2Hvck7drH9zV0YSQgGDfFQd2oWJH1uQAMeLMyyrUpX7Dw/oL3fQzD1QyZY50wj+ewiICYCwfd4t46K5dCOSSt5GR9G377ZqqRisEhEDdCODvDckbVyf+3tJOV8DIvttD1+ucO6o3jpeqYkNB1aQCW0FPfKUSXHgFFjCuSEq60LBuhECPEBB56xHQ6kYIDAsC19w/d84pu0/LBBzvQt6SAhK5JrsIQaqFyrfbAAms0nGuPyHgpou0ezJYGBG3AAzdthaBZeQtlrTFz62dqQYuBIRATxC458m9XvK29fmDpfrDoz3qvaSA0T5nhDYxMK5KzlqdnfHELcvPXZn5s2miKvciZfptclkRtyavjsZWBoEl5A2iFpO1+LlM4yorBITA8CHw5O+PePJ288NjpSZ/+OfrHK5C4pAlkYvL9uOZMXd9xNS8qwp/lFYV6k2I4B3/WNnmiX7gWnWfIm5VI6r2+onAAnkz4hbH/Ryc+hYCQqB9COw98rYnb1++a0epwWMzhjuLOOSddxqX7+UzZ6161yDTU111e+SR73mpWxWbHRgIRDjrmLGuBtvCyiJuLVw0DTkTgQXyRikjbpk1lCkEhIAQyEHgsjte8gTu0PF3ckrOZWPojyuLpMB5plUf7p7UTydpuAXpVs15/LnNftdjVWphduayi1LOZudWVMStkzdbdZqOwBLyxmClJm36kml8QqD5CNy4dc5Z79OvHSs0WNSOacdi5Z13WqiDmgpBOJOkhUW7O7n7aS+5q+oAdH+EGI54D40WHcJAlxNxG+jlHerJLSNvQ42GJi8EhEAlCDz07Nwh9fdtL3BI/eyMm7jpolTCgYuQrm3KKpnV0kaQFnLUVKcBgsVGhyrcizAGJG3eEe/Lj3Y6pIGqBx7ej5vcgQzUumoycwiIvOlNEAJCoHIEXtjzB6825bisvIBk7eCmK1OLZZ13mlqpBxkQSnyodRKQCGHjh4qzqoBquYkkt6r5lWnHXK6kSXPLtKWyQqCJCIi8NXFVNCYh0HIEDkyfKrxpAelV0qkKBgHG/I1z0Ds7433ScZZp2QCx4EimpJ21Zduy8uDD7tKqNjxYu62MZ2e8yxk2bSgIgUFFQORtUFdW8xICfUbg0tte9ATuxKmZ1JFwpBQOeLNC1mH1WfXqzMP5bUcqU1yCbLqyEoe+Nj+IL1I8/LopOL+5pTKXKwJUCDQUAZG3hi6MhiUE2o4A55tyTNau/ScSp+LdbNx0UabUjYq4vGDHaZPCoa1rO1KZchIDJyhUJSEz9StkUsF5tbH/MVCFrzwBKgQajIDIW4MXR0MTAm1G4K4n5k5a+OVLhxOngT1Slq2bVUo7rN7y+xFzAP2pyXJ+7JAysqEAtWlVYWrD5W76qXuqaq7V7aCGRnVcJb6tBkSDH2gERN4Genk1OSHQPwQeefGQl7xt2LbcLgxbMX+kVAHntqgEO7Etq2vmkIOxa89xSA6LBk6JwJlvN25F4r7Y6CE7tzlU8LfHzlIkkQpCYBgQWCBvXzoz6wbhGoZF0xyFQBsQeGl8bsfpDT9dfmoCEqMiOwHt3NAmzRcVJRsOCofZGV8eZ7xVBezbxteen+pepap+2tAOZ+L6Uy5k89eG5dIYK0JA5K0iINWMEBACSxE49tZpL3n74o9eXpLhTxS4+bOFJFcQJW8jtqSF/j6gpizjkqOOo6pQN1e5W7W/iHbe+1u7flOpk+POR6KaQqC3CIi89RZv9SYEhgoBiBubFo6//a6ft3dMW0Ji5B30NszlA8Sp6AYKylVt54akye90HXKjfJwbI3GrysnxUP1harKtRyCVvK1YsaJrNWpeG3n5psaNy8XPVo5YQQgIgeYggMoU8vbK5Jte0oahP7ZaRQPq1Sod2RbtN6tc0Q0U2OlVbeeGGrnqNrPm2tQ8jhPDZpLjxRSEwDAiUJi8QZjiKyRNSfdZJIvylm9xUhthOcvPKj+Mi6g5C4GmInDH4xOevD2186g7tGVNqUPc2RCw57pPuKoObK8KI6Rep/bvzGyOsVOuDFHNbHA+E/9lOC0e5sCmBKSZVWM7zJhq7u1DoBR5M/KURKjCPLvPIllxG1ll47z4OWyrfUugEQuBwUXAzjj98eZHvNF+GTcO2DP53ZQNg4dzWNk9mhXwA4dz4SoDeLCjsswu1yr7b0RbszPeBhJ/eQpCYJgRaAx5M8IXx1lEzcqGZYZ5MTV3IdA0BJC4oTb9zvd+VNqNAwSoiUb5qOuypIHYuaEeLkNU89Zt9tQJB2ks61sur9225R/cvLqQb8C2zUvjFQJlEVhC3iBBSVco2UoiTJZm5eI20tKTyoVtWb2sNNoI88sCoPJCQAjUh8CLL+305G3tAy+W7gSyUqVftNIDSKkwds3HU3Kc90eHTRobM6oMSPHK7HCtsu+mtHXs13eWlt42ZewahxCoGoEl5C0kQTEpynsO69p9XMfSLS6Sn1TG0iy29ogVhIAQaAYCGJU/v/5znryt2vhKqUFhiF7Kl1qp1jsvjAQMyVtSqMvODXcpENkqJXlJ429yGtJMSLGc8DZ5lTS2XiKQSN4gRTExynsOCRT3WW1YWxbHde05qY20tq1OL8FTX0JACCQjAHHjZIRjL//KkzdUp2UC7jiO/+6hMlV6UtaflHDTRYl91WHnBmGDuHH4/LAGVMXaYTusq695pyGQSd5CchXeG4EywpQUG/EK69l9Why2E5dJygvT7D5toiMjI2lZShcCQqBCBIy44Y+McMXdOzyBw2lvkWCnBzTRMB81rvexFk2EnY9V27nRBQ5+IYXDGngX+BHAubAKQkAILCKwjLzFpCl+NpJk6fYcxpYXxtwnXdSzctZG+BzeW9k4zeoRpwWRtzRklC4EqkNg4WM7T9xo2Xy97Z56q1BHHJvVVHcYSMDw8xYG7NvqsHOjL4gLqtphDEgdIcScaKEgBITAUgR6Qt6MXBnpSoutXBhbWdLs3uKwnN3b9GKyFj9bOcVCQAhUg4CXuN10kTOJm7X6w0f3eMnb068ds6TU2O+qbLBtE3NDpWvBCEbVPse8/dz3P+NwDzKUYXbGHdh4hfcNOJTz16SFQA4CS8hbSIrC+5A4GUmK85PS4zL2nBZbG2EclyXP0sJyds98IWoxWYufc3BRthAQAiUQ8EcVrb8wkWw8+O/7PXn7xX8czG2RHZVN3lXJ2Nj1aIFdoFX7c6NtJI91tGvjbnrM/L2Ec8iPAGv6Oml8/UNgCXkzApREkGLCFD6H90XaCMuH92Fdu0/KT0qzMRtxi+P+QayehcBgI4A0CvVe2hmTW5474MkbDnuzAjsJ2cnZ5B2FOA1m9yeBY7vqsHMzA/1hVZf6naXrL8z0pZf1HilPCAwDAj0jbyHhSroP04y4GSELn9PSLJ1FM+I2DAuoOQqBviEwO+OwT2M3JCrTtLD91TlHvXc9sTetiE/HML/JUjc3O+OP64JU4aQXolm509zZGX+KQqx6zgRugDJ5jzyuOcePDdCUNRUh0BEChchbErEK08L7kGiF6Un3pFm6xWF9I2RF0qysoSA1qSGhWAhUjwAEhkPjUW3lScqeH532krebHx5LHQjG+eNrz2+0cT7nmSJpIxx8cMTvBE2dUIcZx5/bvGxDRIdNta7agv3gc5tbN3YNWAj0GoGOyZuRpZCApZGsJGIWphVpI6ltqxfGvQZQ/QmBYUOA3ZUcDI4bC6RReWHX/hOevK3b8npiUYzzaQ91WZPD9DMPeDs0NhHUsQvUNms08VSJXqwLhHiY7fx6gbH6GBwEcslbSLJiApX3nFY3KT0pjfbT0tP6Hpyl0UyEQPMQgGAhISuzu/LA9ClP3q768c7ECWGczs7Cpoepey9zb778iFcT17ELlMPWD21Z03QYahkfxBj/eUjfFISAEMhHIJW8pZGjpqfnT1klhIAQKIsANl4H71/l7bFQH5YJOOflhAWc9cYBKZ7fpHD8jTirUc9m44a0ERyqDqePTQ7t8U+8T/wgAAMFISAEiiEg8lYMJ5USAkOLgKkJIS6dnnoAeVt2RNbsjD+/FDuvpgeO6pr6H5d7kpFn49fJXCCEw+iMFlKMCroOSWYn66A6QqAtCIi8tWWlNE4h0GMEUGGxA7SKszW/+KOXPXk7cWrRRo6dpdg5tSFM3fNPbuKmv63lvFVcrGDz1ykxbgN+iWOcnXGootmxrCAEhEA5BETeyuGl0kJgKBDwTndvusj41aLTAAAgAElEQVQbkFfhb2zVxlc8eTv85tz5ppxVWYePtDoWB3Xenus+6abu+u91NO+lj03frFHHxI8+cbsnb0U2vdTRv9oUAm1GQOStzaunsQuBihFA+sMGAs7qrFKVFZ5vemZ6yqvKsHdrQzh439e8f7csX3adzoONH/vv/Hyn1Vtb7+Tup/07gNpUQQgIgfIILJC38lVVQwgIgUFCABcV7PjD/qrqjypuQrB52zn+ht/0UGa3aj8xxr5tz7fOcUce/2Hlw4AoY+9VdgNI5QPpcYNnjr/hbQeHbd49hlndDTgCIm8DvsCanhDIQwASgbE8O/448qmOYOTtN3dd53CJ0ZYwde8/eVzqUO1NP71p+PyaYed296VuevuGtrwCGqcQaCQCIm+NXBYNSgj0BgGOYcJYHueodeyitFkskLd7v13Isa/V62d8+uiEG/vmf3Zvvba98mFgRziM7jH4kcAmBQUhIAS6Q0DkrTv8VFsItBIBVKRIQDhovfLzORMQWXPvb+bUpnuPJOQ2M2niO3/r9v3w4loGh7H+sJ0mgJoUW0rUpgpCQAh0h4DIW3f4qbYQaBUCSNfw4o+tVV0q0hgQpHs3fu8uT944pL4NYXr7Rjf2zT93Z44fqny43rfZuguGyiktbmf8EWg7n6wcTzUoBIYRAZG3YVx1zXnoEDC7NiQf+NXq1TFEEDeI4o9+MecqpA3kDXI19q2V7vDP/7WW9wT/dlzDFPjBgM9ABSEgBKpBQOStGhzVihBoLAJm18Yu0l4eQWTEDRcbdz2xtzWSt6m7/7sbX/tXtawnkk9/HNiJdkggqwCB92Dy+5/p2Q+GKsasNoRA0xEQeWv6Cml8QqBDBHC0i10bznBPjj7bYSudVQuJGy20hbyB09g1/7k2vJBADZPUzdyCYGOpIASEQHUIiLxVh6VaEgKNQAACAmlDRerPDZ1dPJKqFwOMiRt9toK8zc648TWfclP3/nMtMCH1ZIdpnbt6axl4p43KLUinyKmeEMhFQOQtFyIVEALtQMAfOXXLxd4wfPqZB/pyVibOd7Fxi08jeOjZKa823fLcgcaCeXDzaje+5tzacGN3KbtMhyXILciwrLTm2Q8ERN76gbr6FAIVIhCSNn9yQY8lbTYVnM5i28TxV3GAtHHCQlPJ26kDu+Z8ur3yeDz0Sp5N6lbFObGVDKjmRuQWpGaA1fzQIyDyNvSvgABoJQKzMw6ihj0bR1p5tx99Im2cPsB5qIwlTSXYaPI2O+Mm/vXTbv8dl9T2KmDrBkbDENjZLLcgw7DSmmM/EVhG3lasWOGKXOGgt23bVqjOypUrw2puzZo1hepRLgxnnXVWoXqjo9kHX4+MjITN6l4INB+BedLGxxHShtStnwG3GlMbLvc2dlnuR5pM3lCXjn3rnFTi2S2+w7bDFJI6bA6Iu31HVF8IlEVgGXkr20Cby4u8tXn1hmvsSDOO/+4hL9FgM0K/SRvos4Nw4qaL3OGfr8s98qqp5M2f6XrDee7oY7fU9kJBZpC8DUPgtA7eiWFRDw/DmmqOzURgqMhbTNbi52YukUY1zAhg+A85wjcYEq6Te55vBByobMscZI9zXmze2HXalAABnlj7V25i7fm1+SAbpjNM+YGBzWMTflg05R3TOIRAXQgsI29FVKaUCUMb1KYQtZisxc/hnHQvBPqFAB/BEy8/uuDu48gvf5C4CaAv45ud8Z7yUduW8d3VNPJmBvX7bv1/vESzLiyR7B3cdGVdzTeqXSSMOIJWEAJCoH4ElrKw+vvrSw9G3OK4L4NRp0IgBQF2JPIBRKI1de9lDn9pbAZoSsDhKgfZIwEsqxZrEnljHv6YsMdu8Zss6sIYEk4/ZUhuU9a67Di8unTdBQ4bSAUhIATqR2AoyBswGnGrH1L1IARKIDA740kahAjSBnmLfaSVaK22oqhrPeHp0E9ZU8gbmwdQ7U1vu3vu5IndT9eGGQ6SsU8c+DA7M7d5hh8bCkJACPQEgaEhb6ApNWlP3il1UgABfKGhDoUQ7b/z815NiqSmiWF6+wZPLE92QXSMvN3x+ETfpmjEjeOpsNmDMNcWZmf85pJeH0tW23wyGsbxsNSlGQApSwjUgMBQkbca8FOTQqAwAqiU2DGKSpQNCGxEOH0o251N4cZrKIhq9OCDI16q0u2B9rv2n/AbFtZteb2GkeY3iRsTXKv4c0XniVWd6kxsFulv0IPfcSx16aAvs+bXQARE3hq4KBrS4CAAacCBrids15/r8CnGbrymStkM+bd2/cYfcwXBzPLfZuXz4vHDJz15u/bBXXlFK89n/Eg37UB4pG51byKgP+84ufLZNKjBeXXpwM+zQZBrKELAEBB5MyQUC4GKEICY8UGDICBhI+a5ChJU0RBTm0HahoNV7MLenngxtVzZjMNvnvbkbdXGV8pW7ap8TNzYnFB2p2zZASBNRR3edIJedl5xedSlBzZeESfrWQgIgR4gIPLWA5DVxeAjwIcaiZo/3ByfbPde1hrCZqvD7lYOlWfTRNXE492Z9zx5+8Kt1RFCG3daDBENJW6U64XU7dDWtd6eMW1cg5AOQWWDDTt3FYSAEOg9AiJvvcdcPQ4KArMzDoN0vOd7J7r3XuZt2trmLoHxYnCOjRYuH+oKEDcc9ULk6g62OeHo47cudtUDqRuEkXdh0EkNpBj7TQUhIAT6g4DIW39wV68tRQCi41Wim1d7yQMfsemnN9V2LmbdMHlp27oLHCqwuvyd2RxQmULeUKHWGXC1ggRx+pkHlnTTC6kbfdZtT7dkUn144P3H35+CEBAC/UNA5K1/2KvnliCAN/5jv77Tq+C8DduDI179hnSnrQHJEPZKfIR7teP1mvtf9eSNzQt1Bez0sDfzDo7DTnogdaM7bAUH2T0IkkWIMX8TCkJACPQPAZG3/mGvnhuKAB8oXD1guA8R2Hfb5xzqN2/A36ATDzqCb3bGq7uYF/7b6pa2hWPETQiSN9yG1BFQ4zGvpI0WvZC6Qdogb4Mc2LGLTZ+CEBAC/UVA5K2/+Kv3hiCA9IlzKFGDeuna/as8yRkk2yVPLm652Dun7ccpDrc/Nu7JGw57Kw3BeatJ82LzRd07TJkPdoOxqrbSefa5MdtFy48bBSEgBPqLgMhbf/FX731CgI880hgvXVt/oT8qiRMPOAaql9KoXkyfjy6nCUze/Nm+qvTueXKvJ2+/2nG4smmjuuYIqqzzVnshdYPkQ/oHmdhok0Jlr60aEgJdI9Ao8rZiRffDyWsjLx9Ei5TpBPm62u1kLENVZ3bG76JkYwHG5KjWUG9B3PiwD5J0LVxXiA07YbFR8jsD+6zy3fr8QU/eHvz3/eEwO7733v1xbfLLH2QSbnbRelLecU/5FbGJxKHxoAZtUhjUldW82opA92ypwpnH5Ibn+MrrLm4jLm/5Fsf5PFsecdqVVS8pL2w3LV/p1SCAY1bO4cRODakMEhEM87HXwRdb21x5lEUFNSG7R/HDRdwU58B2vinq024DNomQcEhFVuA9wGax7tALtWzdc0hr329SWHeBNimkAaR0IdAHBBpP3kJMjFSFafF9XpkwP7wP27F0i8M87tPSu8mL+9BzcQSQnPExR/KBlAWyhhoNaQgSl6odzhYfWY9LBpsRkCo2TaJo55ve8NPXOgaGtWSdJ266yBU5mxRnyct2nnbce3JFNkigkh7UwAYFbVIY1NXVvNqKQC55O+usszxZGR2t/wDtmBTlPSeBHteJy5TJTyublk5flkdc9IrHqOd0BLDf4mOMqgxXF6gE+ZBzgDrG4kU+6OmttzcHCRMEAkljUzGwI7KuuLszR8CsPeSctS4iTfRq1ZsuylSpVrHiEBu/c7eKxhrWBi5BkHAOsi1fwyDXcIRAIQQyydvKlSsXCEhd5C2N4DB6I0I2k/g5TI/bsfpxevxsbVgc9hHeW761Gz4XvU9rr2j9YSrHxwKJBnZq2G2h+hq//ty5j/fm1f5jCWEZdBVo3pqDAYQNtR2HyTc94Cqkk1MWjj+32auB89Sk4fw5qoz3p86AJNAfE9Vin39Z+GBuoJMUshBSnhDoDwKp5G3NmjWePF1yySU+rou8hdOOyU3ec1jX7uM6lm5xVj55Yb49J8XWnsVhPUuL4yJl4jqdPtdtoN3puJLqsfMTaRo2an5DwU0X+Q8iKi/s1Phge2lSnw3uk8bel7TZGY8XUihIG5su2rJD9sp7505ZOHT8nULQ+aO7Nl3pyfvpY5OF6lDI7/5ce34hCV3hRhMKoq5HRT+IgfdKJykM4spqToOAQCJ527hxoycx27Ztc0bi6iZvRpBCUGOyEz+HZbnPasPqWhzXTatv5bLqpZWx8WTFVreqGDUHkpixaz5eVZNdt4N0AoKGZAjVJgefQ9LMPg11n1d7bt/gy7T55IKuwcpoAByRgkDYwI7NF20hbTattQ/t9pK3VybftKTUmPcFlXjebtKkBnjHfL2kzArTUN1D4AYt8K6hLm2qCn7Q8NZ8hEBZBJaRNwgbZAMCR+g1eQtJUnjPWOLneLLk22V5VictTitn6RZbfXtOiq2MxUllyqaNjIwUqgI5ghBB2uwqVLGiQkg6kPbxa91L0Dav9g5v+QCgVkLtCUHjg4oKDIexXpIiaVruCqBCxqYKLJFGtkmqGk/ujscnPHl7ame6o17my4YL3LmcmixvH0d9sKr7RwDtszkGojNogc0+rIGCEBACzURgGXmDeKAqtdAL8mZkJy22sVi+PYex5YUx90kX9axc2n1SvTgt7D+8D9sO0zu5zyNvZ6an/H+yY9ees0DaqiJvEDJIIWQB6QKkC9cT7PbDnshsrbwt2s2f9RsIyMPOCKkQv9qLGJZ3gssw1IEcQIQhv3jvHwQpyObfTnny9tCzU4lLuCBte+R7HZMi3r9eEA+zx0ycSIsTee88+Z1OXqMWT01DFwIDg8AS8sbOUjYphKGt5M3mYEQqLbZyFls5eyYmza4wPek+rm/1kuKk+jFZi5+tDv/BYg+257pPLCNtRt4gXeHFhxHJmF1IcyBjfOiQ2kHGUFNBFpAocE8aqiHKQCQ4Qor6GMojFWEcCtUigEQSEswasJOxjK1XtSOpvrUnf3/Ek7fY19uCtO3mz3YkbQtHynvLztS6A6rrpHNU6+637vZ593qhcq57HmpfCAwyAgvkDTUp5C0OdZO3kOyE94wj79nGGpYL78M2LD2OrQ2LLT9+tnSLLd9i0u2yNOKs8mE57iFqMVmLnymHtI0PlJG0tBhjY8gXF5IyCJhd/AcNcUOahlQNkscHr2m+wWKMBvkZMsw6QZ75eA4iMTZfb9c+uGthKXn/eJ95H7u14eNHRS+M7CHUjHnQAvPi/YNMKwgBIdBcBJaQNyMfWXGdU4mJTtZznGfjitPt2WLKhfdWz+Iwr8i91bM4rENa/JxWzohbHFv5OMbOBrUN6o008gbJU2g2AuymRALKpg1svLgf5A/niVMzXvJ26W0v+h8L2PBxZmZVkjKkxGXciXT6dvjjsB6+sdPqja2Hep7/VxSEgBBoNgIL5C1tmHVL3sJ+Y6KT9RznWTthet59mB/Xj/PynuP6ac9Z6UbcrEyhGK/6L2z1OxBjEifyVgjBvhRC0skGDlSjxDwPS7jirh2ewD2//nOVEi0vkV53Qce2cmXwH0SVKSpgdjJ3K/0sg6PKCgEh0BkCHZM325Ua28h1Noy5WiFBCu+tzTAtvLd84jA96Z40S7c4rp+WHpaL+7K8uG78nFbO0pPUpJaXF7NJgI+KkTiRtzzEepuPGhSbQdRtSNpwmzLIUrYkdJGKXfe9+z15e/bVaiXDqJpxEVJ38CrT9RfW3U3P20cCOohuT3oOpDoUAj1AoFXkDTwgQ3Yl4WNkyeKwTJiW1kZYJq1umB7fx/Wtn6Q4rlvVM1Ic7NxE3qpCtIt2Zme87zrUUX4DwpY1XRvkdzGavlXF/yDkADXpjx+bc9S75bkDlY3H/JL1YnPHIKpMcZKNOx8FISAE2oFALnnr5TSM+FjcSd9pdZPSi6YxjqSyRcaXVi8tvUibKtN8BNj4gQE+Z6/yUWRjyDC6TeEHBJswkDaaVAcfbxyR9cNH91S2kLTdq5MOIKEDpeaenfHq0oGaU2VvlhoSAs1EoFHkrZkQaVRCoBgCbD7gBASkS+zYY0fvIPhmKzb7paVQB6PGZEMNquLQke344ZOevF1z/6tLK3XxxA5Tf+JEF20UqQopZ20HyS4M9T2ughSEgBBoDwIib+1ZK420gQgsIWxsPti82pOIkKw0cNj1DWl2xtvyQdrwUZfk7uSdd2c9efvCrS+6d2fe63os7FRFwtkLQjVojnl5TyGjOONWEAJCoD0IiLy1Z6000oYgIMKWvBBIvtitiOQxz/XHqo1zdm97j7yd3FiJVEii9xFXok6nRb3KdPTZTqs3rh5kVFK3xi2LBiQEchEQecuFSAWEgHMhYfNSpS1rhlvCFrwUtsuZnc44yS0SvveLMS992/5qdyd0eMnRDeclSviKjKNMmUFTmYId7/KwqvbLrL3KCoGmISDy1rQV0Xgag0ASYTuJ1GV2pjFj7OdAQtJW1t5s6/MHPXnbsG2yqymwS7JXGxXwp8gJJYMSJHUblJXUPIYRAZG3YVx1zTkRASQRkDMM7dkhii3QoS1rfJoI2yJkRtpQkUKeOgmvTL7pyVt4TFYn7aDy68WJCowNZ8oQuEEIkroNwipqDsOMgMjbMK++5u5VRuyGRHqDHzb84/HMOaMKSxEISZsnMV1IIG3TAi5DuO8kIBllzXrlggUyn7QBo5Ox97uOpG79XgH1LwS6Q0DkrTv8VLtlCOB3DOLhj6Zae74/kQJJG7ZaSCMUIgTmj1/Dno1TIbolbWHruAqBvCGF6yTgO4/dvb0IOBlm/oMQJHUbhFXUHIYdAZG3YX8DBnz++BtDYsSORA5+x1ksdks4dR0UKUodS8gHHukMLjiQRpa1aSsypnue3OvJ2y/+42CR4svK9HLnJ9LYXhy9tWySNSSwruwIVhACQqC9CDSWvHVyAkEndZKWLqmdpLSkukrrLwK4qEA6hINcb7eG77VNV3rfY/Jllb82qCJxu4E6EtzqVB/bSQs3PzyWP7CohD9fdN0FPds8AtkpupM2GmqjHk3qptMUGrUsGowQKI3AQJM3CFfelYRYElFLSitSN6v/pPpKK44AH3AM5pGIIIWBcKDeY5MBXuNRdWmjQTE8cReBdBIMwa8XZ4Ti4w216ZfvKm9f2MvzRSE84ELc9uClbndf2vZpaPxCYOgRGGjyFq6ukS+Lwzzuw/Tw3solpVleHJcpG9fVczIC+NhCdXf08VsXNhdgg4TNEx+ktydeHIiPa/Ls60mFjLBTk6OlUI8iceu1KvmyO17yBO7Q8XdKTZKdrr3yT4bEbRDUjJK6lXrFVFgINBqBZeTtrLPOSpVWXXLJJbVMBrJT9goHklY3LsNzGrEK08P7rDph++F9XD/Ma8p9HTZMVcyNDwwfZSRqSFdQ3eFIlI/1wftXuentG7zrDmzZFDpDgE0bSCvZPckuW+/uo4udo52NYq7WjVtf9+Ttmd3ThZtBlYv9Yq8CG1qweWt7kNSt7Suo8QuBRQQSydvKlSsXS/ThrhPyk1fH8i2OpxWmh/eU4zntittp+jO2LtiCjV3z8b4OFUkaEg3Um9inQSLYTIB6CkkQmwr4YL616zf+dIO+DnYQOp+d8Vh6lyhrz/fkrReq0TzoHnp2ypO3+7bvyyu6kH/44Ru9BHYhoeYbVPG9kvLVNRVJ3epCVu0Kgf4g0DjyFhKn8D4PHitrMeW5z7us3bheUnpWmuWFcV7fYZ9hvTru+fjw4Ya02VVHP2GbSMewO0M1h7oTyRkfwvHrz/VuF5CqIQE6/ruHvGE8xvIK1SKAGhQJJmpRSDGbOfiQNyXs2n/Ck7cyznqRwqIm70XgHUby2/bAumMXqiAEhMBgINAo8haTmfg5DfKwXN59Xj59WJk4tv4t3Z6tDul2hXl2n1TP8uqKka5gF2aELYw77RO1G6QMyRkfBW88/vN13ncabiX4uCJB46PHM4bwqGyQomnHZ6eol6uHhBWyDFEGf795o1wTPSn97sx7zuzeTpzKP3aMHyG9JFO8s/zIaHvgR1NTTSXajq3GLwT6gUAieTMCYnEv1KhJxCYpLQkkG2dSbOWtLYtJL3Ifl0t6tj4sDtvNSrO8rHhkZCQrOzUPiQvqpbFrz0kkbpA4/jPnI8+RUJCw8MK2DKkY6ksIGJsD+GhCyiBnpEEK6QPyRl3IHB9XVKIKvUcAKRFqaOzBWC/u22Ab+J2fjRa2e+NdYzdsr4K3d9u+oVfd1dIPf5f8zSoIASEwOAgsI2/x1EZHRzOlSXH5Tp8hPEWvrD5C4pR0n5RGe2npcV7SczyesK2k8nF+XD987oS8IRnDfiyUsiXdo0YzEgZJ48L+jF2HXKgzIXgYiNOm3G6EK9Oce8g3hAYpGydHtM2H1yMvHvLkrcgh9UiQICO9Cvx99EpFW9ecMJeAyCsIASEwOAjkkjemum3bNk9u1qzp3S9e+i1DcmxJwjp2nxeHfVHWylubcX6YnnQf1g/vw7Jp6TFZi5/DNrLusWtCVYmtUxJxI80TsqxGlNdYBCDUSD1ZXzagsNa9dvNRFTjm723Vxlcym+R9haD2zGZvdsbvyO1Zf5mz7ywTSTi7its8h85mrlpCYLARKETeTPpWl6uQNIjTCE5aedKpE16WFsZ2H7ZvdSyPOAz/P3vv+mVXcaZ50h9nre6P/RfoX5gvs6ZnpqpdbdHFME3RTRXdFGWqcFGmsUulMUY2tuwECoNolRow4iaQBWKUBbIskEoGISxLSMiyQKAb6EZKmUplKnVNUqlUKlEmMesJ8R69JzJi387e++x9zhNrbcftjcv+7SPnQ+wdb4itxLrOTYuN9BkV67YQaq5Yc/PaPlFazqZ87q5ZIo7iLRHByhjhDzE2fuAVGF6L4hViFXaM5gFowasH7Orb2YvhzRQQqFhZLCuAN1an6xywmo7fDAMJkEBnEWi7eIsSNnF18ihcO7dc8m6MdhJCaalHrG10uZvWdjodZSfCzY3dNq3k8QoUf4xkJa7ur4NaYVGXthBnEGl4XYhX4fhDDFHRaeHl3/Zb8bbj0PngreEVJnYulxUgFrG6WdeAlVh8o1rXFdm6cue8SaAMAtfVS8Rovb29Vrjg9WmZIUr4uPMQW4lRr9OufVS9r52USezrT8qS2IitjkW46bIi0vgm6lTvgtp9G1UEiyr2iQ0fEA5w7YDXohAQnS60IdpwVBZEnC/Ajczxx240M1MTvupCyrDKZx0YF9J78Z1is0WZmzuKvyOOQAIkIASaxBu+aXN3lsr3bknLpeM84iwiSLfRad98QvVueVxe9y22Euu6JOmWX5MmGYQ2lSMAcYINIjiGCd8o4Y8uNiJ0yyYRvC6Vc06nZ76a9Xywm7nsI6qw0lnXVSt844ZVN7rmmfVTYgEJdASBJvEmQg3CQ1++jQpi64q6PKlkEUC6jU7reUm5xLoOaV2u09rOV+6WIZ/k0v0y3T0E4MYDrwHhRwx/aOF6Ba+2u/XjcjjqhYCD4143wGcdxG1ZAaIN4q2uASu3WF1nIAES6EwCTeKtarfoiqEk89NtdNptm6Quygb9xdW7YzJPAnCWi2/Y8ErUCrbVC62A61bBpn8RUUdl2W+34K6mpIDXpRCMtQwz03ZTS91cxtSSNSdNAm0iUGnx1iYmHJYEciOAb7QgBPAaFN+vwYEuvkWyf1jbdBh8bjeXc0fiMuTB15pdhsAtStmrYPBzCCfVdQxYvcUGFwYSIIHOJUDx1rnPlnfWJgL4zggnVGB3JFaM8Ppq7KO19KuX4HnA1xtenULISRjdvtI6kJZ8GTFW3cb3bypjqNzHwI7yMnfl5n4D7JAESCCWAMVbLCIakEA0AbzyxBmYOEMUK0Tww4YdothwwNeh0ezc2jd2nLTiDa9QJeCEgLKFFFZI6+iSZepMn13h7ZaNLvIbYUwC3UaA4q3bnjjvNxcC8L+GI4cgLLC6JkcQdYrT3FwgZejk6PAlK94eWX3Itob4xakKZe76xJg4E7iOAkiOt8uAnk1IgARqRIDirUYPi1NtHwGcRoHVH6yuYWUNK2xI45xNrq7l91zgJuSBV66dtnBm7Ir9NhCrYGUGbCrBCRZ1C1boLr7FwE8gAwmQQGcToHjr7OfLu8tIAK/M8J0aHLVCqOFCGmX0nZURasJmK7eesKtv73wyYrBxoOxTDuBTro47TTFvugdJ+COjGQnUnADFW80fIKffOgGsWGD3Jz6Mxx8/vAbFbj28gsJqG8+AbZ1xmh729X9hxdvidUftpg/sniwzQCzit1C3gI0K+PaSgQRIoPMJULx1/jPmHToE4BwXggAuO/AHz36z9uq8ay48ju40qGdoH4Evp78y85fvM/Ne+IM5/thNpT8Pu0GiZMHYKm1uVGiVINuTQL0IULzV63lxthkIYOUMrhPwjRq+ZYJYw6kGWF2BDzF+s5YBasFNXtlywjz29P9n9v+ifH9lOJ6sbqut3KhQ8A+S3ZNAxQhUVrxlOb0gS5u455G2T9c+Lh83PutTEJiZNliBwKtOOFjFK9CBJbfa79VOv/Vzfq+WAmW7TT8bvGhWLu4xby79x1KngjNmsbu1ToEbFer0tDhXEsiHQEeLNwinuCsOoyu+0tq77d18XH+s9xPAH1n4UcMZjhBm+EZNvlVDHuWohx1D/Qhg1+n7T/yNWfT0yiaHvUXfCVZiT750T9HD5Nq/3WDx+oO59snOSIAEqk2go8WbRi+iSWJdJ2lfXZoy2EZdGMfXn4zP2EMgtJr25G12ZQ3freH4Kay41dEvl+eOWQQCM9Pm80f/1PzD87832mFv0XCwalu3nab4bhMuaxhIgAS6h0BQvC1atKhJiMydO7cwKpMM828AACAASURBVFGCJ1SnJ5PUBm2ixJOvLmmZzMe1j8tLO8bGOmL1raZhJQRng9rVtOO7S/+Anc+mfAJw1dL31B1216l71mmRs8F3kHU609RuVHj69iKRsG8SIIEKEvCKNwiOIsVaHAdX8MTZoz6ujdRL7OvTV5e0TPqDvXvJ/NxyX9/Sjy+2h5n7KmpShkPa7TdpB7daIQaXDPguTTYRwPkt8k2raTW5N04zXwI4vQKvv+WsU5y8UEbAphaMXZeAjQp1dGtSF76cJwlUlcAs8TZnzpzKCLc04kZsJQZwpOMu/WB0WylPWib2EvvaoU6X67S088VYhRh+bb459sg3fNWVKsMuPayejX28zoowOLa17jgW32I3DyA9svZhc37zMmsDQVq3nX2VAt6hk8FvBA6R8coUB9Wv2jZYyp3CTUhdfKU1NiqMny+FDQchARKoDoEm8dbb22vFRV9fX1tm6IoZNx+alLaLS4fq0Tfqkl6+uUS1Ffuo8cVGYpyTCfED0SaX1LUjxvmSOF0AggvfBuG/+PE6E8ISq2bYpYdVNLjhsI5Od75u/xBitQ2rbgwkkJQAfk/4j5ahC5NWvOHILGxiKDrgKC77/WTRA+XQP/4NQmwykAAJdB+BJvF27733Gqy8IXaFSNGCTosaeQy+MqnTsTtXnRc76UtilOu02Lmxz8ZX5vanbZKk9bgQSXgdgsOxRbRJrO1aSeO/2rHihd11dqVszwYzumOVPY4Ir6sgwIZfnXdNlC2+xe7kxBFRKMOrTfsN2vaVVsShD+7qbOVpsK0m4LrreHTNYSvgdh0d1WaFpI8/dmNt/kMD/0bhv5CBBEig+wg0iTcINwgNrMDpgO/fUL5t2zZdnGsa/Se9ogZGHxJ8aV+Z2Ptibe+r12WwDV1ip/vTadTDsz/OcsQKlog1N8YrHax84cL/ccNNQOP6eJ1tjz7kwgoYxBhEFz78hwCDKESMVTKU4xUVvvVBG7yqwn/Ro3+sQPCQa3lyjMsigNMvsJor4XcHzlrxtmT951JUSIz/aIKD3joEK3CfuLk2QrMOTDlHEqgTgetKxxi76gYB5wsQGmVvYnDFjW9ebpluI+m42O1D56WtLkuSDrXT5TqNVbCBJ28LijYRcfhmzAqu1x+0ogzCDBdEmgg2xNiZKaIOgu/ywF670sajn5I8Pdq0kwA2rOCbSAmXp6bNvJf2WgF3anRSinOP6+TjDd+U4j+6GEiABLqTQGLxBlEXEnZFodPiJukYaKMvtJN+JJYyN+8bQ9voel85ykKXtNXtdBr1P+/5iVn70Lfsh/0i1tyYH/cLScadSgD/ceL6LcNxWdi48MaOk4Xddp18vIFRXTZWFPbA2DEJdDGBJvEmr0d9PIoSbyGxk6Rc5unauuWSd2MtnnRa26Utl7a+dm6Zzvf09Bi5Hu75qel96Ntm78N/OmsljuJNCDPuVAI4KcP9hvLY6Qkr3r7/y/0GB9cXES68v8LukC6i7zz7xKcM9vXuzHSe3bIvEiCBGhFoEm+y29T95g2bFSA04Li3zKDFTdy4Yisx7HXa117X67S2TVMO29Dlm4/bt4i3xvgz0/b0ABz9JCtweP3JQAKdSiDquzPZuLDjUDGuMfC6FgKu6sHu8t6wuOrT5PxIgAQKJNAk3jAOVtggKvTuUinT88DmBdgV+R2cK270+KG0bqPTPntdr9PaNm25tHXbuXnY+cog4HwBGwjgFgAxAwl0KgG8LsUrQV/Y+uk5u/r22K+P+KpbLsO3o/hOtOoB/zHH/4ir+lPi/EigWAKzxBuGc12F+ARancWbiCaJcc9Ip72iHo3bl9jKmBJLOWMSIAFz7eSNt5d4UVz5csbMX77PCrj+s/n7DYQLHOx0rXLADnBsbGIgARLobgJe8VYVJFkEjm6j0+49RdW5tr682x55fUkb1w7lvjKxZ0wC3Uwg7ngqnLRQ1IkLdqNExVe2sQtX78Tt5t8K750EuplApcVbNz8Y3jsJdCMB+CKM+jQAK24Qb1iBgwuRPAN8H1Z9QxDmWJcTIPJ8NuyLBEigmQDFWzMP5kiABNpIAA6q3Z2m7nQWrztqBdw7n4y4VS3lsYMzbuyWBmixMb5zw/duDCRAAiRA8cbfAAmQQCUIYNUryQkHe45/YcXbglcP5Oo2BDu6qxxwZF4ddsNWmSHnRgKdQoDirVOeJO+DBGpOAE5nQztN3Vt76I1DVsDl5TYEvtMGltzqDlOpPDYqTF0YrNScOBkSIIH2EKB4aw93jkoCJOAQGN2xymB1KUnYfvC8FW/w/ZZHmDrXb048c0ceXRXSx+TQQTP47J2F9M1OSYAE6keA4q1+z4wzJoGOJHBm/SIzuutXie4NpyzgtSk2Lxw4MZaoTZSR9aMY8C8X1a6sOu4yLYs0xyGBehCgeKvHc+IsSaDjCVhXHX0fJr5PbFiAeHtqw+eJ24QMqy7esFFhcvBAaPosJwES6DICFG9d9sB5uyRQVQLWDUaKb7rgKkSc9p44d7ml26qyeMN3bnTM29LjZWMS6DgCFG8d90h5QyRQTwJ2t2fKw9bf2HHSrr69suVESzd9cd9GM7LGfzRdSx3n0Hh05+sGr5QZSIAESEAIULwJCcYkQAJtI5B1denCpSnzvWV77TV2+cvM88eZpjjbtIoh7evkKt4D50QCJJAvAYq3fHmyNxIggQwEJvo+NEMr7svQ0hisuuHbt5Vbs6++VVW8wWlw/xM3m6+uTmViw0YkQAKdSYDirTOfK++KBGpFYOzjdZlXvs5enDLzXrq2+nZm7Eqm+66qeMO8qvo6NxNoNiIBEsiFAMVbLhjZCQmQQCsErCuMLS9n7kK+fVu+eSBTH1UVbyOvP2jwPR4DCZAACWgCFG+aBtMkQAJtITCy9mEDAZU14Hu3VnaeWgfBG5/KOnwh7fCqFK9MZybHC+mfnZIACdSXAMVbfZ8dZ04CHUMA37vBXUcrYf1Hp+y3b89tPJa6m/NbXja4qhTscWGvza/SlDgXEiCBihCgeKvIg+A0SKCbCcCPGQ6mbyXA79v3f7nfCrjDQ+lWq6oo3tKcONEKN7YlARKoHwGKt/o9M86YBDqOgPXxlsNdyakLS9anO3WhiuINTotbFbQ5IGUXJEACFSQQK956eqrpuLKCLDklEiCBDASujp02A0tuzdBydpOsZ55WTbxZv3dP3z77BllCAiRAAsYYijf+DEiABNpKYOpcvznxzB25zeF3B87aV6ePrjmcuM9z7y412LRQlTD20drMrlOqcg+cBwmQQHEEZok3d6XNzRc3FfZMAiTQjQTyPld0euYr89N/PmgF3O6+0URIcbpCK7tdEw2Swgi+3cb3b0rRgqYkQALdRKBJvEGouWLNzXcTHN4rCZBA8QTGD2418GeWZ9hx6LwVbxBxEHNxoWriDa+Rr46fj5s260mABLqUQEO8iXBz4y7lwtsmARIoiUARDnIh2B5ZfcgKOAi5uFAl8XZl5IgZfPbOuCmzngRIoIsJNMQbGIhw62IevHUSIIGSCVx4f4U5997zuY+65/gXVrwtePWAwUaGqFAl8Ta683VztmIOg6PYsY4ESKB8Ak3iDcPzNWn5D4EjkkA3E4Bwg4ArIjz26yNWwL2372xk9zjhoSrHUOEVMl4lM5AACZBAiMAs8RYyZDkJkAAJFEGgyFUvOOv97y/sMQ+8csDAiW8oDL86r+UTHkJ9pyqfmTb9j9/EI7FSQaMxCXQfAYq37nvmvGMSqBSBolea4LAXAg7HZ4VCVcTb5OABM7T8O6FpspwESIAELAGKN/4QSIAE2kqgaOF07PSEFW84Oiu0+lb0HJICHt2+spDv/5KOTzsSIIF6EKB4q8dz4ixJoGMJwEEvThQoMry46bgVcK9sOeEdBrs74Sy43WH4tflm4ujOdk+D45MACVScAMVbxR8Qp0cCnU6gjDM8z16cMvOX77MCzndo/cCTtxkc09XO8NXVKdP/xM0GMQMJkAAJRBGgeIuiwzoSIIHCCZQh3nAT2HGKb98eeuPQLNchxx75RuH3GTfA5YG9Bq9vGUiABEggjgDFWxwh1pMACRRKoCzxBse9T7x5zXXIug+HG/c0PfGFXfFqFLQpgbNVz29e1qbROSwJkECdCDTE25n/ddLwqhaDOv2QOFcSyEqgLPGG+Z04d9l8b9lee50anbRTvjo6bDCHdoeid922+/44PgmQQH4EKN4qLFrze8zsiQSqSwDfeWH1q6yw9g/D9vUpVuEQJo7vNkMr7itr+OA4OM+0TA7BibCCBEig8gQo3ijeKv8j5QQ7m0DZ35vhqKyFvZ9ZAfe7A2fNpcMfmFO9C9oKuSqrf22FwMFJgAQSE4gUbzfccIP3VWqoPM1r1zR9hGxD5TKPuHqxi4qj+oiqi+pT10X1kfgp0pAEakygbPEGVJ8NXrTiDb7fTu18y+CUh3aG8f2bzMiannZOgWOTAAnUiEBlxZsWNUnSWhBJWrdDGfJRl7TTsc9e6n11KJN6iX1lSepq9DviVEkgM4F2iDdMFj7fsPv0nRVPtd0xLg6ix4H0DCRAAiSQhMAs8RYSJFHlIkQQh+ykTmy1oNFpqdf2Ui+x2Lh5KZfYrXfzYofYV6fLdNq1d+t0v5IO2YTK0Y6BBLqBQLvE2/jktD3zdOXiHvPpuufbivrkS/cYHI3FQAIkQAJJCMwSbyI2EIeERahct/W11+1CabcPXz9igz7cS+p87fSY2i6trds2ST40dqgcfTKQQDcQaJd4A9sdh86bdYv+3ix77mVz5cuZtuC2znkfv4nOedtCn4OSQD0JxIo3VxxJPotg0UIllEa/MkYoFhs9B7c/t620cct1XvcnaV0fl5Y2EsNe0hLH9aHb1PMnxVmTQHICVfhQ/6N/uss8/Is1pnf7yeQTz9ESznmx8sZAAiRAAkkJxIo3ER061gJDl+u0z0aXhdK+PsRWYtjotC/vK0vSRo/v68Otl7zbd1x5kvqkD5F2JFBXAlUQb8f/6Vbzwxe3WN9vOMS+7ADnvPjmjYEESIAEkhKIFW8QJb5LxEcodtvAzi3Tebcf1EmZL63LpG+xlzjOxq2XdjqGTdJLt5N03BhR9UkfIu1IoK4E2i3e8Mry2KPfNO/uPWM3Lzyy+pDBSQxlBjjnvbhvY5lDciwSIIGaE4gVbyJCdBwlOGAnYkfa+Ox9ZSF711byEsuY0l5iqdcx0lGXtJVY2ko+FMfZhepD5RgnFHp66FIgxIbl9SLQbvE2da7fnHjmDivYHl1z+Nru009GSoUI57xTFwZLHZODkQAJ1JtAk3iDkMh6aVEjfUiZT6D4ysRex1F2Uiexboc0ynWdTku928bNSx9JYretzidpr23QNhQo3kJkWF43Au0Wb3DQO/zafIsNr0xxdNa8l/aaM2NXSkGJ++9ffEspY3EQEiCBziHQJN602EAaYsItiyrXdbqtpCXWdm5a8rD1XaiXS/qTWJdLWylD7LPT9b6028Zn4+tb20X1EVUnPzNXrLl5sWNMAnUjMDl00Ay+cHfbpj2661fmzPpFjfHf2HHSrr5hFQ4nMRQdxg9uNcOr7i96GPZPAiTQYQSC4s0VFXF5LVZcMSNtJQ7VR/XhthFb3aeUSezWSR6x75J2OvbZhcp0O6S1nVsn9b5yKcNvDULNFWtuvsN+k7ydLiKAc0WHX53Xtjs+9+5Sc+H9FY3x4S4E373Bee+qbcW/yhzdvpKbFRr0mSABEkhKwCveIDpEQEictMxnL20lhk0o7WuftixkL2NKLHaIfWVJ6uPahfpO0k6Emxsnfbi0I4GqE2i3eBtZvXDWZoGhC5Nm/vJ9VsDtOjpaKEIciTX20dpCx2DnJEACnUegSbxBUGhRIXlfLMJG6iQvsZRL7IoYlGtbSUus27lttU2ozlcuY0os/YRsZQ5pY91vqO84G9QjiHDrvJ8e74gEjGm3eIN/NfhZcwOc92L1DSKuyO/f8MqYJyu49JknARKII9Ak3lxBofM+waPr3bS2l7TEsA2lff1oW10v5RLruqgxfPa+Mt1fqD5UHmobZe/WycPja1IhwbjTCLRbvPU/cbOZnvjCi1XOPi3y+7fjj91oZibHveOzkARIgARCBEoRbyJkIE5Cl9joWGxR5gqbqLzUSey2R7nv0mPrtO5Hl7v9unWSl/a+MX1l0i700FhOAp1CYKLvw8Zuz7Lv6erY6cidnkV//wY3JQNP3172bXM8EiCBDiDgFW8+QREqE6HRSoy+dXsZS5chLXYSh+q1rZv25UNlUeWoS1IvdhKH5u6r74DfF2+BBCIJjO3ZYE6/9fNIm6IqtZuQ0BhFfv+GnaaneheEhmY5CZAACQQJeMWbCAnG192StINF8KmxggQ6hMDoztfN2beXtOVukh5LVdT3b9hpit2uDCRAAiSQlgDFm/Ib1w6BFjVm2odJexKoG4HzW142uNoR7E7Pj9clGrqI79/s+Hs2JBqfRiRAAiSgCVC8Ubzp3wPTJFAqgTMbFrfNVYbd6Tl0MNH9wmGvHJ+Vl/+3wefuMnBSzEACJEACaQlQvFG8pf3N0J4EciMwsvbhWX7Wcus8qqOZaXsg/czURJRVUx1choj/N7xKbSlkGL+l8diYBEigowhQvFG8ddQPmjdTLwI4XQHuQsoOU2f67IH0aceF017x/4bNDFkDxudO06z02I4ESKAh3oiCBEiABMomkObVZZ5zG9+/yYy8/mCmLvHaFAIOx2jBnUiWMP7pZu40zQKObUiABCwBijf+EEiABNpGAKtPV0eHSx//3HvPm/Obl2UaV3//ho0MWQLOU+VO0yzk2IYESAAEKN74OyABEmgbAZww8NXVqdLHh381rH5lDa1+/wbfdmMJd7pmnSPbkQAJdC4BirfOfba8MxKoNoGvP9pvxyRxLBZOWGgltPL9m/3Wr+/DVoZnWxIggS4mQPHWxQ+ft04C7SSA16Xt+Gg/z2Op5Pu3Ba8eMBcuJV9BxH1PXRhsJ36OTQIkUGMCFG81fnicOgnUmcDlgb1maPl3Sr8FHMkFB7l5hOmZr8zSd47ZDQwPvXHIXJ6aTtTtsUe/2ZbXxYkmRyMSIIHKE6B4q/wj4gRJoDMJXNy3MTcRlYYQHAOP7vpVmiaRtthx+sSbR6yAW7zuqMGGhqiA17UDS26NMmEdCZAACUQSoHiLxMNKEiCBogjYHZfvPV9U98F+cbLBlZEjwfosFWOXvzRYeYMLkRc3HTdYkQuFdq04hubDchIggfoRoHir3zPjjEmgIwjYHZcfrS31XmYmxw02KxQRTo1OGnz7BgH3xo6TwSHateIYnBArSIAEakeA4q12j4wTJoHOINCOHZcTR3ea4VX3Fwbw2OmJxhFa7+494x2nXSuO3smwkARIoJYEKN5q+dg4aRKoP4F27Lg8v+VlA/FUZNhz/AvzvWV77Qoc3Im4Ad/cjZW84ujOgXkSIIF6E6B4q/fz4+xJoLYEjj3yDWNmku3OzOsmh1+bX8pZqls/PWfFG0Tc4aHxpulj5Q8rgAwkQAIkkJXALPF2ww03mCSXHnDbtm2J2sydO1c3M4sWLUrUDnY6zJkzJ1G7vr6+RjOkk9wX+taht7c3Ubt7771XNzPIJxkP/euQ5d50e0n39OTjCkH6Y0wCeRKAj7OBJ2/Ls8v4vmam7fduM1MT8bY5WKz7cNgKuPnL9xl9iP3gs3caHEzPQAIkQAJZCcwSb1k7YrtqEaB4q9bz4GyaCUz0fWiGVtzXXFhwzu7yLHlMnH2KDQzaiS+OBCtLQBaMlN2TAAm0iQDFW5vA5z2sK9bcfN7jsT8SaIUAzvUcWftwK12kbovv3XCVGeAy5KkNn1sBB1ci4xfOmP7Ft5Q5BY5FAiTQgQRmibckr/pgowNfm95gX5NqJmW+NoVQc8Wam9dzY5oE2k3g3HvPly6kcJoDVt/KDnDi++iaw1bAvdT7thlcdk/ZU+B4JEACHUagWYV12M11w+2IcHPjbrh33mN9CYy8/qAZ/3RzaTfQ8O9W8gYJuUE48V3Y+5l55Ok3zIdP3hPpxFfaMCYBEiCBEAGKtxCZGpWLcKvRlDnVLidQ9kf7EIoQjO0McOL7wtIXzFtP/EOkE992zpFjkwAJ1IMAxVs9nlPsLPmaNBYRDSpC4KurUwYHs5fpJqQqvtWO/vafzdrFP7CvUKNOYajIo+I0SIAEKkqA4q2iD4bTIoFOJYBzRXG+aJnBOgQ+11/mkN6xsGHi6L881ziFgQLOi4mFJEACMQQo3mIAsZoESCBfAvZsz9UL8+00ojfrU+7p2yMsyqs6u/EpM7rzdXN0+BIFXHnYORIJdBwBireOe6S8IRKoNoFz7y4tdacpjqI6s77Z0Xe7CJ1+6+dmbM8GOzwFXLueAsclgfoToHir/zPkHZBArQic6l1Q6k5Tu7N1/6ZKMHKPxqKAq8Rj4SRIoHYEKN5q98g4YRKoNwH7/VlJx0Nhc0T/EzcbuAqpQhh+dd6ss1Up4KrwZDgHEqgXAYq3ej0vzpYEak0Ax0KVudN0/OBWg8PoqxIgXK+ODs+ajhZwL/+238CxLwMJkAAJhAhQvIXIsJwESCB3ApNDB0vdaYojuHAUV1UCjsa6On7eOx0t4BavO0oB56XEQhIgARCgeOPvgARIoDQCZZ5pKq9Mpye+KO3+4gY69sg3Ik1OnLtsD7HHYfY4CxUnMzCQAAmQgEuA4s0lwjwJkEBhBLDrE64yyghVe2UKEYnv7+ICTmKAcIOAw5FayDOQAAmQgCZQKfHmHngvEw2VS33esR5Pp9OO47Z182n6a6Vt3DihvtOWh8ZppZ9Q29BYofJQP6HyUD9ueavt3f46PQ/nvHh1Wkao2itTfOuGb96SBKy4yWH2C149YI6dnkjSjDYkQAJdQqAW4g3PIu6PJOrdS9q55ZIPPWPUS9BpKUsau23dfFQ/rm1cXvcF26hL2yLt9i31aculndun7ieU1m11WttLvygLXbqtTrv9JK2TMbW9Tkf1q+2YNgabFY4/dmM5x2LNTNtVriq9Mr08sNcMrbgv8U8Bmxbw7RtW4OYv32c+G7yYuC0NSYAEOpvAdZVSgfuM+kMYVYepu/Vp8/r2dVud1jZJ0m5bNx/Xh7YPpaP6iGoTVYc+db07RlSdthU7NxYbKZe8L3Zt3LxuE6oLlUvbuHrYhWxC5dI34+sEJvo+NEPLv3O9oMCUHSuFUCpwKo2uJ47vNnAVkiZMz3xlXtx03Aq47y3ba3b3jaZpTlsSIIEOJdAk3ubOnRtc0cAfKdQXGfQfQqTjLj0X3RblafPSl69d1DyknS/29eWzS1Lm9pW2jdte53Ua/SLvu2TMqDqx0bHbv9Ql6cdt6+alL8ShOrcc+bhL95umb7cd89cJXHh/hcHxUGWEMr+tS3o/WcQb+oaA691+0go4rMKt/+hU0iFpRwIk0KEEmsRb6B77+vrsH7tFi/I/Ysb3RxTzcP/gunNz61vNS/+6H0lLLDah2LVLm0e/aJP2SjKfqLlE1UnfYiOxlMuc3TzsQleoTVwf0i7Ub9zc4ur1+EnTvj6Ttu02O3vSwaebi79tvDKFS46x08WPlWKErOJNhnhv31mD1TcIOPqCEyqMSaA7CSQSb/fee2+smMoDn/whlFj6jMvDLspG10laYhlD+tDlkpZY24bS2lanpX/dzq3XdZIWGzeWejeGXdyFNtKfm/bldZluh3IEX5kul3qJdZ3tIEEfITvdp9hIjDr3kjrEbls3r21D6SxtQn11erkVVB4HtXnf96XDH6R+PZn3HHz9TRzdaXA8VivhwImxxoH2j/36CF2JtAKTbUmgxgRixVuRq24ut9AfwlC5bg8b90K9r62vTGylTmIp12NFpaPaRdX5+gzZ63JfOynTdjqNep3XabdO9+Xa6TpJS6xtfWldhjZu3tePzy7UTtpL7Nq5eZ8dbPQl4+uyUFr6Y3yNwNSFQTOw5NZScIysXlgpx7xy0ziQHgfTtxrgOuSn/3zQrsBhJ2r/We5EbZUp25NA3QjEijf5Dq6MG5M/hBhL0lGxnhPsdND5UB8+e91O6n3tpc4XSx8Si43O67TU69itj8vrtkinsU9iq210OslYIXtdrtP6XqRcx0hHXbp9aH5R7WUs3Y+vzNe3bhNK9/T0hKo6tnx8/yaD16ZFB5xhas8ynaqeoMlLvIHh+OS0WbL+cyvgsBN111FuZCj6t8X+SaBKBJoVjzOzbdu22T+SRXzr5gzV+GPsK9dlSf+Iajudlr50WSjts5WyqFj6k1hsJS+xlOsYdVH1rq3O67Tbh5uHrZRJLO2R911Sr9u6aW2TtM4dX/ch85Ay19bNi53EUfW6LpSO60e3E9u4uBvF29m3l5jR7Svj0LRcb09wWFNNcZyneAMobGRYufVEYyPDqm2D5svpr1pmyA5IgASqTyBSvJWx6oY/fvIHUGKNzS1z82Lrluu8Tofso8p97cXeF4u9xGKDvFsmdXFxmnYhW1951jLdTqdxH8iHLn2f0k5it076cMuj8m6d9CGxWy953xykDnGoPlSu27pizc1r205NDz57p5kcPFD47cGPGr4tq2LIW7zJPeqNDHDse2bsilQxJgES6FACQfFW5qqbsHX/ELp52PnKfOXaTqdDY0WV+9qLfVTstnPzblvUZ72kr6gxouqkPWKfna9M2oTq3HI3HxpL+vXVSx+IfZdu62uv66WvOLuoet2H7lvSEGquWHPzYtupMXZ99j9+U+HOeRvf1c1MVxLl6I5V5ty7SwuZG757w1Fa4tCXr1ELwcxOSaAyBILiDatuc+bMKXWivj+E8gcaE/HVywTFTsdRdaG+fOW6T52W/kOx25ebD7Vzy6WdxG69Lw/bpJfb3jeOr0za+epaKZN+Ebv9SF7iKFtd50vrPnQ6zlbXR7UT4ebGun03pLHiVMb3bue3vFyYOMrjOWF+uIoKl6emzXMbj/E1BlLERQAAIABJREFUalGA2S8JVIiAV7z19vbaP5qIywxRfwij6vKco28cX1mSMd12br6sPmScpOP77HxlUf3CXrfRabedr861cfO+Nr4y3U7X6zRsdF6ndXvXzpcXe4lFuEm+G2OcMVrGYfQnnrnDXBk5UlnERYs3uXG+RhUSjEmgcwl4xRtW3OJW3eS1ap6nLvj+aAK9lEvsexy6Tqd1e2nn1ku5zzZUptuE0u44bj7UTspD9qFyaReKk7aDne/K0q/042sr85E4ygZ12k6npZ1bhrxcYiOxzzZUh/Kk/UgfOu6216T63pGGi5Cpc/1uca55nBs6+MLdufaZd2dliTfMG69RxZ0Id6Pm/STZHwm0n8As8YadpfhDFbfqlqd4kz+kEmssbpmbF1u3PG0+1A/K3b7EVsewyXrpfmS8uDFlrFBbqU8TS1++sd0yyUssbXWMOqmXWOqT5rWdm0bevaR/iXWbqDLU6b7EVmJfP9JGbBjPJjB1pq8U/27wn4ZvyqocyhRv4ICD7XESA76Dw4UzUvFqlYEESKD+BGaJt3bdkvvHUf6Q+ubjs3Xt4mzcemnvK/eViX2eMcZJO1aWNnnNOTTX0JzEXmJ3Hm65zus02rn5UFncGG592rxvHmn76GR7vC7NwzFtFKPpiS+sbzfEVQ7ggO//yg47Dp1vnMrw4GufmX391eZUNh+ORwJ1JFAZ8VZHeJwzCZBANAEcB1W0YIH/OHxXV/XQLvEGLmcvTjWc+mIV7pUtJ7gKV/UfDOdHAhEEKN4i4LCKBEigBQI4IP7xm4o9IH5m2gw8fXspPuRaIGGbtlO8ydzf3XvGzHvp2uH2WIU7PDQuVYxJgARqRIDirUYPi1MlgToRmDi+28A5b5EBh9CffOmeIofIre8qiDfcDM5GxaH28i3cGztO2u/jcrtRdkQCJFA4AYq3whFzABLoTgLnNy8zOBaryGBfy368rsghcut7ZPVCM/7p5tz6a6UjHK21/qNT5nvLrq/C7TnOb+FaYcq2JFAmAYq3MmlzLBLoIgKDz91lJvo+LOyO4X4Eh9B/dXWqsDHy7Hj41XkGq5FVCifOXTZPvHl9Fe4Xv+nj8VpVekCcCwkECFC8BcCwmARIIDsBHFXVv/iWQo/EOrvxqUqfqODSq6J4kzluP3jePPDKAfsqFd/Ebdg9wkPuBQ5jEqggAYq3Cj4UTokE6k4APtfwjVdRAattWHWDSKxLqLJ4A0P4gFu59UTjWzg4+T1wYqwueDlPEugqAhRvXfW4ebMkUA6BoRX3mfGDWwsbbOyjtQbfu9UpVF28CctjpyeaNjQsWf+5wevVbg2H+r8wa347YHpe2GO+9bPt5j/N38yrwxj81U+3m58994l9zp8eG63FT53irRaPiZMkgfoQuDp+3roIKfJbNHxPh52mdQrYeVv0MWF58cCGhq2fnjPf/+X+xkocTmg4M3YlryEq38+ly1fNohX7zR0Pvm/+8sfbzLd+ss3c/bMPzD0P7eDVYQzu/tkO+3zv/PE285c/2WYeeuETM3ap2t/SVk68aY/1Op32X7rb1s2n7S+NfWisULnbd5RdVJ3bD/Mk0A4CYx+vMyNregobGit6EG91C/BHd3V0uFbTxqvUdR8ON3zDYXcqXq2OXf6yVveRdrJYfblz4XbzVz/ZZr7ds4NXlzH41sLtVrB/cvh82p9OafYUb1+jhihKe4WeUkhghcrdfkLzgF1UnduPmw+1TTovtz/mScBHAK8zL+7b6KvKpQyvZIs+tSGXiTqd1FG8yS1ArK3aNthwLYJNDWv/MNyRpzRgxQ2rL9dW2nYYrMrw6j4G3/rJdnPHg1sruwJH8fb1/zvlJWCi+omqk/+T1DY6jXqd12lpKzaocy+pE1vdXqelnjEJZCEwMzVhNxIgLiLA1cbAk7cVuou1iHmjzzqLN2GC16Z4fSoOfvFaFSKuk1biHl+x3666/M3Pdhhe3c3grxZuNw+9sEd+/pWKveLN/cM/Z86cUibtigh3Hm4+alK+vtLYh2zdfrWdOz/Ji43kdSx1iFHuBimTWNf7yqLqtX0ordszTQJpCYzv31ToRoKR1x80OOy+jgGi8+rY6TpOfdac+89ONJ2VipU4rMzV/Zs4bE74rz/aav76px/wIgP7G8D3jlV8fdqkFrZt22YFxL333tv0jxXiTf+xb6rMMaPHkLTEccO4dnnnZXy3XylH7KuTMonj7HW9Tvva63pf2m2DfOjytWcZCaQlgAPi8c1bEeHKyJFaOeV1GRx75BtuUe3z2Jn63MZjjZU4fBP38m/7a7s7ddXbx8x/+9H75q6FH/AiA/sb+K8/fN+sWP955f6tNok3iDb3Dz5m3NfXZ8sXLVpU2A2IqJABZB4SS3lUrG11Gm3S5pO0cefijqH7iKrT/cAuy6X7kLQ7ps6H0tKWMQmkJWBfmS6+xUxPFHPMEvzGnd/yctppVcLesnn8pkrMpYhJ4LzUV7acaGxswGtVnNawr/8Lg52rdQk/WfqJFW/f+skHhhcZ4Ddwx4PbzIKnq3UyCv49ecUbxJoOsiLX29uri3NNi2BBp1mFRVS7qDp3TH1j0k5iXeemfTYo85WHxgzZumPpfKiNW67zobTul2kSSEMAmxTwWrOIgF2a/Y/fVJgwLGLOuk/MH9+8dXrAt2846F67GHnwtc/sOaoXKu56Ac/m9h/CLQh2mX7Aiwzsb+DOH283f7GgOJ+VWf8/oUm8yQob/rBroTZ37lxT5HdvIiQk1jeDMvfS9W5a+pBY6nVep331Uiaxz17qdOyz02U6jXZRedRFXTKu24f067YNlYud9OeLe3qKc/vgG49l9SQw/Nr8wg5ex1FYuOoaJocOmpMv3VPX6aeeN1yMvPPJiFnY+1nTK9Wl7xyr9GocHPD+5Y8/4EUGTb8B/C6qFprEm0xOvnGTP+zuN3Bil0esxYdOS9++MqnzxWIvsdhIXmIplziuPFQv7RHDxne5NpKP6jNrnfQt89F5nY7qX9shTfHmEmHeJWAd8y6+pZBD4vEaFqtudfORphlhlyxOWOjGgCO2sEMV38PJLtWqrsbhj/QdD+JVGS8yuP4bqLx4k5U3EWuSxx/6Ilfe5P/QfILCVyb2vljsJRYb5N0yqUPsq3PL3Lxun6WPqP5QF3W5Y/vycf372qDMFWtuPtSO5d1LADtAz6wv5ptYfOdW5DmpZTw1+KXDZo5uDuOT0+bdvWfMQ28caog4iLnF646aDbtHKrFTFX+k/9uPPuBFBk2/gcqLt9DrUbxChRAQUVfU/wH5xIavLMn4bjs37/bh1rt5sQ+Vo95X5yvL2pe0Sxq7YyMfuqRPCDVXrLl5sWVMAkJg8IW7DVaX8g4zk+Omf/EttTqA3scAZ7EWJW5941W97PDQuFm+ecDMX76vScg9uuawFXLtOkuV4o3C1SfeKy/e8IcdAs4Xoup89lnKMIYb4sSGay95ty83L3YS63qdlnqJ09altdfjoG3UJbahOO3YItzcONQ/y0kABHBep3WcWwAOrLrV+Vs3QYL7qOtOWbmHIuIvp78ye45/4RVyWKGDA2C8dr3y5UwRw8/qE3+k/+KH23mRQdNvoPLiDa9GQ69HIQS6aeVt1r/qBAU+seQrk66y1qF9VFvdP+x8tr4ytBPhJn0wJoE4Auc3LzO48g74jm5gya0Gcd0DBOjojlV1v41C5x8l5PC93BNvHrG7VrFqB9siAv5I//mC7bzIoOk3UHnxJq9H3dU35PHHXrsQEfchrm0r/6B8gsJXlmQMt52bd/uIq3ftfXn04bt8tiiLGjOqLqqtHj80blR71PE1aRQ51rkEsOo2dabZvZBrkyVf9x2m+p7xzV4dz2PV91BmGuIMK25YeYNok40OEuNEhyXrPzfrPhy2K3d5neyAP9K3PbCdFxk0/QYqL97wj1NvUhAh4BNoVRJvMs8ssfwfUpa2aKODm0edWyZ5iXV7nUZ93KXtddrXd1xfvja6T6ZJwEfg8sBeg+/d8g6ye7UTVt3AZnjV/Wbi6M68MXVNf3A9gter8CGH7+JExOkY389h80Pv9pNm+8HzBkd4nb04lYpRJ4g33HBaARrVJqouNE6WNqG+qlBeC/EG6O0KPgHhK2vX/PIaN8k9xdnE1ec1V/ZDAlEERtb0mNFdv4oyyVSHVbdO+kYMbkKK2NCRCW4HNIKY2903alfecDyX9ienBZ2k4ZrksV8fsUd5QdzBB93OIxcMXsHKhdW7Wx/YYm770Q7zXx7Ybv7zD+p54fH65h4qh21UXZL6tOP57KtcRvFmfyL8HxIggU4gYFfHHr/JYEdonmHqwqDdYZp3v3nOMW1fOF2hzn7q0t5vO+wh6I4OXzK/O3DWrNo2aMXaglcPeFfpRNRFxd9Z+rG59f7tlb/iWOMeEKLupdV6X99xffraVLWM4s3+hPg/JEACnUBgdPvKQvyv1fkM09BzhbuTTnkFHLrHKpfj9SmE3a6jo9bX3JrfD5mXf9tvv5vDt3O4sHr3d898bCDa7n3+Exv/2fe3m7pdeA56zm5e10la2yR5jrpdEnufjfRRh5jizfcEWUYCJFA/AjPT9qxOHPuUZ8DGB2yA6KRVt6+uTpnjj92YJyb2VRAB/JH+T//v9lpfQCP3oNNSJnEIodRLHNWH2Og4rb1uW9l0XY7HCj1UlpMACZAACFw6/EEhZ3XifNSxj9d1FGT4wRt89s6OuqdOvZk6ibdWnoErktCXW4a8r9xXptvG1Wvb2qQp3uxvgf9DAiRQcwKnehcYnBqQZ4AgtDtXZ6bz7LbtfWGXKUQpQ/UJQLz9P/O31/4C6aT3IU/Ftff14StL0s61qVuer03lV8KYBEigtgTw4T2+4ZqZmsjvHmam7epUJ+7I5NFY+f1Miu4Jf6Rv/ofttb7AKM09aKbSTpfptNRHxdreTUe103XwNarz7U5TvLlPknkSIIHaETj33vPm7NtLcp033I2MrF6Ya59V6Qy8Lry/oirT6Zp5wNEv3H/AFchngxfNjkPn7QUfcOs/OmUvOPl9ZcsJe+Gs1bv/50fmb5Z8bO7+nx/bzQvYwIDrpnnbK38lebDufaANytw4ZOeW+/LSl1sXKnftkId485W3q4zizf5E+D8kQAJ1JYCP73FkVZ4nKmBzgu3zwmBdsUTOG77wLu7bGGnDyvQExienrSNeOO99b99Zgx2kL2463rKLEJ/7kD+dt91U+QI9mZ9OS1koFls31vZSJ2VuXsolDtWHytEOYk3a+/K6rh1pijc8PQYSIIHaEhjfv8kMLf9OrvPHKh5Wpzo1DK24z+AkCoZ0BHAYPU5JwIoZVspWbj1hntrwucGB9TgeyyeydNn3f7nfPLL6kFn6zrHG6hpOaJBVNwg+WY2DAMQK3Z//+H1zywMfmJu/f+36v+dvM//x76t9garMUaelLBRrW50We5QhSB6xm9d1kg7ZhMoh3HBJe8RuXte1I03xZh99+v9Jc5pAEts4m1B9qFzfURIbbc80CdSJAI55goDLK2AnZqe5BnHZ4P6ujp12i5lXBLCKhrNM3917xvpfg+jSQsyXxqkJOA4L/tpwBurWT8+Zff1fmKELkwYOe7ME/JG+8Xvv1+bCPer5Rt2ztnPTuh/pI8rGrZO87kfKJPbViXBzY2lTlZjiTX4VnjhK9ETVuV3F2aJeLt1Wt0uS1m11WrdFuYwVinVbpkmgygSujByxQsvkuBsUYrDTXIM0PcOZaXPskW80FXV7Bt+hydFWWBWDCPOJM6yu4UgrrLht2D1iV8mwOpb2vNI0vOsk3nBfScVNnG2r9TKPqH5CdSLcpI8qxhRveHoRwRU+Yhoql3od+2y1cNK2blraurHYSbnkfbFr4+Z1m6g6bcc0CVSBAE4+GN35em5TGf908zVfcTmKwdwml1NHOOoLR2N1azg1OmkPicfrSqyS4VWmT6ihHK9EYYczR7F6Nj3zVenYrHj77lZzY4ddABl1T1H1UidxqJ9W6iHgQv1Wobw24m3OnDlNK0aLFi3Ccyk8hMRMqFwmhPrQJTaI4/oR25CdbwxpI7Hb1s2LHeKoOm3HNAm0m4A9xxTuQXI6x3R64gu7SQGreZ0cJvo+NDiUvlvC2OUvrfjCDs7QihrKcZg8vj3Dt2YXLk1VBk8niTdAhfCROEoE+WxsQ0f0+eyixhB7iaPmUOW6you3vr4+KyjuvfdeeW5m27Zts8oalTkkfAIGZXFXaGhff2IbqksyltvWl3f7wbhumZuXuTEmgSoTwIaCc+8uzW2KcAvSyZsUBBReCWPFslMD3HHgWzXs9Hx0zeFZq2o4GB4uOPAtG9x1ZP0WrSx++CM9974tHXOBW5L70XbCOtRO28LGzbvt4upd+yrmKy/e5s6da7Dq5gasvEF0QMgVEdC3DmnzaOuKIrcPn40eU+p9sS6TNr7+k9iF2km/jEmgagTgjDfPg9XHD261DnnhdqTTw/nNy8z5LS931G1iB+g7n4zY15zurk/kf/GbPivW8OqzbgF/pL953+94kUHTb6Dy4g3CQq+6yT88WZEr6vWpK2jS5mWeiN22UoZyX5201XW+tC6TPqWtjuPs3HrdlmkSqCIBfOeW1+qR9en29O1mcvBAFW819zl1go83bBCAY1vs6nzglQOzVtewqQC7PbGyhpW4docsznmXrP/c4Pr2kx+Ze37xceP65n//neFFBrUVb/jHCNHhE3Z5/kMVYSOx9J0kDxvfJX3IPei8pJP077Z327h9Sb1vTm6ZtPXF+JCTgQTaRmBm2n5wn9e3aRCBeb5+bRuXhAPjrNbJoYMJratjhu/Q8KrT9yoU36zhm7ZdR0cNXHyUHcp0zvsf7t1seJFB5cUbXpn6XpviHycER1XFm/4/DxFNukzSUXVJbKS9xNJGx6jT9ToNOzev2/rSFG8+KiwriwB8uuV1qDoOnsfOy1zPRC0LRMZxjj92Y23uF6IIvtKwK1TvCJ2/fJ91dPu7A2cNdo8WHdrhnBcuSE6cu2xufWCLuXHeFjP3u5vNn9z7W15kYH8DlRdvvb29XpEm37wVKd60qEE67vL9H4huE1cvtrCTtC/W/aBe7HW5lEl7XSdtpMzNS7nErlhz82LHmATKIICVo4mjO1seCoINwq0TD54PwbEOiCvuJgRCCa458J3a95ZdP7UA365hRyjqYFNUqIpzXrk//JH+k+/8lhcZNP0GKi/e8AOW3aUiRBBDtCEu4ps3PY78A0KZDnF5sZW+kJc2Uiax2PpiaSN1bl73KzZu7LaRPGLfpdtDqLlizc1re6ZJoEgCdmPBC3fnMgSOwMr7MPtcJlZgJ+B3qndBgSNk6xrfhMFFB84B1RsOIN7gaw3ftxWxK7TKznmFJP5If+M77/Eig6bfQC3Em/yIdSwrcti4UFQQkYP+dTpJXttIW4n1fH1lUu+rS1omfeh5SJn0IbGUu7Yi3NxY2zNNAmUSwKobBEirAatt9gisqYlWu6pVe+wyrcr3fXB4iw0F+FYNr0H1a1G8JsU5n3l+v1Y357zyw8If6X//d5t4kUHTb6C24g3fwRX5yhT/cLS40Wm3zpfXZW5b1Elw63QeaTcv7SSWeomlXMduneQljrIV4aZtmCaBdhDIa9UN7kBOPHOHwfdu3Rbgy25sz4a23jZWu3BqgbtLFBsRsCEhLwe5dXfOKw/Jird7Npl/z4sM1G+gluINosO3iUFer8I3XB5BixudRt9p8q6tnptb5+ZlLF+51OlY9y1p3TaU9tlKGV+TCgnG7SSQ16obVp7ycjPSTh5Zxh587q627DTFKhsOaMd3bHqF7af/fNCeEQpB12roNOe8wgN/pP/4nnd5kUHTb6AW4g1CDaJDLrwy9YWixZuMH4p9c0IZ7EPBrfPlpUxi6StpXtu5aeTdS/pnTAJVIZDXqht8udnXpTkdqVUVPonmgQPpH/1mqTtN8doTq2kLe68f9I4zQ3u3n7RnhSaad4RRJzvnldu24u1v3zV/zIsM1G+gFuJNfsTtjLXo8c0jqj6qDn35xJOUuWNJXxKH6qVc2+m0jCt2Ers2Us6YBNpJII9VN7wuHXz2ToPD57sxTJ3ps6+Ly7h3iCp8y6Y3Hzyy+pCBa49WdorWzTlvHqxve2CL+eO/3Wj+6Nu8yODabwC/B/wuqhbCy1RVmynnQwIkUDiBvFbd8LE+vvnq1gDROvL6g4XdPl5bwo0HTjeQV6PYLYodpNiYkDVU2Tlv1ntK0+6Bp3abb/zdRvN/ffsdXmRgfwP4Pcz/pw/T/IxKsaV4KwUzByGBehDIY9UNpzEMLLnVTE98UY+bLmCWdqfpe8/n3jNWw3AUld6AgMPf1304nHnzQVWc8+YOK0OHr/7L5+bG+zZRuFG4NX4D37x3k3l+zeEMv6Zim1C8FcuXvZNAbQjksuo2M20gAC/u21ib+y5iolh1xOkUeQV4/1/6zrEmR7pPvHnEHlGFVbi0od3OedPOtyz7fZ9fsK/I/s+73za8yAC/Abwy3fXp2bJ+gonHoXhLjIqGJNDZBCC6WnXpcX7zsko6pi37yWGnaR7nwUK04aQDeTWK79pWbj1h8J1b2tAu57xp59lu+58994m58b53zf/xN7/h1eUMsAr7w1983O6fpHd8ijcvFhaSQHcRgD+y4VfntXTTE30f2t2lV8fPt9RP7RvPTJv+J2422LSRNfhEG/y1pXWkW7Zz3qz3W6V2Y5emzO0/3GL++NvvULx1sXj7o2+/Y38HZ79o3bVOEb9virciqLJPEqgRAYgMuPSYHDqYedZXx07b79wuD+zN3EenNMSK28mX7sl0O/DBtnzzQNNKG0QbnOCmCWU5500zpzrZ4jXZXyzYalfg/t1fbzC8uosBVl4h4Kv4ulT+HVG8CQnGJNClBC68v8KMrH04+93PTFuxMrpjVfY+Oqjl2EdrzdmNT6W6I4gtuPuQw+HxejStaCvDOW+qm6q5MVZcfvSLj+03T3/yd++YP/rb35h/99f/Yv73u3h1GgM81z/69m8MnvN/+cHv7KvSqq64yT8rijchwZgEupAAXnFiZ+jV0eHMd48D54t0i5F5Ym1qeGb9osQbNlzRBvEGp7ppVtqKds7bJoyVGRarLy/++oh1F4GP1+GwlVdnMcBzhTsQ7Cqt8mqb/kdB8aZpME0CXUbgzIbF5lwLLi2wqxRnl8502aHzUT8TbFaYujAYZWLFGVbWZKUNMVbeIOaShqKc8yYdn3YkQALtI0Dx1j72HJkE2kpg6ly/6V98i5nJeHwVThHAqh1ihmsEwBKbFULh8tS0WfP7ocZpCGlFW1HOeUPzZTkJkEA1CVC8VfO5cFYkUDiBU70LzOjO1zONg5U2HH+FXaoM1wlgxy24+gJORIBDXbj9SCvainDO65sjy0iABOpBgOKtHs+JsySBXAlMHN997ezNmelM/cIJLV65MjQTwOYPXDoMXZg0i9cdbewg/cVv+hK/Hs3bOa+eF9MkQAL1JUDxVt9nx5mTQDYCX5+CkPXQeKzWwRVGK37Msk28+q2w6jZxdKedKF6R6u/aHnztM7O7bzTRTfj8vGV1zptoQBqRAAnUigDFW60eFydLAq0TgEuPoRX3ZeoIftzwnVwru1MzDVyTRvIN4a6jo02vSHEeKY6kigs+0QYBmNY5b9w4rCcBEqg3AYq3ej8/zp4EUhGA6MIH9diskDaIWxFZWUrbvtPtscP0+DPfMk9t+LzxihSvS0+NTsbeOnaZ5uGcN3YgGpAACXQEAYq3jniMvAkSSEZg+LX55vyWl5MZa6uZaWPbbl6mS5n+mgBW1X775mrz5v+43wo3bEzABoW44Pp5y+KcN24M1pMACXQeAYq3znumvCMS8BKATzbsEDUZNinAFxzEW5a23sl0UCFekeJ7tt7/8WPz/JNP2u/c8L1bVHBFG3afpnXOG9U/60iABDqbQKx46+np6WwCvDsS6AIC0xNf2G/VJgcPpL7b8YNbeeC8hxpOQcDOUbj+wPXR4jvN8YP7PJbXi9BGb2JI6zLkek9MkQAJdDMBirdufvq8964hcPqtnxscY5U24DsufITPA+ebye3r/8I88Mo1n22IP9g7UKhz3ubRmSMBEuh2ArPEm7vS5ua7HRjvnwTqRgCOYweevC31SQrWEe8Ld2d25Fs3TknmixMO8HpTVtuWrP/cXLg0ZbA6GTrftRXnvEnmRBsSIIHuI9Ak3iDUXLHm5rsPEe+YBOpLAL7YBp6+3Vw6/EG6m8AGhVX3m5G1D6dr18HWcOPxyOpDVrjhdec7n4yY6Zmv7B1jVdM9raIV57wdjJG3RgIkkAOBhngT4ebGOYzBLkiABNpE4Ny7Sw1OQ0gb0MauJGXY3JB2rDrYv7fvbOM80p/+80GDQ+F1wEYQcb/SinNe3SfTJEACJBAi0BBvMBDhFjJmOQmQQH0IXBk5cs2h7vj5VJM+u/Ep68QXr027PbibEnDKgetsV/zfgVVW57zdzpn3TwIkkI5Ak3hDU74mTQeQ1iRQSQIz02Zo+XfM2MfrUk0P53IOPneXoXAzRm9K+P4v9wePtoILlv7ehZmc86Z6ODQmARIgga8JzBJvJEMCJFB/Avj+avjVealuZHTXr6wfOKwkdXMIbUrwMcEq3K6XfmKWPrnUfguX1Dmvry+WkQAJkEBSAhRvSUnRjgRqQsAegbX4lsY3WEmmjUPqsSNVvttK0qYTbaI2Jbj3K855P/7HPzM/en5zIue8bh/MkwAJkEAWAhRvWaixDQlUmMCp3gUGrz+ThonjuzOfd5p0jDrY4TXp/OX77Aqab1OC3IP+Du6Hz24y+x77z7M2MIgtYxIgARIoggDFWxFU2ScJtInA+P5NZvCFuxMfY4UTFwaW3Nr1Tnjf3XvGwP0H/LfhgHh3U4I8Tv0dHJzz7v6X1wwcIDOQAAmQQJkEKN7KpM2xSKBAAjOT4/bVZ9IjsPCKFK9b6ADyAAAgAElEQVRKU/uAK/Aeyu4aftqwg1Sc7m7YPeKdQug7uJE1PQaCmYEESIAEyiRA8VYmbY5FAgUSOLN+kYGbjyTBurd48rauFh7wx4YTEiDc8Lp0d9+oF13Ud3A4OqzbN3h4obGQBEigUAIUb4XiZeckUA4BfLeGkxSSuPjAIfVwKuueCFDOTKsxyqnRSfPQG9dOS8AOUdfprswyyjkv/OiBIwMJkAAJlE2gId7+1Q0/NryuMSj7IXA8EmiFgD2D9Lm7zMTRnbHdwHZoxX3m/OZlsbadanB4aNzAbxtW3B5dc9hgA4Ib9KYE2Pmc82JTSNKVTrd/5kmABEigFQIUbx7R2gpQtiWBsgngg/lz7z0fP+zX55V2s+DYfvB8Y2PCcxuPeTcm6E0JUc55IYIn+j6M504LEiABEsiZAMUbxVvOPyl2VyaBsT0b7EqaSXAGqT2vFOecJrAt8x7KGAsbE9b+YbixMQFpN4Q2Jbh2yOM7N3zv1o0sfTxYRgIkUC6BROINU0r7SjVLmyRjFNWvHrvcR8DRSCAbAXxzhd2iV8dOx3aA1bbh1+Z3pdiA24+l7xyzwg3uQHYcmn2CRNSmBB9cHDs2svZhXxXLSIAESKBwAqWJtyR3ogVUVBp9RdVLXZIxxUbaIGYggaoTwLdrJ565I9F3bhBueMWXZDND1e877fwg3BavO2qFG/yyHR2+NKuLpM55dcPhVfcbnErBQAIkQALtIFCaeHPFkYgkXe6mswDRfaC9ziOdpCzLuGxDAmUSgH+x2O/cZqatA1kKtz0GO0qxw9QNSZ3z6nYQwf1P3NyVYlhzYJoESKB9BGaJtyxT0QIp1N61CQkpn50uS5PGXFz7JGWhe2A5CVSBwNhHa+O/c5uZNt38jZtecfMJt6TOeX3PGytuWHljIAESIIF2EZgl3pKIHdfGzeNm3DKdl3qJdZ1Ox9VrW1/a1z5JGWwYSKCKBBJ959blwg3CDDtJ4eLDJ9ySOucNPX9864Zv3hhIgARIoF0EIsUbJiWiSKelLBSLrcSwSxLc/nR7qfOVSf9iI3GSMcVG2khfUs6YBKpCAMdfxX3n9tXVqa5ecYNwe3HT8aBwS+qcN/jMZ6btLlOeqhAkxAoSIIESCATFG8Z2BY3Oh9K6XVw6VC99S73EbrnkEbs2rZTZzvg/JFAxAiOvPxj5nZs44MUxWd3owiJOuCVxzhv3yOHXDd8QMpAACZBAOwl4xRsmpIVRSAi5NmIXuiGxl/4llnZSL3GoXpf7bFstQ/++0NPT4ytmGQkUTgBHWVnREPDRhpWgoeXf6VqP/3HCLYlz3iQPETt3cbICAwmQAAm0k0BQvCWdlAglX4w+pNyX9pWJPeKo+qg66UPbpCmzA3v+h+LNA4VFhROYHDoY6c9t6ly/fZ0au/u08Jm2ZwAt3HAigt5Viro457xpZo3zY6cuDKZpQlsSIAESyJ2AV7yJ0NExRtb5JGndRtJxse5XbKVM50NpsUWcJvjauWLNzafpn7YkkIVA4zu3wDFMlwf2moEltxrsQO3GoIXb/OX7mvy4JXHOm4YZNovgm0MGEiABEmg3gcLFm75BEVQ6ljTstICScl2WxCaLvdsv8hBqrlhz87BjIIEiCeA7t/NbXvYOAZcVOKJp/OBWb303FL6y5YTdnOATbnHOedPyOb95mcHFQAIkQALtJtAk3lqZjIgmtw+3XPJujHZxZUlsdB9J7V07EW5uDDsGEiiLwOj2lcEjrUZ3rLIrbpODB8qaTuXG2bB7JFa4+VyFZL0RrLph9Y2BBEiABNpNoEm8aeHjpjFRtyyUF1uJYafTvnZuvZtP0sa18fWRpAw2ItyQZiCBsgnY16E4t3TcOYdzZtqcfXuJGXz2ToNv3bo17Do6aoUbzirF8VYS4pzzil3aGCIZzBlIgARIoAoEChFvIqJwg760lOlY26LczWvbVup9/bpldvCvBZykGZNAWQQg2PBhPNxS6ABXIHiNil2ls0SdNuzwNM4nhWiDE14cbyUB379FOecVuywxd5lmocY2JEACRRFou3jDjbliTMqkPM3Ni8jTfUiZ9Cd5sZFYl6cZk7YkkBcBCLSTL90z6zs3iDW4CoF4g023BuwkxQHzEG6rtl3f9ak3LuT5qtRynpm2r6ivjg53K3beNwmQQMUItF28uYJKBFQrMRgnbe+zrdgz4nS6iADEGY5f0kFchdiP5QN+3rR9p6ZxrNVDbxyywu2pDZ8bCDaEQoWbMXYFlI55O/VXxfsigXoSSCzekoqhTrCr56PkrOtOAH7aIBJwxJWEsT0bru0o/XSzFHVtLK9EIeDwbRtC0cINY5x+6+dmdNevupY7b5wESKB6BCjebvjxrFW66j0mzqjTCeCgc+xmbHzL9vXGBJRNnenr9NuPvb/39p21K25wwnv24jVxq4Wb65w3tsOEBhDS/U/cbKYnrm+KSNiUZiRAAiRQGAGKN4q3wn5c7DgZAWxMgL822T0KATf86jzrJoSiwZj+sxONDQp7jl8TUVq4uT7eklFPZjW+f5MZXnV/MmNakQAJkEBJBCjeKN5K+qlxGB8BCDYIN9lZKt+3nXt3aVceLu8ywnduC3s/s6tuOOZKQsg5r9TnFeMbxIv7NubVHfshARIggVwIULxRvOXyQ2In6QlghQ2vRfHKFAFHXEHIUSxcZynfueG0BKy2IYSc815vlU8Kq554Ht28uzcfkuyFBEggbwIN8ZZ3x+yPBEggTADfUmFzAjYp4PzSkdULzeBzd/H7NoVsx6HzdsUNrkEuXLr2nVvIOa9qllsSotrd+Ztb5+yIBEiABFogQPHWAjw2JYFMBGamrViDYLMnKTx9uz01Qe8yzdRvBzWCWMMmBPhz2903au8s5Jy3qNvGd4eXDn9QVPfslwRIgAQyE6B4y4yODUkgG4GRNT1meOU/mNFtr1rnr918sHyI4NJ3jlnh9uKm49Yk5Jw31L7VcjjkxStT08V+9VplyPYkQALFEaB4K44teyaBWQRwzNLJl//u2m7SV+eZq2OnZ9l0e4F+XTo+OW1CznmL5ITX2XbTSJGDsG8SIAESyEiA4i0jODYjgbQEcELCwJO3mYElf2ZGt6/kqo4HIHy4ua9LZdOCds7raZpf0dfHYYnrlvw6Zk8kQAIkkA8Bird8OLIXEogkcGH7StO/6GYz8NSfm8nBA5G23Vz58m/77etSCDYEn3PeovmMf7rZrowWPQ77JwESIIGsBCjespJjOxJISACvSo/9438wp9/8R7qdiGCGDQnYoPC9ZXvNmbErXue8Ec1zq4JTXjjnZSABEiCBqhKgeKvqk+G8ak8AfsKGVnzXHHv0m2b8wHu1v5+ib+CxXx+x4m3N74fsd24+57xFz0E2KnDnb9Gk2T8JkEArBCjeWqHHtiQQIIBXbzgT8/hjN5qJ/k8CViwWArJJYcGrB6xwk+/ctHNesS0y5kaFIumybxIggbwIULzlRZL9kIAx9gBz+G/Dt239j99k/bgRTDSBK1/OGIg2vDLdfvC8ESGnnfNG95BTLTcq5ASS3ZAACRRNgOKtaMLsv2sI4FirgSW3mpHVP7WrbnDAyxBPQDYl4LXp2YtXZu02je8hHwtuVMiHI3shARIongDFW/GMOUKHE8Bh8kPLv2OGX5tvRv/whnUHwh2lyR76l9NfNVbdDg+NG9c5b7Je8rHCiQrcqJAPS/ZCAiRQLIFZ4u2GG24wSS49rW3btiVqM3fuXN3MLFq0KFE72OkwZ86cRO36+voazZBOcl/oOy709PTEmbC+CwjgTNIzGxabgadvt3/0sXIDP270D5b84cuq25L1nze9LoVz3jIDnhlOVOBGhTKpcywSIIGsBGaJt6wddVM7irduetqee52ZNmMfrbWvSOF4F3/wKdw8nGKK9Krb7w9faNvrUkwTpynwRIWYB8ZqEiCByhCgeEvwKFyx5uYTdEGTDiGA16EnX7rHwBfY1IVBe1cUbtkerqy6PbrmsHGd82brMVsriG+sunHFNBs/tiIBEiifwCzxluTVImx06OTXphBqrlhz85oF051JAKIN30SdeOYOM3F0Z+MmKdwaKFIlpmeuf+v29scjTc55U3WUg/HYng32e8UcumIXJEACJFAKgWYVVsqQ9RlEhJsb1+cOONNWCVwZOWJGXn/QviId+3hd03mko7t+ZQafu8vAsStDOgK7+0atYHtk9SGjnfOm6yUf68Fn7zSXDn+QT2fshQRIgARKIEDxFgNZhFuMGas7jABeiVp/bUtuNaM7X5/1Ifv5LS/b16dXx8932J2Xczu/+E2fFW+/3DxgY3HOW87o10eBaIN4YyABEiCBOhGgeEvwtPiaNAGkDjGBaDv91s/tN1AQaNhR2hRmps3Zt5eYoRX38ZzSJjDJMzi3FA55/+HlfQ03IXDO246AV+F2RbUdg3NMEiABEshIgOItIzg26ywC+FjdirbHbzI4ImmWaMPtzkzb1TisyCHNkI0Azi6FeFv81uc2xmtTfANXdsArcThVpnuQsslzPBIggVYJULy1SpDta01g4vhuc6p3gT0RAaIt9Bp0ZmrCrrbBrxuFW/ZHDpGGY68g3n6wYr+N4Zy3HWFk7cMGq6sMJEACJFA3AhRvdXtinG/rBGamrVPdwRfutrtH8U0bxFkoQNDBFuKOoTUCnw1etILtR699ZmM4521HuDp22p49Oz3xRTuG55gkQAIk0BIBireW8LFxnQjgVSiEGk5BgK82uPmIW0XD0VdwD4J2DK0TWLn1hBVt+N4Nq28HToy13mmGHuCQF98uMpAACZBAHQlQvNXxqXHOqQhAgOEPdf8TN1u3H0kPjMc5l/gmiuddpsIdNNavTCHc4Jy3HQEiHr8FcbLcjjlwTBIgARJohQDFWyv02LayBPA6DKtl8MOGs0fxbVMaf2w49grCDcKPIR8CR4cv2dW2776418Z7jrfnlSV+F/Ddx0ACJEACdSVA8VbXJ8d5zyYwM22dreIPM1ZWsHsUGxLSBHz7hvZDy78T3LyQpj/aXifwxo6TVrRh1Q3OedsSZqatmE+6+tqWOXJQEiABEoghQPEWA4jVFScwM23wh/jsxqfsSpn127VnQ+QGhNAdYWUOK3XYhUj3ESFK2csfeuNQQ7xt/fRc9o5aaIlX4PjekYEESIAE6kyA4q3OT69b5z4zbSb6PjRn1i+yznSxSnbh/RWpXou66LBCh40Mo9tXulXM50BgfHK6IdzmL99nrnw5k0Ov6bvArmG7USV9U7YgARIggcoQoHirzKPgRKIIYCVs/OBWuyqGV6I44QDfLsHlQ6sBHvbRJ8+3bJVkuD2+b8PrUly920+GDQusgUDHzuG4HcYFToFdkwAJkEAuBCor3m64If3UsrRxKfr6kDKJ3Ta+fBpbX/s8ywqby9f+0vKca6OvmWkzOXjAroQNr7rfiqvh1+bbo4zy8s2F79vwXRz+oOOEBYbiCKzZee1UBYi3oQuTxQ0U0bO8Uo8wYRUJkAAJ1IJAeoVU0m1lERxuG+TjLvd23D5Qr8t02m2r82KHOHRpe5322aPeV46yuJDEJq4Ptx6vniB6sJMzl+ARa3gdCse4E0d3ZvqGLWpeU2f6rn3ftqYn976jxu3WukdWH7arbj/tbc/uXa66desvj/dNAp1JIP4vf5vuO4vgiGojdRL7bitUFyr39SFl0kZiKZc4VI56t07yEksfPltdJ/VoF7pc+7g8/ghCVB175BuNK67NrPqZaYNzJS/u22jgLFVW1ooUa3oOY3s22G/lxj5aq4uZLpDAd1+89sr0rV2nChwl3DVX3cJsWEMCJFA/ApHibc6cOWbRokXBu+rr65slCrZt2xa0D1WEhEVUue4rZOfaIA/bUNB1kg71LeW+vqRt1Hjaxu3DrZO8xNreVyb1qAvVh8qlrRvDoSlcaGjRJmnXVvJ4LYkdnPiWbHTHKjOypseuduH7Muz4w4YDfLcGQRh1PJX012qsX5NCPDKUQ+DU6GTje7d2vDLlqls5z5mjkAAJlEcgqGQg2vAHPiTeINLc+t7eXluWRcDpW04rLNA2ro3US6zH87UXO4nF3s1LuY61jU6HbHQ50m4byUusbXSZ7keXu2md1218aZzricPYjz36Ta9wg4CDA1wIMesfbcV99lXq8cdutK47sLsP5bDBq9Z2fVvG16S+p1tO2aa9Z6x4m/fS3nIGdEbhqpsDhFkSIIHaE5gl3ubOnWvFA/7A4wqJN9hhZc4NKMeVNWhhodNx/YmtxLBHOu4K2elyPbbuX5dLWsZz81KuY7FxY20jadggrYOb13VuWvfj1oXyWDXDN22ywhaK4WMNOzaxwoYTCfLYARqaU5Zyu5t08S2Gr0mz0Gu9zZP/8rkVb+1wzMtVt9afH3sgARKoHoFmNaDmJ69EQ+INYuDee+9VLa4lZcUO7dMGV4y4+VB/2i4uHaqXvqVex0j7LmmjY7HTZZKWPiUfil07yUscaucrRxvdzs372ugyuOgY3fUruzkhJN7SHDul+y46jV2pp3oX2Fe1fE1aNO1w/z9Ysd+Kt5VbB8NGBdVw1a0gsOyWBEigrQQyibcoYZf11akWGELEVyZ1OhZB4ovFTvqSGOU67cv7ytw20r+2DdmEynUfuh8pl3aIfZfY6VjspEz60Hm3TOrcuKenx/rGgp81d7MCBF0VxRte0eJsUmyI4GkJ7hMtL6+d8+48cqG8gY2x31LSr1upyDkYCZBASQQyiTff924y31bEmwiOuFjG8sVakPjSvjL0o8t1v265mxdbXS5pxHGXtNextJcyybsx6qVM27plPjvX3tdGbKx4k4wx9jgqvXmhSoe3z0yOX9sY8eyd1k+cmjaTbSCgnfMeHhovdQZcdSsVNwcjARIokUBlxJvvnqMEhc8eZbqNpJPEsHEv6c8tl3ySOYiNtEEcF7StpNFG2kqsy3x9Stuo2NfOFWtuXtpgByo2M8CZbhUCvrnDEVdn317C1bYqPBBjzNo/DDd2mp44d7m0WfFbt9JQcyASIIE2EAgqiahXo1F1WVfefPeuRYqv3lfmChXYSD8SS5mbD/Wny3UbXa7Tro3k3Vi30WmxkzLJh2Kxi4qlrbbxlUGouWLNzes+qpCGCxCISGyuwB9thuoQWLzuaEO8nb04VdrEuOpWGmoORAIk0AYCmcQb5ok//HlsWEA/WS/h5bZ3yyXvxmgXF1wbN+9rr22SpN0+dBvUST4Uu+3dvLSLKxfh5sZuuyrlcUA9vmvCalsZvuKqdO91mAvcg8iZpmWJN6661eGXwTmSAAm0QiCoXqJW1zBgUa5C9M2ERIe2kbTYSoxynRY7HfvqUSaXrw9fG92nbuPaxuWln5CdLtdpaReKQ7a+chFuob6qUg53JNbp77N3crWtKg/FmceZsSsN4QYB9+X0V45FMVlsqsGGFQYSIAES6FQCmcWbb9NC6JWpuA8JuR0JwfWJi5CtlOs2Oi31OpZ6xHLpeqSlPBS79rqNW4c+3OCWuXnpLyp2+9R5X39SH6qr9GvSmWl7WD12ko5uX2l3wcr9MK4Wgc8GLzaJtzJmB9EG8cZAAiRAAp1MYJaawIoa/qj7LqzG6SCrc9rWd7pC1cSbiBaJcU86re8xVK5t3HSoTahct9c2ktaxpKWNm5dyxL46KZNY21c9jVekg8/eaVfcquYIuOrs2jG/rZ+ea4i37y0r4XSFmWn7Cv3yQAljtQMoxyQBEiCBrwnMEm9lkTl6dNps2/ZlYzik3fwNN/xvkfWuPfIiSq6lw+3Rt6+9DIg6t78k9miPOUh73V/c/fjqk9yPb7yo+/PZY754JlUMTa9I+z6s4hQ5Jw+BNb8faoi3hb2feSzyLcI5uXBhw0ACJEACnU6gbeINYuHf/C8TZvXqKXshzXx7eWhxWoUfPny24egtviKtwtNIP4fnNh4rTbzht4LfCdzXMJAACZBApxNom3gDWAg3irbqiNaq/NhxIgIOsu9ffIs98P7q+PmqTI3zSEFgyfprZ5pis0LR55qee+956y4mxfRoSgIkQAK1JdBW8QZqvteLegWI9bNfJxfJp62/ZGxG2PUru4KC119cRWnr02h5cAg2cRMCIVdUwGt1rLpR5BdFmP2SAAlUjUDbxVvVgHA+7SFwcd9G+7E5nKtW6bit9tDojFHxnZuIN7xCLSqcfuvndqW2qP7ZLwmQAAlUjQDFW9WeSJfNx+4gfeFuM/jC3Wbi6M4uu/vOvl0t3rB5oYhwZeSIPRINr9oZSIAESKBbCFC8dcuTrtJ9zkyb8YNbzcmX7rGrbWN7NlRpdpxLTgTgHkRW3rYfLOa7xeHX5hv+fnJ6YOyGBEigNgQo3mrzqOo/UayOjH201go26wX/4Nb63xTvIEhAhBvio8OXgnZZK+yq7XN30VFzVoBsRwIkUFsCFG+1fXT1mTjcOOA0BHxUfqp3AY+zqs+jyzzT6Zmv7KrbfS/usfH4ZL4+BPEfAnDYzFftmR8RG5IACdSYAMVbjR9e1ad+dXTY+mmDyw98VI7vkxi6gwAOoZeVt+//cn/uN33h/RVmeNX9uffLDkmABEigDgQqK97kZIE0ELO08fWfRz+hPlAul2/supdhRWR8/yaDXaMQbefeXWp4lFXdn2r6+WvxtvSdfHea4j8K+p+4ma5k0j8WtiABEugQAh0t3kQkRcXuc9S2qNN5nXbb6TzsJOg2ulzqOyWeOtNnzr69xAo2fEQOAccdgJ3ydNPfx9CFycbK24bdI+k7iGgBH4DnNy+LsGAVCZAACXQ2gesqo2L3mUXoRLWROon17aJMX26dziPt60NspB/J6ziqnbarS3pmasJuQMDmg4EnbzPwco9VEQYSODw03hBvSOcV8I3bwNO38z8M8gLKfkiABGpJIFK8zZkzxyxatCj2xrZt22YFTV9fX6ytz0AET5pY9xNq59ogHyeg3Ho3H9WH2Eqsx49q59pVOQ/BBoe6WP3of/wmuwHh0uEPuOOvyg+tDXP7/eELDfF25cuZXGaAldwTz9xh3czk0iE7IQESIIGaEgiKN4g2iJAk4g0iD7ZZxZvLLiR+XDudj2sj9RLrtjrt1rt52MaVST3iuEuPXdV0k2B74mZjfWt9vM5MT3xR1SlzXm0msOJ3J6x4W/DKgdxmwk0KuaFkRyRAAjUnMEu8zZ07t0lwhMQbhJorTPIQbyJ8wFWn4ziLrcTSHvmoK8ouri40Jz0HbRMq1zZVSbuCDSttWHFDOQMJxBHoeePauaZ5bVbgJoU44qwnARLoJgKzxJvcvIizkHgTO8SySteqeHPFjZvXY+q0totLh+qlP12PMjcfKpP2UfW+vnS72DROJti/KdYsiwFEGb4nwndr+IYNu/lGVi+kYMsCk23MvJeuna7wuwNnc6HBTQq5YGQnJEACHUKgMuLNJ2x8ZT7usAtdYi99SYxynZa8r0z6kNi1kXKJdT3SoUvso+Kenh5bPf7pZvu9Dz7WziPg+6GJ47vtgd4i1uA3C850JwcP8Bu2PCB3aR/HTk80vnfLwzkvNyl06Q+Jt00CJBAkUCnxFhI5bnnwbhxBhnYSJC0xynVa8ijT5Trt9iX5IuNne/7eroQde+QbRq6042FVDYJsdNevzJkNi+2ZolhZgy+281teplhLC5T2kQRW//6kFW9/v2xvpF2SSm5SSEKJNiRAAt1G4Lq6ce68Ha9NnSk0iSi3LpTXYkvScTH6irJBnXuFxpe+XHs3H2ovK21TFwbtjk4RbDoOtb06ft7A3xoOfcfH3XjVhN15ItTObnzKjH28zkwOHaSrhRBElrdM4MHXPrPibdGbrZ+owU0KLT8OdkACJNCBBDpSvGmhhGeGvI4lLeWSj4pRJ0G3kzIdZ62HcHu850G7Onbs0W82Vtq0cEMaq2U4bgrnhJ586R7r9wr2eKU6tOI++60aXn/ChQdPN9BPhumiCfSfvf7KdN2Hp1oaDr9dnIeL/5BhIAESIAESuE6g7eINQifrJbfhtnfLJe/GIrIkRr1O+/KhMt13XB9uPdpCuC3uWWD2Pfwfg6JNRJxdQduzwW4wwEobXXZo+ky3k8ArW665CMG5pq0658V/nIzuWNXO2+HYJEACJFBJAm0Xb1FUfCInZC+2EsNOp33tfPVumZvP0q/bh5uXuUHAPdzzU/ttGl53ilhzY55iIMQYV4nA5anpxi7T7y3ba1pxzju2Z4P91tPMTFfpFjkXEiABEqgEgVLEm7gSSeJ2RFMJiRxt46Z1G5127ZD31btlbj7Uzte/tkU/vr7cdvLNG/5o4ds17ASleHMpMV9FAu/uPdPYZfromsOZp4jXpf2Lb7Hfb2buhA1JgARIoIMJzBJvrpNeER2ItR832dCg6yWNPnSomnjDPBEk1nOVMrmXuFi31Wlpp8uQDpW7djp/eWBv0+YFbDhgIIGqEXjoa8e8eGW67sPsZ9zidSm+62QgARIgARLwE5gl3vxm7SmF0EkbdBuddvsJ1YXK3fahPNon6SOJjTsGPtyGqw/rh82tZJ4E2khgz/Ev7Krbd1+85pz36PClTLPBKR6DL9xNP4OZ6LERCZBAtxBIr466hQzvkwRIIDEBvCbFihuuBa9mO88UG2+wu/TKSOsuRhJPnIYkQAIkUEMCFG81fGicMglUiYCsus1fvs+Kt5VbT2SaHo5j4+vSTOjYiARIoMsIULx12QPn7ZJA3gRk1Q0rblh5O3BiLPUQOP6Nr0tTY2MDEiCBLiVA8dalD563TQJ5EHBX3b7/y/3my+mvUnUtr0v5LWcqbDQmARLoYgIUb1388HnrJNAqgcd+fcSutsnq25rfD6XuEq9Lz727NHU7NiABEiCBbiVA8datT573TQItEth55EJjg8K8l67tMj0zdiVVr/Z16bN38qzdVNRoTAIk0O0EKN66/RfA+yeBDARweoIcQP/ie8etiPvFb/pS9STOeLm7NNK2tjIAAB/NSURBVBU2GpMACZCAoXjjj4AESCA1ATjhxeYEvDYV57z7+r9I3s/MtBl+dR7PLk1OjJYkQAIk0CBA8dZAwQQJkEASAmcvTjXOMN2457QVcQt7PzPTM8k3KoxuX2mGX5ufZDjakAAJkAAJOAQo3hwgzJIACUQTWPrOMSvYlm8eMLJR4b19Z6MbqVoc7wZnvHhtykACJEACJJCeAMVbemZsQQJdS2DHofNWuMElyO8PX0vDv1tS9yAzUxPmxDN3mPGDW7uWIW+cBEiABFolQPHWKkG2J4EuIXDh0pSBaMO3bhBxWVbdzqxfZM/n7RJkvE0SIAESKIQAxVshWNkpCXQeAXldilic86ZxyituQbD6xkACJEACJJCdAMVbdnZsSQJdQ0C/LsUKnDjnXf/RqUQM6BYkESYakQAJkEAiAhRviTDRiAS6l4D7ulQ75708NR0Phm5B4hnRggRIgARSEKB4SwGLpiTQbQTg/uOJN68dgYXXpdo57/aD5xPhoFuQRJhoRAIkQAKJCVC8JUZFQxLoPgJv7DhpNyjgNIXxyWmjnfMmoXF5YC/dgiQBRRsSIAESSEEgVrz19PSk6I6mJEACnUJANiV8b9lec+z0hNHOeZGPC1fHz5uBp283E0d3xpmyngRIgARIIAUBircUsGhKAt1CAAfMz1++z666iQNe2W0K57yxAd+5vTbfnN/ycqwpDUiABEiABNIRmCXe3JU2N5+ue1qTAAnUjQA2Ich5pS9uOm6nr3ebjl3+MvaWzr33vBledb8xMwk2NMT2RgMSIAESIAFNoEm8Qai5Ys3N68ZMkwAJdBYBbFB4asPndsUNAg4bFNzdpnF3jNMT8Lp0eiLFQfVxnbKeBEiABEigQaAh3kS4uXHDkgkSIIGOJ7By6wkr3HDkFV6dIsjrUsRxYerCoOl/4maD80sZSIAESIAEiiHQEG/oXoRbMUOxVxIggSoTeOeTESvc5r201xwdvmSnql+XYgUuKuDkhMEX7jZjH62NMmMdCZAACZBAiwSaxBv64mvSFomyOQnUkAB2lmJXKc4t3XV01N5B2telp9/6uRlZ+3AN755TJgESIIF6EZgl3uo1fc6WBEigVQJYZZOdpRt2j9juXOe8cWNgtW3wubsMzy2NI8V6EiABEmidAMVb6wzZAwnUloAWbvjeTYLrnFfKfTG+b8N3blPn+n3VLCMBEiABEsiZAMVbzkDZHQnUhYAWbnAJgtU2BNc5b9T9WEe8T95mxvdvijJjHQmQAAmQQI4EKN5yhMmuSKAuBE6NTjZelWrh5nPOG7onvCI9+dI95ty7S0MmLCcBEiABEiiAAMVbAVDZJQlUmQCEG1yBYHOCFm4+57xR9zGyeqE51buAjnijILGOBEiABAogQPFWAFR2SQJVJRASbj7nvFH3cH7zMusWhBsUoiixjgRIgASKIUDxVgxX9koClSOghduS9Z83vnHDRH3OeUM3MLZngxlYcqvB924MJEACJEAC5RNoiLcf/Nt/bXhdY1D+Y+CIJFAsAS3cFq87ao+9khF9znmlzo0vD+y1O0uvjBxxq5gnARIgARIoiQDFm0e0lsSew5BAKQSihJvPOW9oUjj6CituOLuUgQRIgARIoH0EKN4o3tr36+PIhROIEm7aVYg45w1NaGZy3Aw+e6cZ3bEqZMJyEiABEiCBkghEijfMIc9Xqa32l6V9VJtQHcoZSKDuBCDOZFep+6pUCzftnNd7zzPTZvi1+ebMhsXeahaSAAmQAAmUSyBWvMl0IOJCIanAQ/uktj67UPtQuczZ15eU+dqijIEE6kwAB8rLWaXYnHDly5nG7Wjhpl2FNAycxJn1i8zwqvvpEsThwiwJkAAJtItArHgTkSMxJippxG5eytLekO5T0nF9yFhi74t989N2vvq4cVlPAlUmsO7DYevDDX7csKomJydgzniNKueYJhFueE2K16V0CVLlJ865kQAJdBuBJvEWd/M+sYQ2Wgz50mLjxj7bqDJpLzZuXsp1rG2Qjgtoy0ACdSSA1bXnNh6zwg2rbu/tO9t0G/r7tyTCbfzTzWbgydvM1dHhpn6YIQESIAESaC+BJvGmRY+IGLdMl2Pqvnpdpm1CaW0flU7aHna+4PYNG7cMeQYSqBuBsctfmsd+fcQKN6ysHTgx1nQLaYXbxPHddAnSRJAZEiABEqgOAa94w/RExOhYCx2x0WU6Lbfolrl5Xz/SNkus+0fa13+oXGyzjMs2JNAuAv1nJxobExb2fmaGLkw2TUULN9c5b5Ph15nJoYNWuMGnGwMJkAAJkED1CMwSb5iiCKC4tK7XbXzlIcEk5aE20q/ESe2i+vX1ocuQZiCBOhCAnzb5hg07SrECp4MWbu6OU20n6alz/fZVKV6ZMpAACZAACVSTwCzxJiJJxI/O+8pwW66N5JPcstgmiaPG8rXX40u9LtNpqUccCj09PaEqlpNA6QTgmw2bEnC9sqV5YwImk1a44birE8/cYUZ3/ar0e+GAJEACJEACyQkExVuSLkTwwFbSOg6Vi01cvbaLm4/YSix9u7HUSyz1kkccChRvITIsL5MANiZArIlww/FWbkgr3LCbFLtKL7y/wu2KeRIgARIggYoRiBRvWtC4adyHW+bmk9yr28bN63F02rVz82LrxtpO6qRM8ogRXLHm5r82Y0QCpRE4ce6yeeiNQ42NCXht6oYo57yuLfIQbkMr7jNnNz7lq2YZCZAACZBAxQhEire4uYroCcVoH6pDeZr6OFs9jrbVabFBGYLk3bmgDkLNFWtu/lov/F8SKIfAu3vPNBzvQsBByLkhyjmva2vzM9NmZPVCe5mZaa8JC0mABEiABKpFIFK8aXHjpnEbbpmbT3KrbhvJu/1H9SVtfLHuR/pw7bQN6kS4ubG0Z0wCZRK4cGnKPLXh88Zr0lXbBptOTJC5RDnnFRs3tqcnvDqPpye4YJgnARIggQoTiBRvcfN2RZCbR3u3TOdD9aFy3VbScbZZ6tFGhBvSDCTQLgJ4LfrAKwescEPse00a55w3NPdz7z1vTr50D09PCAFiOQmQAAlUlECkeBOB5ItxP77yssvi5hFVL3USy9yRR+Br0q9BMCqdAAQZVthkUwJW3rAC54Y457yuveRHd75uNyhghykDCZAACZBAvQhEire4WxGxo+O4NlH1up+oNPpAvcRJbLWNzMEtk7zUMyaBdhDQmxJwzBW+dfOFOOe8vjYoo3ALkWE5CZAACdSDQKR4EzHji3F7vvKyypKOr+3kkYTmKLZix5gEyiaQZFMC5hTnnDc0bwq3EBmWkwAJkEB9CATFW0jgdEN5fR4fZ9opBJJuSsD9xjnnDTGhcAuRYTkJkAAJ1IsAxdu//dezVhDr9Qg527oT2HnkQuymBNxjEue8IRYUbiEyLCcBEiCB+hGgeKN4q9+vtkNmjAPkcd5o3KYE3K7+Dg5nmfp2nYawULiFyLCcBEiABOpJgOKN4q2ev9wazxoraGt+P9RwuLvg1QMGq2+hkPQ7OF97CjcfFZaRAAmQQL0JULxRvNX7F1yz2e86OmoefO0zu9qGnaRv7DhpLk/5TzZI8x2cDwOFm48Ky0iABEig/gQa4q3+t8I7IIHqEjgzdqXplAS8LsVr01BI4pw31BbloztW0Y9bFCDWkQAJkECNCVC81fjhcerVJ/Dl9FcGx1bNe2lv45SEqFekSZ3zRt05DpjHyQl0wBtFiXUkQAIkUF8CFG/1fXacecUJ7Ov/wizsvf6KFCcmhF6R4lb0poQo57zB28Yh82sfNkMr7uORV0FIrCABEiCB+hOgeKv/M+QdVIwAXpE+t/FYYxfpE28eMTgNISq0sikB/c5MTZiR1x80I6sXmq+uzj5GK2ps1pEACZAACdSLAMVbvZ4XZ1thAhBtr2w50dhFioPktx+MPju01U0JwAHhhtW2M+sXGTPj3/xQYWycGgmQAAmQQEoCFG8pgdGcBFwCOBxeiza88ox7RYo+kjrndcfTeXzXNvjsnQbfuTGQAAmQAAl0BwGKt+54zrzLAghAtMHVh2xGgGiDiMMKXFRI45w3qp+pc/1m4Onb7UHzUXasIwESIAES6CwCFG+d9Tx5NyUQyCra0jrnjbqVyaGDZuDJ28zYx+uizFhHAiRAAiTQgQQo3jrwofKWiiHgijYca4WNCXErbZhNGue8cbO/PLDX9C++xYx/ujnOlPUkQAIkQAIdSIDirQMfKm8pXwJw77H+o1MGZ4rKOaQQbXDtERcg7J7a8HmjXZxz3rj+xvZsMP1P3Gwg4BhIgARIgAS6kwDFW3c+d951AgIi2r7/y/0N8ZVUtKV1zhs7nZlpc+69583AklsNXpkykAAJkAAJdC8Birfuffa88wABbCjo3X6yaaVtyfrPzbHT0b7apLu0znmlXSiGK5BTvQt4akIIEMtJgARIoMsIzBJvN9xwg0lyaU7btm1L1Gbu3Lm6mVm0aFGidrDTYc6cOYna9fX1NZohneS+0Hdc6OnpiTNhfc0ITM98ZXb3jTa94sQr0l/8ps8cHhpPdDd4RZrWOW9cx1dHh83gc3fZkxMg4hhIgARIgARIYJZ4I5J4AhRv8YzqYoFNCO988v+3d74vdlRnHM/bvuhfkb+irwvNiyKIIAhFEITSIEWkBUGwbCvaRkIw0mqt1QYNSWtMUyuhjT/Sxmjqr4DRaH51zcY16yabZE02a9xm11O+Y56bs+eeMzN3Zu7eufd+Bi7n5/PMmc/cF1/OmfOcWffA9m+PsZJg0zKpQoB8MZ8+ON5/Pok2P85bmeC8vn0qr+/atEx66Y1tqS7UQwACEIDAGBJAvJV46aFYC8slXNClZQS0BPrs/jOdGG0SbQ/tOu4OfHzBKaRHmUvCzxdtZYPzlvJ9Y2PCwrEDZbrTBwIQgAAExohAl3grs7SoPv41ysumEmqhWAvLPgvy7SWgTQSHjl90v/7ryc4GBAmuZ16fcqdmrpYeeBgypGxw3lI3sI0Jj93uvp49WcqEThCAAAQgMF4EVquw8Xr2wqc14RamhYZ0aBUBLWvueWfGaTnTQn3c/9zRLPyHhFjZq6+i7cYZpdqYcPbZnzgde8UFAQhAAAIQiBFAvMWoeHUm3LwqskNAQAe+v3LkvHt494mOYJNwU5w1bUzQBoWyVyja5KdscN6y97CNCedeeoTD5ctCox8EIACBMSWAeCvx4lkmLQGpBV0Wri27fx2dywSazbApVXBdHRSvECC9XBbnrUpw3l7uc/XEW9mJCfOHdvRiRl8IQAACEBhTAoi3MX3xo/LY2lzw5rGLWYgPfXtmok2Hxetbtg9Of+n0rVsvl4m2KsF5e7mPs+/bttzmFk8f7smUzhCAAAQgML4EEG/j++6H9skl2N4+eSlbupRIM8Em8aa4bGoru2PUh1A3OK/vqyivb9rObrvHzWy/j+/bimDRDgEIQAACqwgg3lbhoNBWApo90yyawnv4y5gSbvqOTbNvWjbt9WoiOG+v91ycfC+L33Zx/9N839YrPPpDAAIQgIBDvPEnaC0BbTpQaA8tf/pLmBJs2ojw2odzTn2qXNqEUDc4b5X7KuCuAu8unnq7ijk2EIAABCAAAcQb/4H2ENBSp84F1bmiv3zheGc51JZFf/HnY27v4Vmn0B9VryaC81a59/Lil25mx8+/PZ/08rkqLrCBAAQgAAEIZASYeeOPMDACWrKUmJIg08Hv/oYDCTYtj/7un59mM2xlj6qKPUxTwXljvsvUXTt7zJ157HY3t28ry6RlgNEHAhCAAARyCSDecvHQ2DSBuStL2RFUf3j1dNdSqMTbo3876f7+3kx2GHwvsdhi42wqOG/Md9m6+XdfdFOP3uIWPt5f1oR+EIAABCAAgVwCiLdcPDTWIaAZr88ufJVtJlCcNS172hKopapTmwLnKkRH3avJ4Lx1xnL98rlsmVSnJSxdmq7jClsIQAACEIDAKgKIt1U4hrtQd6aqztNLeJ04u5Atceqwdm0oCJdBJdi08UCzbjoAXrNwTVxNB+etO6bLH+zNNiVkQXdX6gvSuuPBHgIQgAAERosA4m0E3qeWBxVCQzsz1+LS7JY2FuhbNR0TFZtRk1CTeJOIe/7AZ5mo0/dtTV39CM5bd2zalDC760E3/dTdHCpfFyb2EIAABCCQJNBK8bZu3ephheXk09xo6LV/yl9VP3l2eW2pcaTqNdv1wqHPnQWqVeiMpi751pKnRJqOnNr9n7NZAFz/cHdb+rQZNcVb03gkImXb9Exgv4LzNsFs4dgBYrc1ARIfEIAABCBQSGC1Sirs3r8Ovqjx87pjWC4ahfrbz+yt7Kdl/MT6yEfeVbc9z7fa9C2ZYpSFsc9efv+LItNOu5YsT81czU4jkC99d6adnQ/tOt4VBNcXaco/sP2TrK82Fihwbp3QHZ0BJTL9Cs6buF3P1SvXFpwOk59+4k53bfpoz/YYQAACEIAABHolkK9CevVWo78vePy8XKoc/vJuFdqbD98m1Se8j1+O+fF9Wj7m29rK+vD7+3nNaj2485OuD/8lqrSEqfZXjpx3EnL67XlnxukbNC2rKhxHyjYm0LTzUwFyNeum2bdPpq9UOsXAH3+ZfD+D85a5f9k+2UkJN0KAfHO9me/3yt6bfhCAAAQgML4EcsXb+vXr3aZNm5J0NmzY0CWqJicnk/3zGnzB4+dlE5ZDP2rP+8V8FPmsahPa5Y3L2sLniZUlnPT9WCiyqpS1zKoguFv3/jf7Hk0iT6JPGw40i9b0cmfsefy6tQjO69+vbl6zbef3bnZnHr+DA+XrwsQeAhCAAAR6JpAUbxJtEhcp8WbCzRdrGzduzGwOHjzY+0C8pUhfWKXyeTfwbfx+Vm+p3xbL+/38fKqv+oS/sG+Rn7C/lbXEqZm1PLGmjQPaHGCzbloOlSjTT8ubU3OLazJzZmNOpRKHaxGcN3X/OvVXPtzXCbi7stTcBow6Y8IWAhCAAATGi0CXeDNRZiIkJd4k1GKX7OSj18sXNam8fPpt4T2sLUz9ftYW1qm+ys/3Y/nYPdQWq4/VmZ9YqpkxfZ9mmxR8Mafl0bZeaxmctx8Mli5MuZnt9znFbdOJCVwQgAAEIACBQRHoEm82EM2oSVikxJv1C1MttTYl3mLCJlanMfj1RXm/PRx/WO6lr40jZlO2Lrx/qqyD1TXD5u/+1HdtbbgGEZy3X8+tb9ku7n8620l6+f09/boNfiEAAQhAAAKlCTQq3kzwpWblyo4qJnTK2qpfzD6sC8sx/2X6hHaysZ+1WTlMrT0vnZiYyGvOdp6+/tH5LNaaNiSs9TXI4Lz9ftbFU29n37VpN6liuHFBAAIQgAAE2kCgUfFmS65VvnlrCkYokGJlu5faYlfMJqxL2ane/Foa9k3Vh/1UzhNvWoq04Lz6jkyx1fp5tSE4bz+fz3zraKss2O6Td7mvzhyxalIIQAACEIBAKwjE1YtzzmbRyi6bqp9ESdVZN9mW/eWRKxJGvbQX9Q3HYf3D1O9nbVYXlkOxFpZlp9kuhQCx795GPTivsep3qiVSHWl1Zsttbv7N553jaKt+I8c/BCAAAQhUINCIeKsr3DRuX8T4+aK28JllW/QLbazs39fPW3te6vf382ajurA+LEuohWLNL2t2TfHW/O/ctGFB376VvYYlOG/Z52mk38qyy84jffwON7t7wmnmjQsCEIAABCDQVgK1xVsTwk1wfCHj54vaQrChbdn20E7l1C/0GZZ9X+Yjr4/aTLiFqdkdnpxPniE6KsF57VnXMtWxVtNP3uVmnruXXaRrCZ57QQACEIBAZQK1xJvFdSu7tJo3ylDw+H3z2vx+yptYyktjNmFdquyPpWqflA8Tbr5fxUPTmaF+SJCq+bYF5/Wfc63zi6cPZ4JNh8hrYwIXBCAAAQhAYFgIVBZvvWxOsNm5PJHnCxo/L5B+2c/HINdtj/n064r8h+P1bf22lB9/mVT9dTC8TkLIE2zDEpw3ZDGI8tezJ93sXx7IdpFqqZTv2gbxFrgnBCAAAQjUIdAl3kyUSVyEP/80hbAtLO/cubMzrjzxFtr1Uu7cwMuUsfe6l8rKpy5Li4xi/Wxcvm2sn9/u57WTVEF4f/r0kS4h1+bgvP4zDDJ/fX4mO0B+avOt2aYEziId5Nvg3hCAAAQgUIdAl3ir46wNtkWCqKg99Qy92Pl9lffLof+8trCvygrOq52mP/vTRx0R15bgvLHxDrpOmw/m9m11U4/e4i689nunc0m5IAABCEAAAsNMYOTE2zC/jF7GrsPcFSJES6aDCM7by1gH0VfHWSm47tRvfpiJt+sLFwcxDO4JAQhAAAIQaJwA4q1xpGvrcC2C867tE9W7m84d1TdtmmnTsVaItno8sYYABCAAgfYRQLy1750wogoEFiffy3aPZgF2D+1gebQCQ0wgAAEIQGA4CCDehuM9McoYgZVll8Vpe+pu99lvf+R0cDwbEWKgqIMABCAAgVEigHgbpbc5Js+ysrSYCTUJNsVpW/joVUJ+jMm75zEhAAEIQMA5xBv/gqEhoO/Zzu/dnH3P9sXO+93VE28NzdgZKAQgAAEIQKApAoi3pkjipy8EbJbt8z/+2J157HZ38d/PcPZoX0jjFAIQgAAEhoUA4m1Y3tSYjTM6y7ayPGYUeFwIQAACEIBAN4GRE2+poLep+m4kN2uq2Mi6qt3NO49njlm28XzvPDUEIAABCPRGoBXiTWKnl1/eI6aEU6q+iq88G7WF98p7tiJfo94uwXblw32d2GyK0ZZ9y8Ys26i/ep4PAhCAAAQqEmiFeIuNPRRA1idVH7bnCSZrM5tUWnSvsnYpP6n6lN9RqY8JNgk41XNBAAIQgAAEIJBPIFe8rV+/3ulQ+dQVO8TeP5A+ZVemPiVsUvXmM9Weqje7WFrFRn5Cu7Bs90rVW/sopQi2UXqbPAsEIAABCAySQFK8SbRJXKTE28aNG7P2ycnJzvgl3PJsOh1LZFLCJlVvLtVufSwfS61/Xmp+8vpYW+weZm+p31f5sN7aRyXV+aIKnKuwHjquSkuizLCNytvlOSAAAQhAYFAEusRbOJuWEm+pes3W6Vf3Sgmbonprt9TGEZatPi+tYiN/oV1YjvXJG8ewtF2fn3GXP9jrZvf8yumYqukn7szisimILkuiw/IWGScEIAABCLSdQJd4swFrRk2iIyXSrF+YSrhJANa9YoJHPovqrV1pmV/eOPPsi+z8dhuTX9e3/MpyJqD65t9zrEPfJczOv7zJnXn8jux37qVHsvtLyHFBAAIQgAAEINA8gUbFW2wpteqQU4KnqD7VXmUcVX2ZnZ8qH/sVjWtiYqKoS6c9O+fzybvcpw99v1PXVEYzZ9emj7r5d190c//Yks2qaXZtdvdEtjS6dGm6qVvhBwIQgAAEIACBHAK1xZvN0EmYSLw1dZnwMX9WttTqlfp1YV7l2M+3T+V9X6k+sXq7n7WZH0vDeivH0jLiTaJq5rl7M9Em4VZXvF2/fC4L13HpjW1udteDmVDTN2u6x9y+rdnMmr5n44IABCAAAQhAYO0J1BZv/pD7vWEhFD/+vS3v9/Hz1q40Ve/36aWfbyffoX8rW2r9w7LqQ7EWls1WqWa7JK5MsPlp7jdmK8tOy5qLpw9nGwjm33w+m02b2X5ftrFAB77Lr8SbZvMk5rggAAEIQAACEGgHgUbFmx7Jlk7rPl5M2JTx6dspn/r16quov91H/fwxhGVrs9T3K6EWirWwrP761kwHtH/68A+iwk0ibv7QjmyGzISZdnpm54Nuuc1Nbb7VTT91d7YLVH4k0rTRQDN4uaLPHyx5CEAAAhCAAAQGQqBv4s0PIVLlyWLipowf387P+7aper+P8mX7Fdn5fixvqdmacAtTa7dUM2aaGfNn2WJ5zZz5wkyzbJqp++b6krkihQAEIAABCEBgCAlUFm+p79ss1EhdFqG4KevPt1M+9Svjz/dVpr/1Ce2KymZnws3KqVQCTPHT8kQc36Sl6FEPAQhAAAIQGG4ClcWbBEkYz82WTMNTFhRuRP17CTsSCp6ymH07P+/bp+r9PsqX7Vdk5/uxvKWhbWyZNOzjl/VN2tlt93TNxGmmjQsCEIAABCAAgdEj0CXebOZM4iL8hUuhYbvKYR8hyxNvMR9l62KvQ7Z2+XnVWdlSv5/qqvzMR5F/v91swnFYfZX02tlj325euPEdHOKtCkVsIAABCEAAAu0ncFPprPFYT51adgcP/q9zV+WbKJsgkq91677X5d9vb+J+dgMbf8y/6jSW2P38/mJS99J3bQrnoc0HXBCAAAQgAAEIjB6BgYk3CZnvfmfR7dq1lP2UH/eyL+5G76/GE0EAAhCAAAQg0ASBgYk3DV7CDdF2U7Q28ULxAQEIQAACEIDAaBMYqHgTWltuNMzjXjYOpBCAAAQgAAEIQCBGYODiLTYo6iAAAQhAAAIQgAAE4gQQb3Eu1EIAAhCAAAQgAIFWEkC8tfK1MCgIQAACEIAABCAQJ4B4i3OhFgIQgAAEIAABCLSSAOKtla+FQUEAAhCAAAQgAIE4AcRbnAu1EIAABCAAAQhAoJUEEG+tfC0MCgIQgAAEIAABCMQJIN7iXKiFAAQgAAEIQAACrSSAeGvla2FQEIAABCAAAQhAIE4A8RbnQi0EIAABCEAAAhBoJQHEWytfC4OCAAQgAAEIQAACcQKItzgXaiEAAQhAAAIQgEArCSDeWvlaGBQEIAABCEAAAhCIE0C8xblQCwEIQAACEIAABFpJoFC8TUxMtHLgDAoCEIAABCAAAQiMIwHE2zi+dZ4ZAhCAAAQgAIGhJdAl3sKZtrA8tE/KwCEAAQhAAAIQgMAIEFgl3iTUQrEWlkfgmXkECEAAAhCAAAQgMLQE/g+gx7Izi1RPLAAAAABJRU5ErkJggg==;" vertex="1" parent="V8XmrHc5MlVxD15gC6Ko-1">
          <mxGeometry x="102" y="40" width="623" height="788" as="geometry" />
        </mxCell>
      </root>
    </mxGraphModel>
  </diagram>
</mxfile>
